SplineFontDB: 3.2
FontName: RoutedGothicNarrow-Italic
FullName: Routed Gothic Narrow Italic
FamilyName: Routed Gothic Narrow
Weight: Regular

StartChar: exclam
Encoding: 33 33 0
Width: 230
Flags: HW
LayerCount: 2
Back
SplineSet
10.7666015625 72 m 0
 2.12890625 59.068359375 -13.1025390625 48 -23.7490234375 48 c 0
 -30.1484375 48 -33.234375 56 -29.9208984375 64 c 0
 -28.8056640625 66.6923828125 -27.328125 69.3837890625 -25.5810546875 72 c 1024
-25.5810546875 72 m 0
 -16.943359375 84.931640625 -1.7119140625 96 8.93359375 96 c 0
 15.333984375 96 18.4208984375 88 15.1064453125 80 c 0
 13.9912109375 77.3076171875 12.5146484375 74.6162109375 10.7666015625 72 c 1024
247.749023438 688 m 1
 82.0634765625 288 l 1025
EndSplineSet
Fore
SplineSet
-77.0572810932 98.6323068994 m 2
 -60.0124404574 125.178313702 -45.4344381465 138.030419555 -25.6493088867 150.396125342 c 0
 -10.2378792336 159.880082052 8.22881073142 168 29 168 c 0
 59.9273678959 168 76.3551559647 145.130324431 81.1806553028 127.2471569 c 0
 82.9901835627 120.827354653 83.9419561541 114.278708401 83.9419561541 107.398146102 c 0
 83.9419561541 96.3703985335 81.4970681835 84.4900339034 76.2202176309 70.9209896252 c 0
 72.0984505055 61.3035329993 67.7910568567 53.9199699795 62.9692070641 46.6871952906 c 0
 62.5277551838 46.0250174702 62.0572810932 45.3676931006 62.0572810932 45.3676931006 c 2
 45.0124404574 18.8216862977 30.4344381465 5.96958044538 10.6493088867 -6.39612534198 c 0
 -4.76212076645 -15.8800820516 -23.2288107314 -24 -44 -24 c 0
 -68.5811451689 -24 -84.6326760188 -8.40027942232 -91.466252584 5.266873708 c 0
 -95.7503586099 13.8350857597 -98.2116563172 23.9873981206 -98.2116563172 35.4063055001 c 0
 -98.2116563172 46.8603675736 -95.7351803872 59.5888354482 -90.13782393 73.2712623435 c 0
 -86.9637367056 80.6774658671 -83.7324998921 88.6678654674 -77.9692070641 97.3128047094 c 0
 -77.5277551838 97.9749825298 -77.0572810932 98.6323068994 -77.0572810932 98.6323068994 c 2
-37.0987564595 72.1471104457 m 2
 -41.4263524002 65.4099602938 -42.6038162524 62.3315772308 -45.86217607 54.7287376565 c 0
 -52.6846425067 38.0515974778 -49.9523461482 29.5703237564 -48.533747416 26.733126292 c 0
 -47.3673239812 24.4002794223 -47.4188548311 24 -44 24 c 0
 -36.7711892686 24 -25.2378792336 27.8800820516 -14.6493088867 34.396125342 c 0
 -1.6232106108 42.5374367644 10.7260869751 54.0107144857 20.7082663273 69.8158317933 c 0
 20.8779406815 70.0844828542 20.6984530884 69.8458840252 21.7064659629 71.2906333947 c 0
 28.0194798053 80.905337164 28.5704387195 81.808620633 31.791570604 89.106261899 c 0
 36.9314696031 102.785179819 36.2463402541 109.989747082 35.0121691547 114.103650746 c 0
 34.9368471735 114.354724017 34.8024854828 114.835523054 34.7165799965 115.179144999 c 0
 33.397351396 120.456059401 34.2922657369 120 29 120 c 0
 21.7711892686 120 10.2378792336 116.119917948 -0.350691113299 109.603874658 c 0
 -13.3767893892 101.462563236 -25.7260869751 89.9892855143 -35.7082663273 74.1841682067 c 0
 -36.0618410398 73.6243415785 -37.0987564595 72.1471104457 -37.0987564595 72.1471104457 c 2
186.854680828 697.251838525 m 2
 200.650916569 729.861123004 232.49929115 760 268 760 c 0
 274.370026575 760 280.810101668 758.848235666 286.801957611 756.3276591 c 0
 307.322188692 747.69547333 314.779097344 729.419090848 314.779097344 710.637478621 c 0
 314.779097344 699.549061643 312.179942329 688.284543482 308.13533839 678.724570535 c 2
 142.13533839 278.724570535 l 2
 128.562894742 246.644249187 97.7994921164 216 62 216 c 0
 55.6299734255 216 49.1898983322 217.151764334 43.1980423895 219.6723409 c 0
 22.6748748304 228.30576195 15.221863496 246.593443837 15.221863496 265.372842007 c 0
 15.221863496 276.455689847 17.817663225 287.709796918 21.8546808281 297.251838525 c 2
 186.854680828 697.251838525 l 2
231.145319172 678.748161475 m 2
 66.1453191719 278.748161475 l 2
 63.2036390726 271.795099422 62.8450708808 266.804367485 63.1721045749 264.088568863 c 1
 71.0343506352 265.198489341 90.1021993827 278.927791473 97.8646616102 297.275429465 c 2
 263.86466161 697.275429465 l 2
 266.78556948 704.179393521 267.153846181 709.204625603 266.827670966 711.913295126 c 1
 258.491322806 710.756579246 238.708041674 696.62368739 231.145319172 678.748161475 c 2
EndSplineSet
EndChar

StartChar: quotedbl
Encoding: 34 34 1
Width: 307
Flags: HW
LayerCount: 2
Back
SplineSet
350.1484375 688 m 1
 263.991210938 480 l 1025
222.1484375 688 m 1
 135.991210938 480 l 1025
EndSplineSet
Fore
SplineSet
161.858521687 697.260916918 m 2
 175.442504159 729.368511854 206.198504751 760 242 760 c 0
 248.290473693 760 254.620573568 758.878184681 260.515750329 756.477168981 c 0
 281.49986619 747.930658217 289.523690321 729.100562333 289.523690321 709.637552421 c 0
 289.523690321 703.242002333 288.657292797 696.778111372 287.099651721 690.588301188 c 2
 289.858521687 697.260916918 l 2
 303.442504159 729.368511854 334.198504751 760 370 760 c 0
 376.290473693 760 382.620573568 758.878184681 388.515750329 756.477168981 c 0
 409.49986619 747.930658217 417.523690321 729.100562333 417.523690321 709.637552421 c 0
 417.523690321 698.985143451 415.12011876 688.14314232 411.122313345 678.693784067 c 2
 324.122313345 470.693784067 l 2
 310.574347807 438.671320066 279.795242732 408 244 408 c 0
 237.629973425 408 231.189898332 409.151764334 225.198042389 411.6723409 c 0
 204.676005385 420.305286363 197.221493848 438.588618699 197.221493848 457.368869434 c 0
 197.221493848 467.5762597 199.423638577 477.930445128 202.926697038 486.961735883 c 2
 196.122313345 470.693784067 l 2
 182.574347807 438.671320066 151.795242732 408 116 408 c 0
 109.629973425 408 103.189898332 409.151764334 97.1980423895 411.6723409 c 0
 76.676005385 420.305286363 69.221493848 438.588618699 69.221493848 457.368869434 c 0
 69.221493848 468.453861237 71.8185848725 479.711975358 75.8585216868 489.260916918 c 2
 161.858521687 697.260916918 l 2
206.141478313 678.739083082 m 2
 120.141478313 470.739083082 l 2
 117.20791441 463.805204766 116.845583772 458.800108264 117.172104575 456.088568863 c 1
 125.051535555 457.200915351 144.072647706 470.857942055 151.896785974 489.35135978 c 2
 238.858771898 697.260994446 l 2
 241.974139549 704.624590711 241.957501215 709.609826517 241.467895197 711.98189282 c 0
 234.242239184 711.289220685 214.152420148 697.67403651 206.141478313 678.739083082 c 2
334.141478313 678.739083082 m 2
 248.141478313 470.739083082 l 2
 245.20791441 463.805204766 244.845583772 458.800108264 245.172104575 456.088568863 c 1
 253.051535555 457.200915351 272.072647706 470.857942055 279.896785974 489.35135978 c 2
 366.858771898 697.260994446 l 2
 369.974139549 704.624590711 369.957501215 709.609826517 369.467895197 711.98189282 c 0
 362.242239184 711.289220685 342.152420148 697.67403651 334.141478313 678.739083082 c 2
EndSplineSet
EndChar

StartChar: numbersign
Encoding: 35 35 2
Width: 537
Flags: HW
LayerCount: 2
Back
SplineSet
136.250976562 48 m 1
 542.1484375 688 l 1025
-4.548828125 48 m 1
 401.348632812 688 l 1025
122.736328125 448 m 1
 481.13671875 448 l 1025
56.462890625 288 m 1
 414.86328125 288 l 1025
EndSplineSet
Fore
SplineSet
272.127466998 376 m 1
 261.877466998 360 l 1
 265.872533002 360 l 1
 276.122533002 376 l 1
 272.127466998 376 l 1
238.791222983 412.946247776 m 2
 242.980801721 419.486078001 250.797808706 424 259 424 c 2
 320 424 l 2
 323.357271214 424 327.851015415 423.018395375 331.320819118 421.162208167 c 0
 339.369210819 416.85668457 343.915903711 408.40233703 343.915903711 399.809438219 c 0
 343.915903711 395.414987158 342.726784241 390.984300086 340.208777017 387.053752224 c 2
 299.208777017 323.053752224 l 2
 295.019198279 316.513921999 287.202191294 312 279 312 c 2
 218 312 l 2
 214.642728786 312 210.148984585 312.981604625 206.679180882 314.837791833 c 0
 198.630789181 319.14331543 194.084096289 327.59766297 194.084096289 336.190561781 c 0
 194.084096289 340.585012842 195.273215759 345.015699914 197.791222983 348.946247776 c 2
 238.791222983 412.946247776 l 2
76.533747416 58.733126292 m 2
 76.533747416 58.733126292 77.9249993578 65.1258043916 84.8769354166 75.6511655275 c 2
 174.261109326 216 l 1
 170.199382074 216 l 1
 47.1960625979 22.0332269807 l 2
 31.6510451159 -1.8821845301 6.75376446346 -24 -24 -24 c 0
 -30.2904736929 -24 -36.6205735684 -22.8781846814 -42.5157503293 -20.4771689808 c 0
 -63.4935664033 -11.9332240235 -71.524963602 6.87388998979 -71.524963602 26.3420708191 c 0
 -71.524963602 37.0062184381 -69.115098913 47.8687227736 -65.1032140256 57.3513597801 c 0
 -64.9147836121 57.7967407575 -64.6267096055 58.4122122491 -64.466252584 58.733126292 c 0
 -63.3667186968 60.9321940664 -59.872838747 68.7180694198 -55.772436302 74.6384365864 c 2
 33.5333622552 216.105144035 l 1
 26.7625240205 216.667217454 23.4502510746 217.500254289 18.4842496707 219.522831019 c 0
 -2.49356640326 228.066775977 -10.524963602 246.87388999 -10.524963602 266.342070819 c 0
 -10.524963602 277.006218438 -8.115098913 287.868722774 -4.10321402565 297.35135978 c 0
 9.40885795268 329.288984456 40.2109883683 360 76 360 c 2
 124.872533002 360 l 1
 135.122533002 376 l 1
 103 376 l 2
 96.7095263071 376 90.3794264316 377.121815319 84.4842496707 379.522831019 c 0
 63.5064335967 388.066775977 55.475036398 406.87388999 55.475036398 426.342070819 c 0
 55.475036398 437.006218438 57.884901087 447.868722774 61.8967859744 457.35135978 c 0
 75.6139523255 489.773752974 107.512981283 520 143 520 c 2
 226.800617926 520 l 1
 349.803937402 713.966773019 l 2
 365.348954884 737.88218453 390.246235537 760 421 760 c 0
 427.290473693 760 433.620573568 758.878184681 439.515750329 756.477168981 c 0
 460.493566403 747.933224023 468.524963602 729.12611001 468.524963602 709.657929181 c 0
 468.524963602 698.993781562 466.115098913 688.131277226 462.103214026 678.64864022 c 0
 461.914783612 678.203259243 461.626709605 677.587787751 461.466252584 677.266873708 c 0
 460.340149402 675.014667343 456.942660469 667.382742693 452.717826584 661.282715157 c 2
 362.738890674 520 l 1
 367.746069996 520 l 1
 489.781134058 713.931690951 l 2
 505.68896914 738.405283385 531.549465291 760 562 760 c 0
 568.290473693 760 574.620573568 758.878184681 580.515750329 756.477168981 c 0
 601.493566403 747.933224023 609.524963602 729.12611001 609.524963602 709.657929181 c 0
 609.524963602 698.993781562 607.115098913 688.131277226 603.103214026 678.64864022 c 0
 602.914783612 678.203259243 602.626709605 677.587787751 602.466252584 677.266873708 c 0
 601.340149402 675.014667343 597.942660469 667.382742693 593.717826584 661.282715157 c 2
 503.695839907 519.932402743 l 1
 509.470539184 519.616067634 514.431458209 518.547923719 519.515750329 516.477168981 c 0
 540.493566403 507.933224023 548.524963602 489.12611001 548.524963602 469.657929181 c 0
 548.524963602 458.993781562 546.115098913 448.131277226 542.103214026 438.64864022 c 0
 528.386047674 406.226247026 496.487018717 376 461 376 c 2
 412.301943396 376 l 1
 402.301943396 360 l 1
 435 360 l 2
 441.370026575 360 447.810101668 358.848235666 453.801957611 356.3276591 c 0
 474.312767198 347.699436642 481.782196094 329.459351076 481.782196094 310.670643473 c 0
 481.782196094 299.564348265 479.172247174 288.266354935 475.103214026 278.64864022 c 0
 461.591142047 246.711015544 430.789011632 216 395 216 c 2
 311.199382074 216 l 1
 188.196062598 22.0332269807 l 2
 172.331929103 -2.37313224236 146.44221066 -24 116 -24 c 0
 109.629973425 -24 103.189898332 -22.8482356662 97.1980423895 -20.3276590997 c 0
 76.6872328019 -11.6994366421 69.2178039057 6.54064892438 69.2178039057 25.3293565269 c 0
 69.2178039057 36.435651735 71.8277528256 47.7336450649 75.8967859744 57.3513597801 c 0
 76.0852163879 57.7967407575 76.3732903945 58.4122122491 76.533747416 58.733126292 c 2
119.808366811 37.9366530188 m 0
 117.651957322 32.6227316925 116.881653148 26.5005759394 117.174259347 24.0706749041 c 0
 123.213862651 24.7776887149 138.428967892 33.5437430032 147.803937402 47.9667730193 c 2
 277.731794117 252.853008609 l 2
 281.942596625 259.493120256 289.774760387 264 298 264 c 2
 395 264 l 2
 401.210988368 264 422.408857953 277.288984456 430.896785974 297.35135978 c 0
 433.764620165 304.129876959 434.161178429 309.14373613 433.817230053 312 c 2
 359 312 l 2
 356.342108894 312 351.318487114 312.941160855 347.915990273 314.712803651 c 0
 339.734782412 318.972668879 335.08194329 327.508855899 335.08194329 336.195311138 c 0
 335.08194329 340.50075354 336.225001721 344.843112188 338.648040704 348.71997456 c 2
 378.648040704 412.71997456 l 2
 382.888162235 419.504169009 390.742834806 424 399 424 c 2
 461 424 l 2
 467.512981283 424 489.613952326 437.773752974 497.896785974 457.35135978 c 0
 500.935970764 464.534887465 500.953901263 469.627267731 500.464157787 472 c 2
 460 472 l 2
 456.809337534 472 452.190260922 472.971448521 448.73563597 474.807687644 c 0
 440.655495684 479.102530041 436.083586716 487.576488222 436.083586716 496.191733747 c 0
 436.083586716 500.564900618 437.261611305 504.974472405 439.756782289 508.892328598 c 2
 553.756782289 687.892328598 l 2
 553.989795066 688.258199539 554.450057462 688.93340995 554.8 689.4 c 0
 555.297552053 690.063402737 556.496669666 692.489753766 559.141634178 697.941207341 c 0
 561.587159691 703.978833185 561.915119849 709.815157754 561.467165902 711.985426143 c 0
 555.596315048 711.565766474 539.951251505 703.041209914 530.218865942 688.068309049 c 2
 401.312896881 483.21773806 l 2
 397.086361135 476.501150246 389.242358014 472 381 472 c 2
 319 472 l 2
 315.809337534 472 311.190260922 472.971448521 307.73563597 474.807687644 c 0
 299.655495684 479.102530041 295.083586716 487.576488222 295.083586716 496.191733747 c 0
 295.083586716 500.564900618 296.261611305 504.974472405 298.756782289 508.892328598 c 2
 412.756782289 687.892328598 l 2
 412.989795066 688.258199539 413.450057462 688.93340995 413.8 689.4 c 0
 414.297552053 690.063402737 415.496669666 692.489753766 418.141634178 697.941207341 c 0
 420.587129434 703.978758485 420.915075373 709.815373234 420.467207217 711.985225976 c 0
 414.961406693 711.584067373 400.276903228 703.542212565 390.196062598 688.033226981 c 2
 260.268205883 483.146991391 l 2
 256.057403375 476.506879744 248.225239613 472 240 472 c 2
 143 472 l 2
 136.487018717 472 114.386047674 458.226247026 106.103214026 438.64864022 c 0
 103.064029236 431.465112535 103.046098737 426.372732269 103.535842213 424 c 2
 179 424 l 2
 182.357271214 424 186.851015415 423.018395375 190.320819118 421.162208167 c 0
 198.369210819 416.85668457 202.915903711 408.40233703 202.915903711 399.809438219 c 0
 202.915903711 395.414987158 201.726784241 390.984300086 199.208777017 387.053752224 c 2
 158.208777017 323.053752224 l 2
 154.019198279 316.513921999 146.202191294 312 138 312 c 2
 76 312 l 2
 69.7890116317 312 48.5911420473 298.711015544 40.1032140256 278.64864022 c 0
 37.0640292357 271.465112535 37.0460987366 266.372732269 37.5358422133 264 c 2
 77 264 l 2
 79.9410495268 264 84.7489531772 263.043149371 88.179832479 261.237027705 c 0
 96.3074109262 256.958417404 100.917180682 248.455213046 100.917180682 239.806557928 c 0
 100.917180682 235.465184428 99.755634777 231.087160998 97.2944273239 227.188434147 c 2
 -15.7055726761 48.1884341475 l 2
 -15.9494693693 47.8020845183 -16.4317101601 47.0910531199 -16.8 46.6 c 0
 -17.2975520526 45.9365972632 -18.4966696656 43.5102462339 -21.1416341778 38.0587926592 c 0
 -23.5871294339 32.0212415148 -23.915075373 26.184626766 -23.4672072171 24.0147740241 c 0
 -17.9614066932 24.4159326271 -3.27690322808 32.4577874345 6.80393740207 47.9667730193 c 2
 136.731794117 252.853008609 l 2
 140.942596625 259.493120256 148.774760387 264 157 264 c 2
 218 264 l 2
 221.190662466 264 225.809739078 263.028551479 229.26436403 261.192312356 c 0
 237.344504316 256.897469959 241.916413284 248.423511778 241.916413284 239.808266253 c 0
 241.916413284 235.435099382 240.738388695 231.025527595 238.243217711 227.107671402 c 2
 124.243217711 48.1076714017 l 2
 124.081739634 47.8541224912 123.81560966 47.4503929375 123.480138582 46.9810815202 c 0
 123.024575677 45.941494109 123.031538529 45.0504652571 119.808366811 37.9366530188 c 0
EndSplineSet
EndChar

StartChar: dollar
Encoding: 36 36 3
Width: 403
Flags: HW
LayerCount: 2
Back
SplineSet
376.788085938 536 m 0
 376.788085938 536 364.784179688 592 294.383789062 592 c 0
 234.383789062 592 169.315429688 545 147.362304688 492 c 0
 130.139648438 450.420898438 124.538085938 390.134765625 206.5703125 380 c 0
 296.518554688 368.887695312 292.130859375 316.170898438 270.521484375 264 c 0
 244.01171875 200 182.015625 144 108.815429688 144 c 0
 41.6162109375 144 26.638671875 216 26.638671875 216 c 1024
337.348632812 688 m 1
 72.2509765625 48 l 1025
EndSplineSet
Fore
SplineSet
184.733126292 180.533747416 m 0
 180.142147658 178.238258099 172.62241341 177.178255662 166.467877177 179.212566494 c 0
 156.414041951 182.53574555 150.04768073 192.166486246 150.04768073 202.215438287 c 0
 150.04768073 205.25870912 150.631570594 208.340336144 151.873757345 211.296740611 c 2
 201.873757345 330.296740611 l 2
 205.460919955 338.834187622 214.738353417 344.872689105 224.481967852 344.872689105 c 0
 228.324734783 344.872689105 232.240012473 343.93344801 235.907334521 341.837835411 c 0
 248.547127653 334.615096478 255.1270782 324.411475061 258.466252584 317.733126292 c 0
 262.266959414 310.131712632 263.881724948 302.389308821 263.881724948 294.413395597 c 0
 263.881724948 281.936064455 259.929951553 268.887271846 254.213126949 254.912811703 c 0
 243.637105646 229.060315184 226.620656108 206.976159821 203.552413974 191.19262573 c 0
 203.274165157 191.00224496 202.737807027 190.654115121 202.34789813 190.420169783 c 0
 197.360913201 187.427978825 191.696016151 184.015192346 184.733126292 180.533747416 c 0
226.545936834 558.05948072 m 0
 231.248113116 560.074699127 237.81911755 560.634336858 243.380525974 558.836983959 c 0
 253.509031669 555.563622665 259.95374725 545.891786681 259.95374725 535.785698693 c 0
 259.95374725 532.793773882 259.388889676 529.763788349 258.187534215 526.850501355 c 2
 218.187534215 429.850501355 l 2
 215.025510382 422.182593559 205.455560126 415.20568657 195.151778845 415.20568657 c 0
 190.836601537 415.20568657 186.392717842 416.429364033 182.236903735 419.338433908 c 0
 168.802610196 428.742439385 160.122152762 440.019969792 157.288954651 456.192016723 c 0
 156.688704978 459.763048525 156.42029426 463.312452535 156.42029426 466.812255762 c 0
 156.42029426 478.914472484 159.629831745 490.423584825 163.426219338 500.182940519 c 0
 167.335235297 510.831639166 174.796317701 520.737443198 184.029437252 529.970562748 c 0
 184.264294201 530.205419698 184.72041628 530.640177792 185.055267868 530.937823648 c 0
 195.274081143 540.021213226 209.141300578 550.600350896 226.545936834 558.05948072 c 0
436.979830468 526.357006356 m 0
 423.69963456 494.967452391 392.748758088 464 357 464 c 0
 340.49341493 464 325.438367379 473.109670685 317.505585374 484.74254889 c 1
 296.313344819 433.790991811 l 1
 315.286039025 423.420997787 328.879878951 409.958415323 338.224504773 392.20362626 c 0
 347.207806175 375.235168056 350.671817596 356.990337275 350.671817596 338.837185184 c 0
 350.671817596 308.44423358 340.961778472 278.308268334 331.18738775 254.849730601 c 0
 309.372257639 201.402661828 268.717396878 150.089126748 218.705547717 115.298275157 c 0
 197.387865366 100.468583087 174.252393165 88.3841121008 150.676120371 80.9819260472 c 1
 133.134962103 38.723681131 l 2
 119.358175935 6.16036836835 87.4973413368 -24 52 -24 c 0
 45.6299734255 -24 39.1898983322 -22.8482356662 33.1980423895 -20.3276590997 c 0
 12.6779219298 -11.6955198647 5.22086641305 6.58043682368 5.22086641305 25.3621324343 c 0
 5.22086641305 36.4507592402 7.82014791062 47.7156698112 11.8650378966 57.276318869 c 2
 24.9650718192 88.8354915008 l 1
 8.9668559331 98.3257715507 -1.38607917843 108.138976212 -9.92095738285 119.234317877 c 0
 -31.186318154 146.09582622 -37.8768193836 175.923131104 -38.9479210166 179.971775168 c 0
 -39.0927453864 180.448540735 -39.2209838735 180.929400479 -39.2834200035 181.179144999 c 0
 -40.4103124165 185.686714651 -40.9431428929 190.350081742 -40.9431428929 195.067650643 c 0
 -40.9431428929 205.352735394 -38.4105329759 215.895448126 -33.9798304677 225.642993644 c 0
 -20.494366498 257.517726664 11.5530984058 288 47 288 c 0
 58.0949313147 288 68.9335860492 284.129123528 77.1008665016 277.084604232 c 0
 85.2904235568 270.020870711 89.9346977223 260.411054153 92.227002095 251.306792271 c 1
 122.94495675 326.456074195 l 1
 93.6433262935 343.311807392 77.4658268448 368.29439745 71.3901675991 398.672693678 c 0
 70.0333031704 406.81388025 69.4241352534 414.851920116 69.4241352534 422.748451683 c 0
 69.4241352534 451.331419028 77.4055319498 478.060326366 86.7985239603 501.11585221 c 0
 100.464621739 534.142255176 122.095335436 563.036460933 146.15607619 587.097201687 c 0
 179.761172717 619.713913022 218.580468863 644.134323505 259.511985146 656.260012369 c 1
 276.896785974 697.35135978 l 2
 290.408857953 729.288984456 321.210988368 760 357 760 c 0
 363.290473693 760 369.620573568 758.878184681 375.515750329 756.477168981 c 0
 396.504048214 747.928954942 404.522849396 729.083614973 404.522849396 709.624041041 c 0
 404.522849396 698.979421085 402.123446867 688.151008753 398.134962103 678.723681131 c 2
 385.312570716 647.833374606 l 1
 432.755608311 621.131893073 440.857799513 577.80102156 442.558486734 570.668702955 c 0
 443.570144191 566.07921832 444.066777693 561.494395673 444.066777693 556.906976467 c 0
 444.066777693 546.762514995 441.63817121 536.605355988 436.979830468 526.357006356 c 0
393.020169532 545.642993644 m 0
 396.150881875 552.530560798 396.075151317 558.744859716 395.716579997 560.179144999 c 0
 394.718171414 564.172779329 387.58235029 600.018335605 347.181880087 611.988845295 c 0
 337.929883315 614.730177672 330.082538591 624.576786998 330.082538591 635.477773021 c 0
 330.082538591 638.349241886 330.627040478 641.293870542 331.833800076 644.201064119 c 2
 353.865037897 697.276318869 l 2
 356.967112138 704.608494349 356.956252528 709.615876216 356.467895197 711.98189282 c 0
 349.226660299 711.287727248 329.186516817 697.754628635 321.103214026 678.64864022 c 2
 299.103214026 626.64864022 l 2
 296.480474022 620.449436574 289.986445476 614.321950232 282.268292683 612.585365854 c 0
 247.866457122 604.844952852 211.076260531 583.216536896 179.84392381 552.902798313 c 0
 159.904664564 532.963539067 141.535378261 507.857744824 131.20147604 482.88414779 c 0
 123.170459716 463.171653176 117.520300048 441.821987861 117.520300048 421.85944942 c 0
 117.520300048 416.916766347 117.866681572 412.059120714 118.609069122 407.332418107 c 0
 123.085159425 386.002814597 134.82488768 370.428515236 161.38768685 361.834668445 c 0
 171.437928895 358.583119548 177.9513381 348.910716622 177.9513381 338.766681748 c 0
 177.9513381 335.808423691 177.397402843 332.810055524 176.215709107 329.919126205 c 2
 120.215709107 192.919126205 l 1
 120.215709107 192.919126205 119.313051793 190.87052737 118.56385726 189.62551922 c 0
 114.083003823 182.179256857 106.006217601 178.093084558 97.8358415394 178.093084558 c 0
 93.0362987718 178.093084558 88.2044603309 179.50312742 84.0502833507 182.470396691 c 0
 55.0153154607 203.20965947 46.7003358023 235.739400562 45.9432981313 238.337113649 c 0
 45.8232075554 238.75757486 45.6723884082 239.333752557 45.55390257 239.873509031 c 0
 36.9256747364 238.4901447 17.7295705796 224.674573893 9.97983046771 206.357006356 c 0
 6.66462821654 199.063561403 6.83563141442 195.089307834 7.2052460598 193.175342303 c 0
 8.7843867623 187.36162197 12.8387347345 167.816910731 27.9209573829 148.765682123 c 0
 35.3795334101 139.069533287 47.5530033386 129.113886835 63.5894663844 123.768399153 c 0
 73.4662795102 120.476128111 79.9468485693 110.854105 79.9468485693 100.7453269 c 0
 79.9468485693 97.7553825026 79.3799021195 94.722854806 78.166199924 91.7989358806 c 2
 56.1349621034 38.723681131 l 2
 53.2148493719 31.8215964929 52.8462040669 26.7949571237 53.1723290344 24.0867048743 c 1
 61.5142639569 25.2441959495 81.282417604 39.3537618138 88.8650378966 57.276318869 c 2
 110.833800076 110.201064119 l 2
 113.359848994 116.286545604 119.751469002 122.501876014 127.399049141 124.337295248 c 0
 148.703278769 129.450310358 170.075707951 139.940859221 191.294452283 154.701724843 c 0
 233.282603122 183.910873252 268.627742361 228.597338172 286.81261225 273.150269399 c 0
 296.011022131 295.226453115 302.002294866 319.347663804 302.002294866 339.77348829 c 0
 302.002294866 351.290369652 300.097581258 361.632433459 295.789090008 369.77069471 c 0
 289.139101753 382.405672393 278.494071245 391.483040085 257.68538255 398.141820467 c 0
 249.168542086 400.867209415 241.099070829 410.604362204 241.099070829 421.577984279 c 0
 241.099070829 424.408378676 241.635903566 427.321030902 242.840356357 430.216842931 c 2
 289.840356357 543.216842931 l 2
 293.593240409 552.239734375 302.767596415 557.925385336 312.28110564 557.925385336 c 0
 315.804660507 557.925385336 319.374739318 557.145446071 322.733126292 555.466252584 c 0
 328.126891597 552.769369932 334.01685091 548.924274587 338.970562748 543.970562748 c 0
 351.391473948 531.549651549 355.472189159 519.565352625 357.29063804 512.006310218 c 1
 363.657240673 512.317465084 384.42007742 525.315503197 393.020169532 545.642993644 c 0
EndSplineSet
EndChar

StartChar: percent
Encoding: 37 37 5
Width: 691
Flags: HW
LayerCount: 2
Back
SplineSet
518.756835938 168 m 0
 491.3046875 101.725585938 423.205078125 48 366.651367188 48 c 0
 310.09765625 48 286.504882812 101.725585938 313.95703125 168 c 0
 341.409179688 234.274414062 409.509765625 288 466.063476562 288 c 0
 522.6171875 288 546.208984375 234.274414062 518.756835938 168 c 0
377.243164062 568 m 0
 349.791015625 501.725585938 281.690429688 448 225.13671875 448 c 0
 168.583007812 448 144.990234375 501.725585938 172.442382812 568 c 0
 199.89453125 634.274414062 267.995117188 688 324.548828125 688 c 0
 381.102539062 688 404.6953125 634.274414062 377.243164062 568 c 0
72.2509765625 48 m 1
 618.94921875 688 l 1025
EndSplineSet
Fore
SplineSet
52 -24 m 0
 46.1196416639 -24 40.1826673026 -23.0229524103 34.5856180979 -20.884386436 c 0
 12.9450795212 -12.6157938663 5.37132031282 6.11798653544 5.37132031282 25.2589796946 c 0
 5.37132031282 36.3366026769 7.90805891582 47.5506166235 11.7229205871 56.9513704683 c 0
 16.5786360547 69.2938625744 22.2161043214 77.7969662042 29.7667742386 86.6060811076 c 2
 300.391737474 403.242235533 l 1
 269.223565954 385.940415799 236.43984763 376 205 376 c 0
 188.364520968 376 172.671627566 378.926942308 158.549637242 384.794004203 c 0
 115.065251843 402.859841579 93.5697707437 443.864726801 93.5697707437 493.250562644 c 0
 93.5697707437 519.620736894 99.6984705836 548.38045202 111.880750997 577.313368001 c 0
 154.712302415 679.03830262 254.263157275 760 344 760 c 0
 360.636106525 760 376.34593879 757.072964523 390.498922314 751.222109978 c 0
 434.300470853 733.114515285 456.228788267 691.787015609 456.228788267 641.968441986 c 0
 456.228788267 619.062147177 451.592905734 594.360747861 442.315785979 569.295966874 c 1
 576.809378269 726.655928602 l 2
 592.34230624 744.578537799 613.386082513 760 639 760 c 0
 644.880358336 760 650.817332697 759.02295241 656.414381902 756.884386436 c 0
 678.054920479 748.615793866 685.628679687 729.882013465 685.628679687 710.741020305 c 0
 685.628679687 699.663397323 683.091941084 688.449383376 679.277079413 679.048629532 c 0
 674.421363945 666.706137426 668.783895679 658.203033796 661.233225761 649.393918892 c 2
 390.343454805 332.447934592 l 1
 421.505066917 349.936632321 454.36246393 360 486 360 c 0
 502.635479032 360 518.328372434 357.073057692 532.450362758 351.205995797 c 0
 575.934748157 333.140158421 597.430229256 292.135273199 597.430229256 242.749437356 c 0
 597.430229256 216.379263106 591.301529416 187.61954798 579.119249003 158.686631999 c 0
 536.287697585 56.9616973796 436.736842725 -24 347 -24 c 0
 330.364520968 -24 314.671627566 -21.0730576921 300.549637242 -15.2059957968 c 0
 257.065251843 2.85984157892 235.569770744 43.8647268009 235.569770744 93.2505626442 c 0
 235.569770744 117.027423352 240.552317466 142.746947165 250.462345879 168.784479908 c 1
 114.190621731 9.34407139775 l 2
 98.6576937601 -8.57853779918 77.613917487 -24 52 -24 c 0
53.1750851631 24.0638170479 m 0
 57.827464249 24.6193014227 68.2332327888 29.606529971 77.8093782692 40.6559286023 c 2
 624.755725243 680.593153581 l 2
 629.403001108 686.014975423 632.529914023 691.098467358 634.702857798 696.89298409 c 0
 637.969585778 704.614341135 638.178520641 708.999720521 637.824914837 711.936182952 c 0
 633.172535751 711.380698577 622.766767211 706.393470029 613.190621731 695.344071398 c 2
 66.2442747567 55.4068464189 l 2
 61.5969988925 49.9850245773 58.4700859768 44.9015326423 56.2971422021 39.1070159097 c 0
 53.0304142216 31.385658865 52.8214793588 27.0002794785 53.1750851631 24.0638170479 c 0
393.880750997 577.313368001 m 0
 404.369114298 602.223230843 408.803111166 623.826725206 408.803111166 641.974681777 c 0
 408.803111166 676.310546595 392.930956008 698.276796901 372.160895835 706.863156148 c 0
 364.371408149 710.083336498 355.04960776 712 344 712 c 0
 281.736842725 712 193.287697585 646.96169738 156.119249003 558.686631999 c 0
 145.491051687 533.444663371 141.007250094 511.618240181 141.007250094 493.34592804 c 0
 141.007250094 459.299638557 156.574035939 437.592451162 176.965429631 429.120729671 c 0
 184.677377536 425.916756672 193.949764746 424 205 424 c 0
 267.347897013 424 356.768375403 489.171475968 393.880750997 577.313368001 c 0
316.758257563 577.01692261 m 0
 319.925384391 584.829168786 321.274988416 592.068529723 321.293344563 597.830594169 c 0
 321.337779546 611.778904121 317.41888852 616 305 616 c 0
 281.582636838 616 245.227956625 588.549072387 233.241742437 558.98307739 c 0
 230.074615609 551.170831214 228.725011584 543.931470277 228.706655437 538.169405831 c 0
 228.662220454 524.221095879 232.58111148 520 245 520 c 0
 268.417363162 520 304.772043375 547.450927613 316.758257563 577.01692261 c 0
361.241742437 558.98307739 m 0
 343.227956625 514.549072387 295.582636838 472 245 472 c 0
 204.136388259 472 180.70652263 504.050733729 180.70652263 538.086037252 c 0
 180.70652263 551.04617054 183.532755955 564.127351978 188.758257563 577.01692261 c 0
 206.772043375 621.450927613 254.417363162 664 305 664 c 0
 345.863611741 664 369.29347737 631.949266271 369.29347737 597.913962748 c 0
 369.29347737 584.95382946 366.467244045 571.872648022 361.241742437 558.98307739 c 0
534.880750997 177.313368001 m 0
 545.508948313 202.555336629 549.992749906 224.381759819 549.992749906 242.65407196 c 0
 549.992749906 276.700361443 534.425964061 298.407548838 514.034570369 306.879270329 c 0
 506.322622464 310.083243328 497.050235254 312 486 312 c 0
 423.736842725 312 335.287697585 246.96169738 298.119249003 158.686631999 c 0
 287.491051687 133.444663371 283.007250094 111.618240181 283.007250094 93.3459280405 c 0
 283.007250094 59.2996385573 298.574035939 37.5924511617 318.965429631 29.1207296707 c 0
 326.677377536 25.9167566717 335.949764746 24 347 24 c 0
 409.263157275 24 497.712302415 89.0383026204 534.880750997 177.313368001 c 0
457.758257563 177.01692261 m 0
 460.925384391 184.829168786 462.274988416 192.068529723 462.293344563 197.830594169 c 0
 462.337779546 211.778904121 458.41888852 216 446 216 c 0
 422.582636838 216 386.227956625 188.549072387 374.241742437 158.98307739 c 0
 371.206183957 151.495366472 369.918657152 144.561529295 369.894409208 138.963543418 c 0
 369.833018007 124.790503476 374.250006624 120 387 120 c 0
 410.228057874 120 445.64578419 147.139488291 457.758257563 177.01692261 c 0
502.241742437 158.98307739 m 0
 484.35421581 114.860511709 437.771942126 72 387 72 c 0
 345.894675189 72 321.894157961 104.260568574 321.894157961 138.847554152 c 0
 321.894157961 151.579217567 324.634931726 164.379385547 329.758257563 177.01692261 c 0
 347.772043375 221.450927613 395.417363162 264 446 264 c 0
 486.863611741 264 510.29347737 231.949266271 510.29347737 197.913962748 c 0
 510.272820514 184.945860702 507.471554261 171.883279888 502.241742437 158.98307739 c 0
EndSplineSet
EndChar

StartChar: ampersand
Encoding: 38 38 6
Width: 627
Flags: HW
LayerCount: 2
Back
SplineSet
408.250976562 48 m 0
 507.663085938 288 431.853515625 414 259.053710938 414 c 0
 175.853515625 414 145.364257812 464 181.814453125 552 c 0
 208.32421875 616 286.262695312 696 407.862304688 696 c 0
 523.0625 696 547.638671875 624 517.814453125 552 c 0
 487.991210938 480 413.861328125 414.848632812 326.451171875 406.75 c 1024
536.057617188 372 m 0
 536.057617188 372 450.518554688 320 365.499023438 192 c 0
 280.479492188 64 191.475585938 40 116.9375 40 c 0
 8.1376953125 40 -13.0107421875 128 26.75390625 224 c 0
 76.458984375 344 194.266601562 409.096679688 259.053710938 414 c 1024
EndSplineSet
Fore
SplineSet
280 486 m 2
 303.58625837 486 326.89433023 483.93554437 347.947279858 479.399684999 c 1
 372.856025376 483.545264696 393.980325591 493.412285008 410.051115476 504.530553765 c 0
 433.921678456 522.16357391 448.715988868 540.911949855 456.716559419 560.913376232 c 0
 461.680172233 573.322408268 462.956245684 583.769030506 460.762052651 591.997254381 c 0
 458.71641509 600.179804624 456.931837845 604.083846567 447.853593795 609.9198606 c 0
 437.364130302 616.912836262 418.402741525 624 388 624 c 0
 344.746321282 624 312.249296295 611.425171236 290.974210077 597.809116056 c 0
 264.119956075 580.483790894 248.3630589 558.285669565 242.141242054 542.73112745 c 0
 236.086379257 528.891441056 234.787609549 519.368129034 233.903046078 510.837659449 c 0
 233.25748233 500.746822734 234.097373374 501.049216073 236.061840673 498.804110589 c 0
 236.440442055 498.371423295 236.943496393 497.742004809 237.2 497.4 c 0
 239.441404229 494.411461027 250.884848993 486 278 486 c 2
 279 486 l 1
 280 486 l 2
280 438 m 2
 279 438 l 1
 278 438 l 2
 243.547638783 438 215.518801938 447.222928992 199.428670475 467.777482254 c 0
 189.872097623 479.280740131 185.844819669 493.985080064 185.844819669 508.736705025 c 0
 185.844819669 510.864868988 185.928638587 512.994017085 186.091766486 515.114679764 c 0
 187.250141454 526.698429444 189.896852831 543.070232287 197.858757946 561.26887255 c 0
 207.630703544 585.698736545 229.919495985 615.541662048 264.988955124 638.167119557 c 0
 293.78082189 656.593914287 335.242727522 672 388 672 c 0
 425.597258475 672 454.635869698 663.087163738 474.146406205 650.0801394 c 0
 493.068162155 637.916153433 503.28358491 619.820195376 507.237947349 604.002745619 c 0
 509.062184888 597.161854848 509.846849472 590.342525975 509.846849472 583.660902137 c 0
 509.846849472 569.077631791 506.108930692 555.150349044 501.283440581 543.086623768 c 0
 489.225370451 512.941448443 467.276663127 486.89988363 437.963193259 465.478501804 c 0
 414.581453109 449.111283699 384.638081329 435.806017323 350.171929282 431.210530384 c 0
 347.689348706 430.87951964 344.26358789 430.98063167 341.441107345 431.652650848 c 0
 322.728542066 436.108023533 302.680516753 438 280 438 c 2
365.785929841 289.058690975 m 1
 343.979501067 321.704588512 304.863150604 341.52118848 241.490302787 341.997088394 c 0
 227.847532906 340.064988804 206.297268949 333.13949695 184.817129131 321.110618652 c 0
 165.301569054 309.958870037 147.017666321 297.076540824 130.970562748 281.029437252 c 0
 112.866766096 262.925640599 98.1166903815 242.169748268 87.1882230698 214.848579989 c 0
 78.7958466982 195.101812056 75.4339735566 177.937228741 75.4339735566 163.892188172 c 0
 75.4339735566 151.882032667 77.8922605694 142.152966036 81.765467903 135.040989395 c 0
 89.1165026121 123.092198176 102.423350787 112 137 112 c 0
 164.963058644 112 191.115904727 115.66340322 216.267303018 126.938167972 c 0
 251.965495101 142.610544983 283.465876376 171.487640475 314.999976423 219.266579941 c 0
 331.723389324 244.351699292 350.465705978 269.772328883 365.785929841 289.058690975 c 1
415.579830217 299.34789813 m 2
 420.006175264 291.970656385 420.272178388 279.909014537 413.503082039 271.714845272 c 0
 395.083651431 249.417639799 374.448866478 221.906684411 355.000023577 192.733420059 c 0
 320.534123624 140.512359525 282.034504899 103.389455017 235.732696982 83.0618320284 c 0
 202.884095273 68.3365967799 169.036941356 64 137 64 c 0
 89.8408039543 64 57.4145433106 82.3281459902 40.235362415 110.960114149 c 0
 31.2870005851 126.939331703 27.2036379325 144.869496838 27.2036379325 163.810341074 c 0
 27.2036379325 186.03865593 32.827470296 209.658933813 42.8117769302 233.151420011 c 0
 55.8833096185 265.830251732 75.1332339041 293.074359401 97.0294372515 314.970562748 c 0
 116.982333679 334.923459176 138.698430946 350.041129963 161.182870869 362.889381348 c 0
 188.901964941 378.412074028 215.849884775 387.324329176 237.195810058 389.835614504 c 0
 237.865186754 389.914364703 239.103152864 390 240 390 c 0
 315.119774775 390 373.190504389 365.08856815 406.320897314 314.779452968 c 2
 415.579830217 299.34789813 l 2
578.160292697 542.78411077 m 0
 556.670941552 490.462212332 518.028447028 440.89008369 474.621108415 405.044226228 c 0
 475.57901645 403.882438566 477.205788363 401.82761401 477.209447664 401.822950547 c 1
 502.62327536 422.253200041 516.071348588 430.225309262 518.980796619 432.164941283 c 0
 529.917478136 439.000367231 541.730863064 444 556 444 c 0
 562.290473693 444 568.620573568 442.878184681 574.515750329 440.477168981 c 0
 595.508452772 431.927161032 603.521967445 413.065776222 603.521967445 393.609823989 c 0
 603.521967445 382.973404479 601.126948409 372.159285126 597.148258066 362.755107952 c 0
 588.185755846 340.989031131 571.96157668 323.884775027 555.188839924 312.596609135 c 0
 548.666311859 307.96054212 547.665968854 308.224408884 539.568408095 301.926306071 c 0
 533.762163458 297.571622594 526.615070206 291.784105339 518.088639756 284.311070702 c 1
 518.80596529 275.294084252 519.166608737 266.069462187 519.166608737 256.637856426 c 0
 519.166608737 193.28224234 502.893258275 120.586882199 469.145834125 38.7493786369 c 0
 455.348631352 6.137808445 423.500876283 -24 388 -24 c 0
 381.629973425 -24 375.189898332 -22.8482356662 369.198042389 -20.3276590997 c 0
 348.676394901 -11.6948774939 341.22136641 6.58695604826 341.22136641 25.3675004804 c 0
 341.22136641 36.4532310047 343.818902477 47.7127260593 347.859845513 57.264045963 c 0
 352.841582855 69.3032445388 358.156093831 83.3845548339 361.576009809 93.1965036262 c 1
 352.339282288 82.922817479 344.93971791 75.3841189662 336.508840859 67.5777513266 c 0
 301.790700054 33.911675394 264.067700227 10.0832450543 229.594551848 -4.99875736126 c 0
 180.037518882 -26.5452934334 135.262523235 -32 97 -32 c 0
 34.8355241012 -32 -12.6267617421 -7.60301225521 -38.6212656503 35.721160925 c 0
 -53.1217286 60.2604059169 -59.6048410704 88.7072414322 -59.6048410704 119.050457672 c 0
 -59.6048410704 155.53194955 -50.2334187014 194.754684129 -34.1569762418 233.2233143 c 0
 -1.3957068056 312.235787646 53.992853939 373.267282894 108.200317464 414.391306161 c 1
 102.057448201 430.131904752 98.8924942589 447.309006749 98.8924942589 466.047328462 c 0
 98.8924942589 494.119823965 105.995923428 525.696324225 120.831682763 561.196176919 c 0
 143.869126078 617.144253542 190.78124898 675.45708005 254.04578946 716.203733241 c 0
 304.496404117 748.406253235 363.085194351 768 428 768 c 0
 513.777577007 768 575.989087498 732.508915883 592.287560026 664.807568463 c 0
 595.352478861 652.931007974 596.804736935 640.481305018 596.804736935 627.698652246 c 0
 596.804736935 600.139083381 590.054070419 571.03183286 578.160292697 542.78411077 c 0
533.839707303 561.21588923 m 0
 543.867006708 585.030725316 548.704231566 607.941547461 548.704231566 627.898429632 c 0
 548.704231566 637.010642554 547.695771726 645.507021001 545.712439974 653.192431537 c 0
 536.010912502 693.491084117 502.222422993 720 428 720 c 0
 372.894634405 720 323.548865632 703.62264235 279.91285087 675.76986697 c 0
 225.257388149 640.568043523 184.125058992 588.841624487 165.168317237 542.803823081 c 0
 151.999803202 511.293450213 146.97840337 485.896485894 146.97840337 465.774046691 c 0
 146.97840337 445.600909268 152.025137779 430.728908637 158.969207064 420.312804709 c 0
 161.439489488 416.607381073 162.734236022 411.966146672 162.734236022 407.219302439 c 0
 162.734236022 399.713882126 159.497369191 391.944437194 152.552413974 387.19262573 c 0
 98.712625778 350.354875912 41.9729503309 291.509329091 10.1698107257 214.807639455 c 0
 -4.34718901452 180.070532934 -11.2450997218 147.308689328 -11.2450997218 119.193514095 c 0
 -11.2450997218 95.8384075972 -6.48517940157 75.6897460858 2.62126565028 60.278839075 c 0
 18.6267617421 33.6030122552 47.1644758988 16 97 16 c 0
 130.751512637 16 167.932605414 20.5323039969 210.430573326 39.0096813501 c 0
 239.901817436 51.9033506484 272.219891028 72.0985947461 303.491159141 102.422248673 c 0
 328.810982681 125.86652973 352.597051161 156.162192047 376.030792936 191.312804709 c 0
 381.021040183 198.79817558 386.021040183 204.79817558 389.030792936 209.312804709 c 0
 393.282195046 215.689907875 400.928900213 219.99999288 408.997392573 219.99999288 c 0
 422.159788484 219.99999288 432.998569008 208.949328351 432.998569008 195.95864378 c 0
 432.998569008 151.438234607 416.629303381 97.9180638653 392.140154487 38.735954037 c 0
 389.209069624 31.8079352715 388.845510699 26.8007150836 389.172329034 24.0867048743 c 1
 397.50839942 25.2433822116 417.29243269 39.3774338354 424.854165875 57.2506213631 c 0
 456.829333952 134.79040395 471.134928959 202.225699089 471.134928959 257.267609861 c 0
 471.134928959 269.132620918 470.470183749 280.421742409 469.174389231 291.11204718 c 0
 468.371895783 297.732618123 470.922908275 306.282941816 476.721277534 311.635282671 c 0
 490.190355968 324.068278148 502.067090519 333.80031789 510.431591905 340.073693929 c 0
 517.443120927 345.527105391 522.727504111 348.76980642 526.439053643 351.078810993 c 0
 526.793608018 351.345940982 527.501938358 351.854075191 528.021817808 352.188283409 c 0
 538.362488554 358.83585746 547.965592403 369.378528902 552.851741934 381.244892048 c 0
 555.981829097 388.643279887 555.959647573 393.59942774 555.467204137 395.985240897 c 0
 553.504912015 395.818692805 550.669418581 395.257137609 544.995645135 391.821189377 c 0
 542.028816216 389.871678419 520.735785173 376.995243721 487.87891929 348.003891471 c 0
 487.164919635 347.373891776 485.607452431 346.178886879 484.384220957 345.442007119 c 0
 480.589005004 343.155753145 476.376380099 342.07868508 472.201543428 342.07868508 c 0
 463.377298399 342.07868508 454.721876804 346.890614932 450.533747416 355.266873708 c 0
 449.232813706 357.868741127 446.668378228 362.108829029 444.8 364.6 c 0
 444.538481388 364.948691482 444.066738752 365.62059404 443.752124294 366.114988187 c 0
 438.580362086 374.242043086 431.063768411 381.995106092 422.029437252 391.029437252 c 0
 417.857633968 395.201240535 415.394651683 401.634980181 415.394651683 408.224564368 c 0
 415.394651683 415.410534879 418.323629806 422.781835694 425.159603258 427.607228718 c 0
 472.590154811 461.08761805 512.727350997 509.811891267 533.839707303 561.21588923 c 0
EndSplineSet
EndChar

StartChar: quotesingle
Encoding: 39 39 7
Width: 179
Flags: HW
LayerCount: 2
Back
SplineSet
222.1484375 688 m 1
 135.991210938 480 l 1025
EndSplineSet
Fore
SplineSet
161.858521687 697.260916918 m 2
 175.442504159 729.368511854 206.198504751 760 242 760 c 0
 248.290473693 760 254.620573568 758.878184681 260.515750329 756.477168981 c 0
 281.49986619 747.930658217 289.523690321 729.100562333 289.523690321 709.637552421 c 0
 289.523690321 698.985143451 287.12011876 688.14314232 283.122313345 678.693784067 c 2
 196.122313345 470.693784067 l 2
 182.574347807 438.671320066 151.795242732 408 116 408 c 0
 109.629973425 408 103.189898332 409.151764334 97.1980423895 411.6723409 c 0
 76.676005385 420.305286363 69.221493848 438.588618699 69.221493848 457.368869434 c 0
 69.221493848 468.453861237 71.8185848725 479.711975358 75.8585216868 489.260916918 c 2
 161.858521687 697.260916918 l 2
206.141478313 678.739083082 m 2
 120.141478313 470.739083082 l 2
 117.20791441 463.805204766 116.845583772 458.800108264 117.172104575 456.088568863 c 1
 125.051535555 457.200915351 144.072647706 470.857942055 151.896785974 489.35135978 c 2
 238.858771898 697.260994446 l 2
 241.974139549 704.624590711 241.957501215 709.609826517 241.467895197 711.98189282 c 0
 234.242239184 711.289220685 214.152420148 697.67403651 206.141478313 678.739083082 c 2
EndSplineSet
EndChar

StartChar: parenleft
Encoding: 40 40 8
Width: 275
Flags: HW
LayerCount: 2
Back
SplineSet
351.28515625 768 m 0
 351.28515625 768 185.697265625 600 89.599609375 368 c 0
 -6.498046875 136 19.9140625 -32 19.9140625 -32 c 1024
EndSplineSet
Fore
SplineSet
371 840 m 0
 377.290473693 840 383.620573568 838.878184681 389.515750329 836.477168981 c 0
 410.52417006 827.92075962 418.518851238 809.002206934 418.518851238 789.559202514 c 0
 418.518851238 778.952020166 416.139412822 768.188746466 412.195488196 758.866742805 c 0
 406.882795383 745.585010771 397.948863271 733.007748574 387.984095652 723.042980955 c 2
 387.984095652 723.042980955 345.989094421 681.30191995 286.448408594 598.937304555 c 0
 240.271779907 535.076009562 189.227532475 452.546077939 150.153846154 358.769230769 c 0
 111.135824547 265.125978912 94.6565740088 183.522522226 87.860137663 120.412756157 c 0
 84.7147012242 91.404842333 83.7223267423 67.4417063864 83.7223267423 48.7496953967 c 0
 83.7223267423 17.1608081685 86.5565377974 0.626198228472 86.6228684188 0.238336267285 c 0
 86.7136095865 -0.274593645053 86.7751852236 -0.707295829749 86.8146690411 -1.02316636986 c 0
 87.1496100315 -3.70269429264 87.3067021519 -6.33745572251 87.3067021519 -8.93523478907 c 0
 87.3067021519 -20.1482705256 84.3798796278 -30.6722786162 80.1954881961 -41.1332571955 c 0
 66.5100043597 -73.480764445 35.8191158238 -104 0 -104 c 0
 -24.9879243324 -104 -43.0866295151 -85.4665236366 -46.673454172 -63.9455756953 c 0
 -46.7879373071 -63.2586768844 -46.8785626143 -62.4566046871 -46.9301296322 -61.8363542165 c 0
 -47.5273098535 -56.7112809236 -50.6859346768 -32.5950546144 -50.6859346768 5.95364739741 c 0
 -50.6859346768 29.477904424 -49.5096556402 58.3768480832 -45.8571681569 91.6144841816 c 0
 -37.6529091929 166.478347228 -18.132758581 263.868726605 28.8284659887 377.188203284 c 0
 75.8653245097 490.690187976 137.807966499 587.019801366 190.511748126 661.007802496 c 0
 257.658347522 753.588719846 311.834402872 809.775528369 315.029437252 812.970562748 c 0
 329.419097126 827.360222623 348.251342791 840 371 840 c 0
370.467469423 791.983955629 m 0
 366.960063195 791.709499228 358.951981672 788.801475924 349.144478355 779.206053682 c 0
 346.775453239 776.792713334 293.770425993 721.623680001 229.488251874 632.992197504 c 0
 178.192033501 560.980198633 118.13467549 467.309812024 73.1715340113 358.811796716 c 0
 28.132758581 250.131273395 9.65290919288 157.521652772 1.85716815685 86.3855158184 c 0
 -1.63388901051 54.6168955954 -2.75416440676 27.4549307203 -2.75416440676 5.57531353679 c 0
 -2.75416440676 -29.1132657671 0.0617431061539 -50.5242147663 0.710151878837 -55.964824716 c 1
 8.03679591472 -55.2624715792 27.1534097499 -42.605810999 35.8119340535 -22.8534038285 c 0
 38.3612074635 -16.2521439483 39.3954395362 -9.77135024805 39.2199729984 -7.3169370276 c 0
 38.5135175271 -2.96521823915 35.7312715536 16.1039942366 35.7312715536 48.8299333935 c 0
 35.7312715536 69.2065415696 36.809907959 94.877664579 40.139862337 125.587243843 c 0
 47.3434259912 192.477477774 64.8641754532 278.874021088 105.846153846 377.230769231 c 0
 146.772467525 475.453922061 199.728220093 560.923990438 247.551591406 627.062695445 c 0
 308.444352114 711.297681091 353.310460946 756.250449206 354.015904348 756.957019045 c 0
 360.051136729 762.992251426 365.117204617 770.414989229 367.804511804 777.133257195 c 0
 371.032087494 784.762072463 370.968801683 789.555077477 370.467469423 791.983955629 c 0
EndSplineSet
EndChar

StartChar: parenright
Encoding: 41 41 9
Width: 275
Flags: HW
LayerCount: 2
Back
SplineSet
229.685546875 768 m 0
 229.685546875 768 256.09765625 600 160 368 c 0
 63.90234375 136 -101.685546875 -32 -101.685546875 -32 c 1024
EndSplineSet
Fore
SplineSet
213.190034763 758.857635143 m 0
 211.116403676 753.39380243 210.373743453 747.875905947 210.759866343 743.439002917 c 0
 211.409464228 739.490355512 214.266834237 720.346373481 214.266834237 687.164954811 c 0
 214.266834237 666.786280091 213.189058368 641.112802656 209.860137663 610.412756157 c 0
 202.656574009 543.522522226 185.135824547 457.125978912 144.153846154 358.769230769 c 0
 103.227532475 260.546077939 50.2717799065 175.076009562 2.44840859375 108.937304555 c 0
 -58.4443521144 24.702318909 -103.310460946 -20.250449206 -104.015904348 -20.9570190452 c 0
 -110.051136729 -26.9922514258 -115.117204617 -34.4149892291 -117.804511804 -41.1332571955 c 0
 -120.854688235 -48.3427651229 -121.163577224 -53.1238157185 -120.826144709 -55.9259696796 c 1
 -116.845102476 -55.4325857377 -108.000152831 -51.8443491687 -99.1407495726 -43.2022551488 c 0
 -96.7799769127 -40.7973216281 -43.7686386857 14.3787843167 20.511748126 103.007802496 c 0
 71.7268281289 174.905895577 130.820063397 268.580970943 175.828465989 377.188203284 c 0
 220.91410657 485.981814251 240.369426936 578.682164408 248.142831843 649.614484182 c 0
 251.400295461 679.2574031 252.484210931 704.864389308 252.484210931 725.900853339 c 0
 252.484210931 763.479861173 249.025290673 786.473717137 248.318969206 791.834960623 c 1
 239.583771404 790.249278345 221.111681707 776.899474541 213.190034763 758.857635143 c 0
168.804511804 777.133257195 m 0
 182.694960117 809.965225936 214.482979115 840 250 840 c 0
 275.892346359 840 292.338286613 819.95658105 295.673454172 799.945575695 c 0
 295.769737366 799.367876534 295.871980163 798.495099753 295.907532733 798.10621442 c 0
 296.685813513 792.19877289 300.417450417 766.372893181 300.417450417 725.428281027 c 0
 300.417450417 702.772066187 299.274886342 675.486751304 295.857168157 644.385515818 c 0
 287.630573064 569.317835592 267.08589343 472.018185749 220.171534011 358.811796716 c 0
 173.179936603 245.419029057 112.273171871 149.094104423 59.488251874 74.9921975036 c 0
 -7.65834752223 -17.5887198458 -61.8344028719 -73.7755283689 -65.0294372515 -76.9705627485 c 0
 -79.9133402901 -91.8544657871 -99.5404444569 -104 -122 -104 c 0
 -128.370026575 -104 -134.810101668 -102.848235666 -140.801957611 -100.3276591 c 0
 -161.339952868 -91.6880005258 -168.773320634 -73.3433603887 -168.773320634 -54.5751608017 c 0
 -168.773320634 -43.5204115842 -166.194398775 -32.318713264 -162.195488196 -22.8667428045 c 0
 -156.882795383 -9.5850107709 -147.948863271 2.99225142577 -137.984095652 12.9570190452 c 2
 -137.984095652 12.9570190452 -95.9890944209 54.6980800505 -36.4484085937 137.062695445 c 0
 9.72822009349 200.923990438 60.7724675254 283.453922061 99.8461538462 377.230769231 c 0
 138.864175453 470.874021088 155.343425991 552.477477774 162.139862337 615.587243843 c 0
 165.285298776 644.595157667 166.277673258 668.558293614 166.277673258 687.250304603 c 0
 166.277673258 718.839191831 163.443462203 735.373801772 163.377131581 735.761663733 c 0
 163.286390414 736.274593645 163.224814776 736.70729583 163.185330959 737.02316637 c 0
 162.819971296 739.946043674 162.631621957 742.961064271 162.631621957 746.046193357 c 0
 162.631621957 755.930458914 164.56495302 766.534360236 168.804511804 777.133257195 c 0
EndSplineSet
EndChar

StartChar: asterisk
Encoding: 42 42 10
Width: 409
Flags: HW
LayerCount: 2
Back
SplineSet
393.584960938 684.708007812 m 1
 175.073242188 435.291992188 l 1025
278.384765625 684.708007812 m 1
 290.2734375 435.291992188 l 1025
169.12890625 560 m 1
 399.529296875 560 l 1025
EndSplineSet
Fore
SplineSet
413 757 m 0
 419.290473693 757 425.620573568 755.878184681 431.515750329 753.477168981 c 0
 452.466042419 744.944434123 460.530619191 726.237987432 460.530619191 706.747285615 c 0
 460.530619191 696.031776657 458.093076485 685.079224216 454.019125863 675.449886382 c 0
 448.935000219 664.010603681 442.959530717 654.407941341 435.173877642 645.324679419 c 2
 423.461643531 631.830148814 l 1
 430.73154599 631.016922717 432.772424836 630.409053205 437.515750329 628.477168981 c 0
 458.493566403 619.933224023 466.524963602 601.12611001 466.524963602 581.657929181 c 0
 466.524963602 570.993781562 464.115098913 560.131277226 460.103214026 550.64864022 c 0
 446.591142047 518.711015544 415.789011632 488 380 488 c 2
 355.92274223 488 l 1
 357 459.452669096 l 2
 357 451.641620394 357.127400468 439.193504242 351.019125863 425.449886382 c 0
 337.459868943 393.400733662 305.459678161 363 270 363 c 0
 260.904054666 363 251.710313243 365.473790652 244.048307011 370.570920929 c 0
 231.600780627 378.851606389 225.649303341 392.683411544 223.689985808 403.797042893 c 1
 215.774105585 394.87062477 l 2
 200.210207133 378.109503359 180.01524745 363 155 363 c 0
 148.629973425 363 142.189898332 364.151764334 136.198042389 366.6723409 c 0
 115.711680664 375.290278947 108.209648523 393.435865831 108.209648523 412.242926329 c 0
 108.209648523 423.39568505 110.847811922 434.781057475 114.980874137 444.550113618 c 0
 120.064999781 455.989396319 126.040469283 465.592058659 133.826122358 474.675320581 c 2
 145.484926182 488.108290203 l 1
 138.625451897 488.68751385 135.236280329 489.552920039 130.198042389 491.6723409 c 0
 109.687232802 500.300563358 102.217803906 518.540648924 102.217803906 537.329356527 c 0
 102.217803906 548.435651735 104.827752826 559.733645065 108.896785974 569.35135978 c 0
 122.408857953 601.288984456 153.210988368 632 189 632 c 2
 212.603092335 632 l 1
 211.038355702 659.643680511 l 2
 211.013992888 660.074090225 211 660.680513753 211 661 c 0
 211 670.209595158 212.60159525 682.446736123 217.980874137 694.550113618 c 0
 231.334918312 726.114218032 262.238421898 757 298 757 c 0
 308.086223461 757 318.098117058 753.980126759 326.1957027 748.087897464 c 0
 337.063781971 740.17971126 343.354014653 726.608233747 345.149166865 716.982306642 c 1
 351.826122358 724.675320581 l 2
 366.771600447 742.111711684 388.408179725 757 413 757 c 0
412.46865298 708.978221475 m 0
 408.794458092 708.687284452 396.792010436 703.37916768 388.173877642 693.324679419 c 2
 342.125249517 640.268651363 l 2
 338.527772029 636.123731648 332.752548947 632.859040031 326.783857329 632.162002216 c 0
 325.873145215 632.055647117 324.96755003 632.003836139 324.070261825 632.003836139 c 0
 311.46705834 632.003836139 300.502712218 642.225457137 300.017069703 655.094983762 c 2
 298.036444721 707.5815458 l 2
 298.025201862 707.694844006 297.939385081 708.385202845 297.787155822 708.9974918 c 0
 291.288448415 708.679880579 270.549268335 695.612041315 262.019125863 675.449886382 c 0
 259.487195498 669.753043059 259.138511314 667.093526143 259.001447195 661.653134969 c 2
 261.961644298 609.356319489 l 2
 262.685848762 596.562040613 252.02561961 584 238 584 c 2
 189 584 l 2
 182.789011632 584 161.591142047 570.711015544 153.103214026 550.64864022 c 0
 150.235379835 543.870123041 149.838821571 538.85626387 150.182769947 536 c 2
 198 536 l 2
 202.880387033 536 208.139990232 534.347918995 212.260802378 531.303614053 c 0
 218.586346527 526.630533936 221.894430991 519.285574734 221.894430991 511.903532054 c 0
 221.894430991 506.336275949 220.012923782 500.747928233 216.125249517 496.268651363 c 2
 170.173877642 443.324679419 l 2
 165.80449056 438.227061157 162.632304284 433.378073873 159.013308711 425.441680073 c 0
 156.426385818 419.066868239 155.856121341 413.712600722 156.171210897 411.095990269 c 1
 160.15639088 411.712749189 170.040907406 416.374833319 180.194347383 427.093800918 c 2
 227.043496156 479.923692088 l 2
 230.144896361 483.421015723 236.248065797 487.14103176 242.216142671 487.837997784 c 0
 243.126854785 487.944352883 244.03244997 487.996163861 244.929738175 487.996163861 c 0
 257.53294166 487.996163861 268.497287782 477.774542863 268.982930297 464.905016238 c 2
 270.964497153 412.393494543 l 1
 270.964497153 412.393494543 271.028285403 411.749126656 271.145720342 411.083012766 c 0
 279.590482802 412.254771749 299.175126233 426.100164028 306.980874137 444.550113618 c 0
 308.970823941 449.027500678 308.992805836 451.088647933 309.000115275 458.544276107 c 2
 307.017069703 511.094983762 l 2
 306.565437968 523.063224744 316.793005035 536 331 536 c 2
 380 536 l 2
 386.210988368 536 407.408857953 549.288984456 415.896785974 569.35135978 c 0
 418.935970764 576.534887465 418.953901263 581.627267731 418.464157787 584 c 2
 371 584 l 2
 366.119612967 584 360.860009768 585.652081005 356.739197622 588.696385947 c 0
 350.413653473 593.369466064 347.105569009 600.714425266 347.105569009 608.096467946 c 0
 347.105569009 613.663724051 348.987076218 619.252071767 352.874750483 623.731348637 c 2
 398.826122358 676.675320581 l 2
 403.194337175 681.7715712 406.369308412 686.62546274 409.985396137 694.555479682 c 0
 412.754261395 701.391381558 412.946692245 706.662194324 412.46865298 708.978221475 c 0
EndSplineSet
EndChar

StartChar: plus
Encoding: 43 43 11
Width: 512
Flags: HW
LayerCount: 2
Back
SplineSet
428.799804688 368 m 1
 83.2001953125 368 l 1025
345.469726562 584 m 1
 166.530273438 152 l 1025
EndSplineSet
Fore
SplineSet
449 440 m 2
 455.370026575 440 461.810101668 438.848235666 467.801957611 436.3276591 c 0
 488.312767198 427.699436642 495.782196094 409.459351076 495.782196094 390.670643473 c 0
 495.782196094 379.564348265 493.172247174 368.266354935 489.103214026 358.64864022 c 0
 475.591142047 326.711015544 444.789011632 296 409 296 c 2
 291 296 l 1
 227.128694381 142.708866514 l 2
 213.568736892 110.658057905 182.797324527 80 147 80 c 0
 140.709526307 80 134.379426432 81.1218153186 128.484249671 83.5228310192 c 0
 107.498025056 92.0702006471 99.4767341398 110.907984453 99.4767341398 130.369262131 c 0
 99.4767341398 141.017743197 101.878202643 151.852890089 105.871305619 161.291133486 c 2
 162 296 l 1
 63 296 l 2
 56.6299734255 296 50.1898983322 297.151764334 44.1980423895 299.6723409 c 0
 23.6872328019 308.300563358 16.2178039057 326.540648924 16.2178039057 345.329356527 c 0
 16.2178039057 356.435651735 18.8277528256 367.733645065 22.8967859744 377.35135978 c 0
 36.4088579527 409.288984456 67.2109883683 440 103 440 c 2
 221 440 l 1
 284.871305619 593.291133486 l 2
 298.431263108 625.341942095 329.202675473 656 365 656 c 0
 371.290473693 656 377.620573568 654.878184681 383.515750329 652.477168981 c 0
 404.501974944 643.929799353 412.52326586 625.092015547 412.52326586 605.630737869 c 0
 412.52326586 594.982256803 410.121797357 584.147109911 406.128694381 574.708866514 c 2
 350 440 l 1
 449 440 l 2
447.817230053 392 m 2
 314 392 l 2
 311.7615098 392 308.924718769 392.408486378 306.53581089 393.190224005 c 0
 296.448458739 396.491172865 290.047039506 406.140387202 290.047039506 416.21494711 c 0
 290.047039506 419.235187715 290.62235648 422.293655551 291.846153846 425.230769231 c 2
 361.871305619 593.291133486 l 2
 364.96041641 600.592668081 364.955000113 605.621943973 364.467895197 607.98189282 c 0
 357.237034346 607.288721734 337.163811697 593.700961989 329.128694381 574.708866514 c 2
 259.153846154 406.769230769 l 2
 255.789117049 398.693880918 246.897080065 392 237 392 c 2
 103 392 l 2
 96.7890116317 392 75.5911420473 378.711015544 67.1032140256 358.64864022 c 0
 64.2353798346 351.870123041 63.8388215712 346.85626387 64.1827699468 344 c 2
 198 344 l 2
 200.2384902 344 203.075281231 343.591513622 205.46418911 342.809775995 c 0
 215.551541261 339.508827135 221.952960494 329.859612798 221.952960494 319.78505289 c 0
 221.952960494 316.764812285 221.37764352 313.706344449 220.153846154 310.769230769 c 2
 150.128694381 142.708866514 l 2
 147.03958359 135.407331919 147.044999887 130.378056027 147.532104803 128.01810718 c 0
 154.762965654 128.711278266 174.836188303 142.299038011 182.871305619 161.291133486 c 2
 252.846153846 329.230769231 l 2
 256.210882951 337.306119082 265.102919935 344 275 344 c 2
 409 344 l 2
 415.210988368 344 436.408857953 357.288984456 444.896785974 377.35135978 c 0
 447.764620165 384.129876959 448.161178429 389.14373613 447.817230053 392 c 2
EndSplineSet
EndChar

StartChar: comma
Encoding: 44 44 12
Width: 236
Flags: HW
LayerCount: 2
Back
SplineSet
8.93359375 96 m 0
 15.333984375 96 18.4208984375 88.0009765625 15.1064453125 79.9990234375 c 0
 8.4794921875 64 -10.94921875 48 -23.7490234375 48 c 0
 -30.1484375 48 -33.234375 56 -29.9208984375 64 c 0
 -23.2939453125 80 -3.8662109375 96 8.93359375 96 c 0
 15.333984375 96 24.8203125 88 14.87890625 64 c 0
 -1.689453125 24 -62.02734375 -56 -62.02734375 -56 c 1024
EndSplineSet
Fore
SplineSet
75.3049046487 55.1364883561 m 0
 69.5718263391 40.2304847511 61.7336895481 26.9122312615 54.6560489064 14.7791330185 c 0
 44.9858713633 -1.33782955323 35.2945522051 -15.8128751754 26.0320678971 -30.221184099 c 0
 4.58866833978 -61.8757263026 -11.8361025917 -85.790763344 -15.2276266089 -89.9648380923 c 0
 -32.1929734717 -111.601538277 -54.9919994869 -128 -82 -128 c 0
 -88.3700265745 -128 -94.8101016678 -126.848235666 -100.801957611 -124.3276591 c 0
 -121.306414891 -115.702108849 -128.784299172 -97.4865335424 -128.784299172 -78.6930491136 c 0
 -128.784299172 -67.5746911453 -126.167047847 -56.2540656158 -122.081466795 -46.5972376746 c 0
 -118.716722911 -38.7461686116 -115.029010282 -31.2769001175 -109.969207064 -23.6871952906 c 0
 -109.662822517 -23.2276184706 -109.205944913 -22.6020779207 -108.954158307 -22.2779117349 c 2
 -108.954158307 -22.2779117349 -100.109101252 -10.8071385081 -90.4531395239 2.55163905219 c 1
 -94.250687471 9.90225761074 -94.7611291071 11.8026332033 -96.0331996005 16.2548799304 c 0
 -97.7893121958 22.1085885813 -98.6204262474 28.1729473261 -98.6204262474 34.4672686192 c 0
 -98.6204262474 46.4002777138 -95.6332368931 59.1598179863 -90.2985886787 72.8774848233 c 0
 -77.0517525055 105.392446339 -54.9276624138 128.379270449 -34.1224368934 143.405266659 c 0
 -17.6900014817 155.455719294 3.58124869822 168 29 168 c 0
 40.7152233936 168 50.2355497788 164.215040841 55.733126292 161.466252584 c 0
 56.1976505984 161.233990431 56.8360902066 160.881946358 57.1684830375 160.686421164 c 0
 77.0715992582 148.97870574 85.9867821667 128.442163276 85.9867821667 104.507112104 c 0
 85.9867821667 88.9857730734 82.2377436034 72.0352833081 75.3049046487 55.1364883561 c 0
30.6950953513 72.8635116439 m 0
 36.2290752985 86.3525877651 37.963131958 96.3031425021 37.963131958 103.442731336 c 0
 37.963131958 113.824454632 34.2965974292 118.262598468 33.315243667 118.99410555 c 0
 31.6624276566 119.717304053 31.014069873 120 29 120 c 0
 20.4187513018 120 7.69000148172 114.544280706 -5.87756310663 104.594733341 c 0
 -21.0723375862 93.6207295506 -36.9482474945 76.6075536606 -45.7014113213 55.1225151767 c 0
 -51.5528886197 40.0758592666 -50.8813840406 32.7937322065 -49.9668003995 29.7451200696 c 0
 -49.2442288687 27.2161197117 -48.1551073837 25.2216480198 -47.7740381859 24.7310062092 c 0
 -40.5413445368 19.6995465368 -36.0586109773 11.7332244669 -36.0586109773 3.50301591566 c 0
 -36.0586109773 -0.964484274083 -37.3794515633 -5.50973880056 -40.2982751571 -9.70554771677 c 0
 -54.7713026207 -30.5105246957 -67.343330113 -46.9235371696 -70.4879922105 -51.0011788352 c 0
 -73.1008786966 -55.1129063816 -75.4226402884 -59.5790121864 -77.9185332051 -65.4027623254 c 0
 -80.728082086 -72.0435142258 -81.1485972657 -77.2482143725 -80.8259237539 -79.9278045632 c 0
 -75.5564086073 -79.3022305217 -62.301491838 -72.5002255253 -53.0645879915 -60.4211974183 c 0
 -53.0536378675 -60.4068780255 -52.8797702567 -60.1787615648 -52.5817252689 -59.8099441252 c 0
 -50.1683189953 -56.5240858184 -32.6223999732 -31.2216870609 -14.0320678971 -3.77881590099 c 0
 -5.29455220514 9.81287517537 5.01412863668 25.3378295532 13.3439510936 39.2208669815 c 0
 20.2663104519 51.0877687385 26.4281736609 61.7695152489 30.6950953513 72.8635116439 c 0
EndSplineSet
EndChar

StartChar: hyphen
Encoding: 45 45 13
Width: 332
Flags: HW
LayerCount: 2
Back
SplineSet
20.921875 264 m 1
 225.721679688 264 l 1025
EndSplineSet
Fore
SplineSet
1 192 m 2
 -5.37002657451 192 -11.8101016678 193.151764334 -17.8019576105 195.6723409 c 0
 -38.3127671981 204.300563358 -45.7821960943 222.540648924 -45.7821960943 241.329356527 c 0
 -45.7821960943 252.435651735 -43.1722471744 263.733645065 -39.1032140256 273.35135978 c 0
 -25.5911420473 305.288984456 5.21098836826 336 41 336 c 2
 246 336 l 2
 252.370026575 336 258.810101668 334.848235666 264.801957611 332.3276591 c 0
 285.312767198 323.699436642 292.782196094 305.459351076 292.782196094 286.670643473 c 0
 292.782196094 275.564348265 290.172247174 264.266354935 286.103214026 254.64864022 c 0
 272.591142047 222.711015544 241.789011632 192 206 192 c 2
 1 192 l 2
2.18276994676 240 m 2
 206 240 l 2
 212.210988368 240 233.408857953 253.288984456 241.896785974 273.35135978 c 0
 244.764620165 280.129876959 245.161178429 285.14373613 244.817230053 288 c 2
 41 288 l 2
 34.7890116317 288 13.5911420473 274.711015544 5.10321402565 254.64864022 c 0
 2.23537983456 247.870123041 1.83882157121 242.85626387 2.18276994676 240 c 2
EndSplineSet
EndChar

StartChar: period
Encoding: 46 46 14
Width: 230
Flags: HW
LayerCount: 2
Back
SplineSet
10.7666015625 72 m 0
 2.12890625 59.068359375 -13.1025390625 48 -23.7490234375 48 c 0
 -30.1484375 48 -33.234375 56 -29.9208984375 64 c 0
 -28.8056640625 66.6923828125 -27.328125 69.3837890625 -25.5810546875 72 c 1024
-25.5810546875 72 m 0
 -16.943359375 84.931640625 -1.7119140625 96 8.93359375 96 c 0
 15.333984375 96 18.4208984375 88 15.1064453125 80 c 0
 13.9912109375 77.3076171875 12.5146484375 74.6162109375 10.7666015625 72 c 1024
EndSplineSet
Fore
SplineSet
-77.0572810932 98.6323068994 m 2
 -60.0124404574 125.178313702 -45.4344381465 138.030419555 -25.6493088867 150.396125342 c 0
 -10.2378792336 159.880082052 8.22881073142 168 29 168 c 0
 59.9273678959 168 76.3551559647 145.130324431 81.1806553028 127.2471569 c 0
 82.9901835627 120.827354653 83.9419561541 114.278708401 83.9419561541 107.398146102 c 0
 83.9419561541 96.3703985335 81.4970681835 84.4900339034 76.2202176309 70.9209896252 c 0
 72.0984505055 61.3035329993 67.7910568567 53.9199699795 62.9692070641 46.6871952906 c 0
 62.5277551838 46.0250174702 62.0572810932 45.3676931006 62.0572810932 45.3676931006 c 2
 45.0124404574 18.8216862977 30.4344381465 5.96958044538 10.6493088867 -6.39612534198 c 0
 -4.76212076645 -15.8800820516 -23.2288107314 -24 -44 -24 c 0
 -68.5811451689 -24 -84.6326760188 -8.40027942232 -91.466252584 5.266873708 c 0
 -95.7503586099 13.8350857597 -98.2116563172 23.9873981206 -98.2116563172 35.4063055001 c 0
 -98.2116563172 46.8603675736 -95.7351803872 59.5888354482 -90.13782393 73.2712623435 c 0
 -86.9637367056 80.6774658671 -83.7324998921 88.6678654674 -77.9692070641 97.3128047094 c 0
 -77.5277551838 97.9749825298 -77.0572810932 98.6323068994 -77.0572810932 98.6323068994 c 2
-37.0987564595 72.1471104457 m 2
 -41.4263524002 65.4099602938 -42.6038162524 62.3315772308 -45.86217607 54.7287376565 c 0
 -52.6846425067 38.0515974778 -49.9523461482 29.5703237564 -48.533747416 26.733126292 c 0
 -47.3673239812 24.4002794223 -47.4188548311 24 -44 24 c 0
 -36.7711892686 24 -25.2378792336 27.8800820516 -14.6493088867 34.396125342 c 0
 -1.6232106108 42.5374367644 10.7260869751 54.0107144857 20.7082663273 69.8158317933 c 0
 20.8779406815 70.0844828542 20.6984530884 69.8458840252 21.7064659629 71.2906333947 c 0
 28.0194798053 80.905337164 28.5704387195 81.808620633 31.791570604 89.106261899 c 0
 36.9314696031 102.785179819 36.2463402541 109.989747082 35.0121691547 114.103650746 c 0
 34.9368471735 114.354724017 34.8024854828 114.835523054 34.7165799965 115.179144999 c 0
 33.397351396 120.456059401 34.2922657369 120 29 120 c 0
 21.7711892686 120 10.2378792336 116.119917948 -0.350691113299 109.603874658 c 0
 -13.3767893892 101.462563236 -25.7260869751 89.9892855143 -35.7082663273 74.1841682067 c 0
 -36.0618410398 73.6243415785 -37.0987564595 72.1471104457 -37.0987564595 72.1471104457 c 2
EndSplineSet
EndChar

StartChar: slash
Encoding: 47 47 15
Width: 460
Flags: HW
LayerCount: 2
Back
SplineSet
-42.94921875 48 m 1
 503.749023438 688 l 1025
EndSplineSet
Fore
SplineSet
-63 -24 m 0
 -68.8803583361 -24 -74.8173326974 -23.0229524103 -80.4143819021 -20.884386436 c 0
 -102.054920479 -12.6157938663 -109.628679687 6.11798653544 -109.628679687 25.2589796946 c 0
 -109.628679687 36.3366026769 -107.091941084 47.5506166235 -103.277079413 56.9513704684 c 0
 -98.4213639453 69.2938625744 -92.7838956786 77.7969662042 -85.2332257613 86.6060811076 c 2
 461.809378269 726.655928602 l 2
 477.34230624 744.578537799 498.386082513 760 524 760 c 0
 529.880358336 760 535.817332697 759.02295241 541.414381902 756.884386436 c 0
 563.054920479 748.615793866 570.628679687 729.882013465 570.628679687 710.741020305 c 0
 570.628679687 699.663397323 568.091941084 688.449383376 564.277079413 679.048629532 c 0
 559.421363945 666.706137426 553.783895679 658.203033796 546.233225761 649.393918892 c 2
 -0.809378269239 9.34407139775 l 2
 -16.3423062399 -8.57853779918 -37.386082513 -24 -63 -24 c 0
-61.8249148369 24.0638170479 m 0
 -57.172535751 24.6193014227 -46.7667672112 29.606529971 -37.1906217308 40.6559286023 c 2
 509.755725243 680.593153581 l 2
 514.403001108 686.014975423 517.529914023 691.098467358 519.702857798 696.89298409 c 0
 522.969585778 704.614341135 523.178520641 708.999720521 522.824914837 711.936182952 c 0
 518.172535751 711.380698577 507.766767211 706.393470029 498.190621731 695.344071398 c 2
 -48.7557252433 55.4068464189 l 2
 -53.4030011075 49.9850245773 -56.5299140232 44.9015326423 -58.7028577979 39.1070159097 c 0
 -61.9695857784 31.385658865 -62.1785206412 27.0002794785 -61.8249148369 24.0638170479 c 0
EndSplineSet
EndChar

StartChar: zero
Encoding: 48 48 16
Width: 537
Flags: HW
LayerCount: 2
Back
SplineSet
467.200195312 368 m 0
 392.166015625 186.850585938 242.510742188 40 132.9375 40 c 0
 23.3642578125 40 -4.6337890625 186.850585938 70.400390625 368 c 0
 145.434570312 549.149414062 295.088867188 696 404.662109375 696 c 0
 514.235351562 696 542.234375 549.149414062 467.200195312 368 c 0
EndSplineSet
Fore
SplineSet
528.178434969 358.828466742 m 0
 471.502009924 221.774566176 375.396150363 98.552958111 272.681957157 27.2818852738 c 0
 221.291623987 -8.3767132526 166.228330525 -32 113 -32 c 0
 59.0640251848 -32 16.612205634 -6.13878901355 -8.41915193662 34.3881708627 c 0
 -29.4951761143 68.5112576265 -39.4460181412 111.685939339 -39.4460181412 160.648162827 c 0
 -39.4460181412 225.246952769 -22.1244848151 299.920176359 9.8215650305 377.171533258 c 0
 66.4582619944 514.129364098 161.53449013 637.398914885 264.318042843 708.718114726 c 0
 315.842718162 744.469930253 371.82389142 768 425 768 c 0
 479.069561971 768 520.551723531 741.873379889 545.419151937 701.611829137 c 0
 566.698749034 667.159148122 576.831880563 623.424827517 576.831880563 573.782325412 c 0
 576.831880563 509.580547085 559.883411709 435.49686504 528.178434969 358.828466742 c 0
483.821565031 377.171533258 m 0
 514.214020839 450.666017303 528.126874141 518.452500119 528.126874141 573.796473095 c 0
 528.126874141 616.384482553 519.888334715 651.604621046 504.580848063 676.388170863 c 0
 487.448276469 704.126620111 462.930438029 720 425 720 c 0
 386.17610858 720 338.157281838 701.530069747 291.681957157 669.281885274 c 0
 198.46550987 604.601085115 107.541738006 487.870635902 54.1784349695 358.828466742 c 0
 23.4684450231 284.566127417 9.28737091106 216.170539773 9.28737091106 160.55882098 c 0
 9.28737091106 118.672256149 17.3323696472 84.0380480821 32.4191519366 59.6118291373 c 0
 49.387794366 32.1387890135 74.9359748152 16 113 16 c 0
 151.771669475 16 198.708376013 34.3767132526 245.318042843 66.7181147262 c 0
 338.603849637 131.447041889 430.497990076 248.225433824 483.821565031 377.171533258 c 0
406.846153846 377.230769231 m 0
 431.608423394 436.660216146 441.443737777 489.249192345 441.443737777 530.016571886 c 0
 441.443737777 561.154494126 435.70598393 585.395899482 426.499234665 600.521273275 c 0
 416.481887929 616.978342913 403.963758364 624 385 624 c 0
 365.106185145 624 338.346816743 614.654299629 307.723023881 593.310443998 c 0
 246.572767914 550.690568627 174.45996467 462.703915208 131.153846154 358.769230769 c 0
 106.391576606 299.339783854 96.556262223 246.750807655 96.556262223 205.983428114 c 0
 96.556262223 174.845505874 102.29401607 150.604100518 111.500765335 135.478726725 c 0
 121.518112071 119.021657087 134.036241636 112 153 112 c 0
 172.893814855 112 199.653183257 121.345700371 230.276976119 142.689556002 c 0
 291.427232086 185.309431373 363.54003533 273.296084792 406.846153846 377.230769231 c 0
451.153846154 358.769230769 m 0
 404.45996467 246.703915208 328.572767914 152.690568627 257.723023881 103.310443998 c 0
 222.346816743 78.6542996288 187.106185145 64 153 64 c 0
 117.963758364 64 88.481887929 80.9783429127 70.4992346653 110.521273275 c 0
 55.3948392989 135.335637091 47.757916235 167.974081224 47.757916235 206.080233553 c 0
 47.757916235 255.61618479 60.6632497123 314.39179931 86.8461538462 377.230769231 c 0
 133.54003533 489.296084792 209.427232086 583.309431373 280.276976119 632.689556002 c 0
 315.653183257 657.345700371 350.893814855 672 385 672 c 0
 420.036241636 672 449.518112071 655.021657087 467.500765335 625.478726725 c 0
 482.605160701 600.664362909 490.242083765 568.025918776 490.242083765 529.919766447 c 0
 490.242083765 480.38381521 477.336750288 421.60820069 451.153846154 358.769230769 c 0
EndSplineSet
Substitution2: "(ss01) Slashed Zero subtable" zero.ss01
Substitution2: "(ss02) Dotted Zero subtable" zero.ss02
EndChar

StartChar: one
Encoding: 49 49 17
Width: 281
Flags: HW
LayerCount: 2
Back
SplineSet
273.348632812 688 m 1
 8.2509765625 48 l 1025
EndSplineSet
Fore
SplineSet
212.860920893 697.266587769 m 2
 226.440394511 729.363525413 257.199287485 760 293 760 c 0
 299.290473693 760 305.620573568 758.878184681 311.515750329 756.477168981 c 0
 332.505411117 747.928399852 340.522576087 729.078093985 340.522576087 709.6196404 c 0
 340.522576087 698.977558242 338.12453075 688.15357066 334.139079107 678.733412231 c 2
 69.1390791071 38.7334122305 l 2
 55.3545616038 6.15182540466 23.4986799458 -24 -12 -24 c 0
 -18.3700265745 -24 -24.8101016678 -22.8482356662 -30.8019576105 -20.3276590997 c 0
 -51.3232887425 -11.6950105748 -58.7787371224 6.585605594 -58.7787371224 25.3663885447 c 0
 -58.7787371224 36.4527190629 -56.1808395465 47.7133358218 -52.1390791071 57.2665877695 c 2
 212.860920893 697.266587769 l 2
257.139079107 678.733412231 m 2
 -7.86092089294 38.7334122305 l 2
 -10.7897333487 31.8107646079 -11.1543456994 26.799522569 -10.8276709656 24.0867048743 c 1
 -2.48795681859 25.2438878043 17.2862101043 39.3627259054 24.8609208929 57.2665877695 c 2
 289.860920893 697.266587769 l 2
 292.971510281 704.618889959 292.957075186 709.611890561 292.467895197 711.98189282 c 0
 285.241262374 711.289127045 265.154558041 697.67908971 257.139079107 678.733412231 c 2
EndSplineSet
Substitution2: "(ss03) Serifed One subtable" one.ss03
Substitution2: "Tabular Figures subtable" one.tnum
EndChar

StartChar: two
Encoding: 50 50 18
Width: 537
Flags: HW
LayerCount: 2
Back
SplineSet
171.98828125 536 m 0
 216.23828125 642.828125 307.256835938 696 393.461914062 696 c 0
 483.0625 696 518.838867188 624 479.07421875 528 c 0
 453.489257812 466.232421875 419.061523438 435.219726562 325.798828125 382 c 0
 133.03515625 272 52.466796875 232 -23.7490234375 48 c 1
 302.651367188 48 l 1025
EndSplineSet
Fore
SplineSet
232.195488196 526.866742805 m 0
 218.51000436 494.519235555 187.819115824 464 152 464 c 0
 145.629973425 464 139.189898332 465.151764334 133.198042389 467.6723409 c 0
 112.683367737 476.302189263 105.219078083 494.557173283 105.219078083 513.342971613 c 0
 105.219078083 524.441930625 107.824593622 535.726177856 111.883588517 545.32016579 c 0
 147.930834873 631.197429169 206.404491651 691.063144373 264.807911195 725.672578177 c 0
 314.266230015 754.702460963 364.560670832 768 413 768 c 0
 451.859741693 768 488.04453029 758.000269319 514.51325866 735.31278786 c 0
 546.422931794 708.597712678 562.111784222 668.772082718 562.111784222 622.665919668 c 0
 562.111784222 590.336427708 554.397938044 554.918942768 539.153648262 518.768198427 c 0
 524.436118175 483.025625359 503.723019835 446.874880194 473.357502481 415.424880077 c 0
 436.670977554 376.580324271 392.896292055 350.155685353 339.864895113 320.137913499 c 0
 284.228598083 288.345743767 221.921547964 252.1149584 185.334096129 228.044266403 c 0
 158.763166424 210.013992675 137.450696308 192.427160052 121.146869829 176.206317121 c 0
 104.873938209 159.196814666 90.2994277692 141.336686961 76.8876374594 120 c 1
 323 120 l 2
 329.370026575 120 335.810101668 118.848235666 341.801957611 116.3276591 c 0
 362.312767198 107.699436642 369.782196094 89.4593510756 369.782196094 70.6706434731 c 0
 369.782196094 59.564348265 367.172247174 48.2663549351 363.103214026 38.6486402199 c 0
 349.591142047 6.71101554389 318.789011632 -24 283 -24 c 2
 -44 -24 l 2
 -50.3700265745 -24 -56.8101016678 -22.8482356662 -62.8019576105 -20.3276590997 c 0
 -83.320236386 -11.6962946007 -90.7797374615 6.5725719505 -90.7797374615 25.3556555069 c 0
 -90.7797374615 36.4477759274 -88.1783493475 47.7192217467 -84.1286943808 57.291133486 c 0
 -48.4674377067 142.878149504 -7.80182971284 211.139295784 48.0294372515 266.970562748 c 0
 78.3861030137 297.327228511 110.808564088 322.383452929 144.637272585 344.93592526 c 0
 191.818363897 376.731878101 253.354980129 410.987131101 311.044886214 443.810698356 c 0
 359.558828603 471.948784941 386.639596664 491.800604081 397.634308525 502.577500741 c 0
 406.186912708 512.067239087 410.831022892 518.531904927 418.825242968 537.185085105 c 0
 425.418199546 553.66747655 428.221951279 567.289363391 428.221951279 578.44609959 c 0
 428.221951279 594.521827715 422.40083155 605.479436117 413.706652855 612.50165737 c 0
 405.581276168 619.376976106 394.20035871 624 374 624 c 0
 345.144801062 624 317.677230589 616.217769258 296.004996184 603.214428615 c 0
 280.474475692 594.586361675 269.352842808 584.173304032 257.835858439 570.124070494 c 0
 247.916981116 557.168677967 239.038757113 543.974915097 232.195488196 526.866742805 c 0
187.804511804 545.133257195 m 0
 197.056317864 568.262772345 209.112379975 585.509020688 220.171808565 599.886277855 c 0
 234.924134176 618.042986299 249.608349994 632.132745249 272.022875159 644.803051905 c 0
 300.472558046 661.629994668 336.733563446 672 374 672 c 0
 401.79964129 672 426.418723832 664.623023894 444.293347145 649.49834263 c 0
 466.331253049 631.698495553 475.868986351 606.659500663 475.868986351 578.8772394 c 0
 475.868986351 559.672303635 471.311391561 539.156501216 463.174757032 518.814914895 c 0
 453.294853166 495.761805873 444.13434661 482.369216277 432.758561762 469.855852944 c 0
 432.578009676 469.65724565 432.226984197 469.2858587 431.970562748 469.029437252 c 0
 414.92405861 451.982933113 385.968778261 431.777227039 334.955113786 402.189301644 c 0
 276.645019871 369.012868899 216.181636103 335.268121899 171.362727415 305.06407474 c 0
 139.191435912 283.616547071 109.613896986 260.672771489 81.9705627485 233.029437252 c 0
 31.8018297128 182.860704216 -5.53256229332 121.121850496 -39.8713056192 38.708866514 c 0
 -42.7929828674 31.8030839273 -43.1645809615 26.8845196542 -42.8172300532 24 c 2
 283 24 l 2
 289.210988368 24 310.408857953 37.2889844561 318.896785974 57.3513597801 c 0
 321.764620165 64.129876959 322.161178429 69.1437361303 321.817230053 72 c 2
 36 72 l 2
 33.6536015483 72 29.810997657 72.6119604205 26.9841382694 73.757827506 c 0
 17.6844264305 77.5274644916 12.0620532306 86.73146702 12.0620532306 96.2183425355 c 0
 12.0620532306 99.7739380235 12.8518183678 103.369268196 14.533747416 106.733126292 c 0
 37.6474439465 152.960519353 61.2972984593 183.173466131 86.8562862711 209.797411768 c 0
 106.595017993 229.53614349 129.224848174 247.977874373 158.665903871 267.955733597 c 0
 198.051389754 293.867237467 259.827838755 329.686505854 316.092665479 361.837835411 c 0
 369.146021659 391.868037022 407.31556008 415.405421458 438.642497519 448.575119923 c 0
 464.276980165 475.125119806 481.563881825 504.974374641 494.846351738 537.231801573 c 0
 508.400010019 569.373334067 514.255995092 597.860431098 514.255995092 622.113779055 c 0
 514.255995092 656.939099947 502.182116079 683.035270499 483.48674134 698.68721214 c 0
 467.95546971 711.999730681 444.140258307 720 413 720 c 0
 373.439329168 720 331.733769985 709.297539037 289.192088805 684.327421823 c 0
 239.606280393 654.94323906 188.055321557 602.769590562 156.12952084 526.711065326 c 0
 153.221061107 519.836524137 152.847179437 514.786857316 153.172104575 512.088568863 c 1
 161.002173513 513.193946867 180.157532077 527.058577841 187.804511804 545.133257195 c 0
EndSplineSet
EndChar

StartChar: three
Encoding: 51 51 19
Width: 537
Flags: HW
LayerCount: 2
Back
SplineSet
217.567382812 422 m 0
 427.249023438 512.845703125 519.749023438 688 519.749023438 688 c 1
 225.348632812 688 l 1025
19.6162109375 153.767578125 m 0
 20.0830078125 86.4765625 61.3076171875 40 131.337890625 40 c 0
 228.540039062 40 346.02734375 129.54296875 391.780273438 240 c 0
 437.533203125 350.45703125 412.280273438 444 306.680664062 444 c 0
 280.891601562 444 244.329101562 433.32421875 217.567382812 422 c 1024
EndSplineSet
Fore
SplineSet
540 760 m 2
 546.324126015 760 552.714689309 758.930897129 558.725036766 756.503072048 c 0
 579.666530332 748.043946568 586.95324334 729.913240829 586.95324334 711.359358807 c 0
 586.95324334 699.889140668 584.168370062 688.257190851 580.103214026 678.64864022 c 0
 579.917155881 678.208866423 579.709629051 677.760383403 579.503558701 677.341585239 c 0
 579.200790212 676.661900877 578.431331387 674.197031314 576.466252584 670.266873708 c 0
 576.210654001 669.755676542 575.850902527 669.107560492 575.614265517 668.709647103 c 0
 571.483406996 661.574341803 521.992918832 573.142338133 425.601108863 486.182900173 c 1
 451.447929557 466.600282153 467.891742639 438.869094412 475.350460528 406.547983559 c 0
 479.082299165 391.281370951 480.877326137 375.108828225 480.877326137 358.299269457 c 0
 480.877326137 318.172211991 470.648330847 274.415106518 452.119074342 230.686061168 c 0
 390.051024068 82.3539410223 239.123992379 -32 111 -32 c 0
 13.797851519 -32 -46.8668611008 35.6734803818 -48 130.857147918 c 0
 -48 142.922431923 -45.3066162398 152.201053323 -41.2971422021 162.89298409 c 0
 -27.42061888 195.692039215 3.14771983887 226 39 226 c 0
 49.4903340746 226 59.9367867227 222.796510271 68.2617904531 216.423278728 c 0
 81.3609692251 206.395163182 87 190.815393739 87 176 c 0
 87 137.215813496 107.345917969 112 151 112 c 0
 216.710100603 112 300.999913836 177.780704642 330.824979618 249.180104544 c 0
 341.737824928 275.780164986 346.333460377 298.756502331 346.333460377 316.894457614 c 0
 346.333460377 323.43623768 345.735653654 329.348634202 344.620809937 334.574659995 c 0
 338.903965386 357.233226674 325.630400613 372 287 372 c 0
 275.476277398 372 242.606894838 363.772207545 223.087188297 355.786873051 c 0
 222.617193289 355.594602366 221.947078174 355.350804776 221.589466384 355.231600847 c 0
 216.642548933 353.582628363 209.435251489 350 198 350 c 0
 191.709526307 350 185.379426432 351.121815319 179.484249671 353.522831019 c 0
 158.491547228 362.072838968 150.478032555 380.934223778 150.478032555 400.390176011 c 0
 150.478032555 411.026595521 152.873051591 421.840714874 156.851741934 431.244892048 c 0
 165.936576845 453.308062546 182.541450225 470.950904248 199.853593795 482.0801394 c 0
 202.91521623 484.121221024 210.274726653 487.657689191 212.303822932 488.390666701 c 0
 293.677448061 524.009325568 350.291783708 571.26453421 391.931908503 613.873034 c 0
 392.767334561 614.708460058 393.739886186 615.690026395 394.046984423 616 c 2
 205 616 l 2
 198.629973425 616 192.189898332 617.151764334 186.198042389 619.6723409 c 0
 165.687232802 628.300563358 158.217803906 646.540648924 158.217803906 665.329356527 c 0
 158.217803906 676.435651735 160.827752826 687.733645065 164.896785974 697.35135978 c 0
 178.408857953 729.288984456 209.210988368 760 245 760 c 2
 540 760 l 2
539.08070454 712 m 2
 245 712 l 2
 238.789011632 712 217.591142047 698.711015544 209.103214026 678.64864022 c 0
 206.235379835 671.870123041 205.838821571 666.85626387 206.182769947 664 c 2
 447 664 l 2
 450.934857439 664 456.19238219 662.653755216 460.095464508 660.112404365 c 0
 467.11959457 655.538896183 470.901492888 647.733219426 470.901492888 639.858753129 c 0
 470.901492888 634.77272585 469.323790941 629.658001503 466.022975739 625.36694174 c 0
 455.396269523 611.552223659 441.598101318 595.656975821 426.068091497 580.126966 c 0
 381.817565542 534.847358046 319.021464167 482.492967843 230.578892318 443.994436568 c 0
 230.114975131 443.792496145 229.233103282 443.446146479 228.589466384 443.231600847 c 0
 227.062947498 442.722761218 228.571309345 443.536462693 226.146406205 441.9198606 c 0
 215.458549775 435.049095752 206.063423155 424.691937454 201.148258066 412.755107952 c 0
 198.109603148 405.572832691 198.026435472 400.771524515 198.497812928 398.180057229 c 1
 199.003494828 398.313231544 201.237826649 399.018664428 205.657016747 400.516197285 c 0
 228.944972225 409.91963337 262.640416281 420 287 420 c 0
 344.164042724 420 380.701364605 389.474432084 391.378593092 345.430864575 c 0
 393.499487125 335.886841427 394.519857984 326.04268124 394.519857984 315.90441335 c 0
 394.519857984 289.502050618 387.59969842 261.105048174 375.175020382 230.819895456 c 0
 339.000086164 144.219295358 243.289899397 64 151 64 c 0
 80.6540820312 64 39 114.784186504 39 176 c 0
 39 176.860764147 38.9400166034 177.385442632 38.8197410407 177.999084337 c 0
 32.4020893093 177.685434549 12.0220351194 165.006047618 3.29019081355 145.086377934 c 0
 1.36219317895 139.789392225 0 133.09161339 0 131.142852082 c 0
 0.866861100756 58.3265196182 40.202148481 16 111 16 c 0
 212.876007621 16 351.948975932 115.646058978 407.880925658 249.313938832 c 0
 424.655094411 288.90097709 432.774823709 326.457445574 432.774823709 358.601134806 c 0
 432.774823709 371.889476623 431.387136161 384.252757261 428.649539472 395.452016441 c 0
 421.129722003 428.037892142 403.823995179 448.539724654 375.301289732 459.631887883 c 0
 372.256296297 460.816051997 369.136998436 462.842387887 366.738044707 465.325921331 c 0
 362.292099106 469.928617271 360.109513326 475.944915115 360.109513326 481.948989721 c 0
 360.109513326 488.888445482 363.025127038 495.811572794 368.731642014 500.516944792 c 0
 475.166017401 588.278622742 527.468114119 681.186929975 533.659430139 692.037713191 c 0
 533.819868063 692.424073906 533.846911767 692.809616686 536.244473234 698.19189753 c 0
 538.23597498 703.085067543 539.272904604 709.397033792 539.08070454 712 c 2
EndSplineSet
EndChar

StartChar: four
Encoding: 52 52 20
Width: 537
Flags: HW
LayerCount: 2
Back
SplineSet
433.006835938 270 m 1
 49.0068359375 270 l 1
 74.6875 332 l 1
 466.120117188 686 l 1
 515.719726562 686 l 1
 250.623046875 46 l 1025
EndSplineSet
Fore
SplineSet
231 -26 m 0
 224.709526307 -26 218.379426432 -24.8781846814 212.484249671 -22.4771689808 c 0
 191.495527183 -13.9287820072 183.477235791 4.91810516484 183.477235791 24.3773300903 c 0
 183.477235791 35.0211593794 185.876215418 45.8481930102 189.863754999 55.2732865645 c 2
 249.062903185 198 l 1
 29 198 l 2
 22.6299734255 198 16.1898983322 199.151764334 10.1980423895 201.6723409 c 0
 -10.3361030689 210.310379991 -17.774565267 228.640247406 -17.774565267 247.41135755 c 0
 -17.774565267 258.473398536 -15.1912716509 269.68867812 -11.1824991348 279.163958613 c 2
 13.7930441588 341.103305981 l 2
 20.6083753978 357.460100955 31.1209098562 370.197516584 42.9184499198 380.815302641 c 2
 433.837212406 734.741752564 l 2
 448.614726181 748.287806858 466.478911369 758 486 758 c 2
 536 758 l 2
 542.370026575 758 548.810101668 756.848235666 554.801957611 754.3276591 c 0
 575.324485985 745.694506934 582.77834545 727.409284046 582.77834545 708.629403837 c 0
 582.77834545 697.545343886 580.181815735 686.288971533 576.14314793 676.743029448 c 2
 437.879722723 342 l 1
 453 342 l 2
 459.370026575 342 465.810101668 340.848235666 471.801957611 338.3276591 c 0
 492.312767198 329.699436642 499.782196094 311.459351076 499.782196094 292.670643473 c 0
 499.782196094 281.564348265 497.172247174 270.266354935 493.103214026 260.64864022 c 0
 479.591142047 228.711015544 448.789011632 198 413 198 c 2
 378.028005906 198 l 1
 311.136245001 36.7267134355 l 2
 297.562097549 4.64236491121 266.799787896 -26 231 -26 c 0
231.532104803 22.01810718 m 0
 238.759891501 22.7109835686 258.842916535 36.3149411052 266.863754999 55.2732865645 c 2
 339.831276382 231.194981955 l 2
 343.198960058 239.314328899 352.098658804 246 362 246 c 2
 413 246 l 2
 419.210988368 246 440.408857953 259.288984456 448.896785974 279.35135978 c 0
 451.764620165 286.129876959 452.161178429 291.14373613 451.817230053 294 c 2
 402 294 l 2
 399.934595467 294 396.965154861 294.403439004 394.606355569 295.167259866 c 0
 384.484293733 298.444962222 378.046375895 308.113260561 378.046375895 318.214405538 c 0
 378.046375895 321.2107669 378.61286635 324.245215651 379.817725764 327.162243706 c 2
 531.85685207 695.256970552 l 2
 534.809071407 702.23494353 535.166511024 707.099452454 534.817230053 710 c 2
 486 710 l 2
 483.521088631 710 475.385273819 707.712193142 466.162787594 699.258247436 c 2
 75.1078761797 345.208532242 l 2
 66.8484501057 337.775048775 61.3982102962 330.555704711 58.2069558412 322.896694019 c 2
 33.1824991348 260.836041387 l 2
 30.1471259659 253.661522988 29.8282341923 248.944185052 30.1827699468 246 c 2
 285 246 l 2
 287.148107451 246 290.054096511 245.594172499 292.427344906 244.821799834 c 0
 302.532837438 241.53297165 308.953307378 231.873777411 308.953307378 221.785331753 c 0
 308.953307378 218.777567406 308.382609954 215.731648115 307.168723618 212.805018045 c 2
 234.136245001 36.7267134355 l 2
 231.031517358 29.3882662788 231.043491124 24.3853657526 231.532104803 22.01810718 c 0
308.972264571 342 m 1
 390.955332801 539.649102477 l 1
 172.333817521 342 l 1
 308.972264571 342 l 1
347.168580286 308.804672486 m 2
 343.800924669 300.685750803 334.901300476 294 325 294 c 2
 110 294 l 2
 104.43822695 294 97.9961660959 296.322078394 93.5146681245 300.557699895 c 0
 88.5725043086 305.228712903 86.1109077325 311.610655495 86.1109077325 317.989930706 c 0
 86.1109077325 324.55222418 88.7157744047 331.111695026 93.904857017 335.802987737 c 2
 437.904857017 646.802987737 l 2
 443.686578268 652.030067124 453.114976468 654.527199853 461.427700645 651.821684055 c 0
 471.533018155 648.532738629 477.953304032 638.873640616 477.953304032 628.785329018 c 0
 477.953304032 625.777444259 477.382562105 622.731403848 476.168580286 619.804672486 c 2
 347.168580286 308.804672486 l 2
EndSplineSet
EndChar

StartChar: five
Encoding: 53 53 21
Width: 537
Flags: HW
LayerCount: 2
Back
SplineSet
14.46484375 155.704101562 m 0
 16.15625 86.712890625 54.7958984375 40 121.737304688 40 c 0
 219.823242188 40 340.87890625 140.288085938 392.122070312 264 c 0
 443.365234375 387.711914062 405.391601562 488 307.305664062 488 c 0
 249.536132812 488 183.651367188 456 122.0546875 400 c 1
 266.94921875 688 l 1
 522.94921875 688 l 1025
EndSplineSet
Fore
SplineSet
102 328 m 0
 96.0948157643 328 90.1136391269 329.009296938 84.450190915 331.207087994 c 0
 63.8392762493 339.205480883 55.3219456984 357.679574223 55.3219456984 377.704169387 c 0
 55.3219456984 388.197250707 57.6606864865 399.116078315 61.8235960219 409.176443025 c 0
 61.9470490436 409.474787828 62.1567321887 409.945201468 62.240444327 410.125307275 c 0
 63.0768850231 412.570287771 63.3749475084 413.415526477 64.5486338316 415.762899123 c 2
 209.548633832 703.762899123 l 2
 224.158630113 732.982891686 253.474462842 760 287 760 c 2
 543 760 l 2
 549.370026575 760 555.810101668 758.848235666 561.801957611 756.3276591 c 0
 582.312767198 747.699436642 589.782196094 729.459351076 589.782196094 710.670643473 c 0
 589.782196094 699.564348265 587.172247174 688.266354935 583.103214026 678.64864022 c 0
 569.591142047 646.711015544 538.789011632 616 503 616 c 2
 295.783061436 616 l 1
 263.145602653 551.212208685 l 1
 286.37796992 557.353789481 305.696372536 560 327 560 c 0
 350.117481644 560 371.542978265 555.99341519 390.671651843 548.111147119 c 0
 452.351507769 522.695001196 482.376246495 463.033701271 482.376246495 389.858766031 c 0
 482.376246495 347.980691543 472.542297454 301.676520219 453.180005112 254.832264554 c 0
 388.613018408 98.6218128504 236.503704401 -32 102 -32 c 0
 5.55966959357 -32 -50.7626852745 38.7471077249 -53 132.714326195 c 0
 -53 145.09394856 -50.3332571975 154.130010769 -46.2971422021 164.89298409 c 0
 -32.42061888 197.692039215 -1.85228016113 228 34 228 c 0
 45.4025788083 228 57.0015309966 224.397462447 65.9415491368 216.612956856 c 0
 77.1639053773 206.841109245 82 192.355399344 82 179.222203174 c 0
 82.813530337 135.291564976 104.500917987 112 142 112 c 0
 204.548255201 112 294.358613526 181.387972526 331.779656551 273.069527938 c 0
 342.839448482 300.166018168 347.721194932 324.582595802 347.721194932 345.443822475 c 0
 347.721194932 392.406262552 325.891420229 416 287 416 c 0
 249.686643409 416 202.58471249 394.932699526 154.055153559 351.16094049 c 0
 142.127723451 340.426253393 124.716674322 328 102 328 c 0
103.084160651 376.064188401 m 1
 106.871671943 376.604193111 114.796117364 380.40520334 121.944846441 386.83905951 c 0
 175.41528751 435.067300474 232.313356591 464 287 464 c 0
 355.822450212 464 395.720956256 411.268671113 395.720956256 345.312025339 c 0
 395.720956256 317.060932063 389.20950822 286.753925752 376.220343449 254.930472062 c 0
 333.641386474 150.612027474 233.451744799 64 142 64 c 0
 75.4990820131 64 35.186469663 114.708435024 34 178.777796826 c 0
 34 179.675396967 34 179.502054223 33.9586352605 180.000909883 c 0
 27.9208523317 179.851865844 7.1847078854 167.377147657 -1.70980918645 147.086377934 c 0
 -3.57804213261 141.953589885 -4.93366626192 135.895633086 -4.99873398548 133.215700911 c 0
 -2.91969679416 59.3108583439 34.2016793772 16 102 16 c 0
 207.496295599 16 349.386981592 129.37818715 408.819994888 273.167735446 c 0
 426.814189769 316.7020779 434.74136858 355.721630893 434.74136858 388.948205666 c 0
 434.74136858 447.612803929 410.029834358 488.218849087 372.384244606 503.731301056 c 0
 359.643709149 508.981237254 344.606500256 512 327 512 c 0
 295.481113631 512 261.011841053 503.206574507 224.511266159 485.424243148 c 0
 218.638372955 482.563090049 211.238856183 482.200465715 204.917385912 484.785002333 c 0
 195.652575355 488.572925256 190.062708564 497.756692857 190.062708564 507.218105627 c 0
 190.062708564 510.797206065 190.862611426 514.416037175 192.566075672 517.797540827 c 2
 259.566075672 650.797540827 l 2
 263.408611643 658.425261486 271.879293002 664 281 664 c 2
 503 664 l 2
 509.210988368 664 530.408857953 677.288984456 538.896785974 697.35135978 c 0
 541.764620165 704.129876959 542.161178429 709.14373613 541.817230053 712 c 2
 287 712 l 2
 280.531260369 712 261.828022851 700.990414242 252.466252584 682.266873708 c 2
 107.732376098 394.795244737 l 1
 106.297171424 391.056855444 l 2
 103.116831503 383.043006496 102.785848762 378.789523203 103.084160651 376.064188401 c 1
EndSplineSet
EndChar

StartChar: six
Encoding: 54 54 22
Width: 537
Flags: HW
LayerCount: 2
Back
SplineSet
520.439453125 624 m 4
 520.439453125 624 511.862304688 696 422.262695312 696 c 4
 358.262695312 696 200.657226562 624.52734375 94.400390625 368 c 4
 -15.87109375 101.782226562 81.734375 40 150.538085938 40 c 4
 255.200195312 40 351.754882812 131.782226562 389.124023438 222 c 4
 428.888671875 318 390.912109375 404 294.912109375 404 c 4
 199.22265625 404 107.442382812 340.1796875 51.03515625 204 c 1028
EndSplineSet
Fore
SplineSet
536.8132751 633.149655458 m 0
 539.108114238 639.166168711 539.627052366 643.894433278 539.226928067 647.667885686 c 0
 538.202195835 654.042332963 530.331646724 720 442 720 c 0
 403.41673028 720 331.112980356 696.393300475 253.421773268 623.497846912 c 0
 191.095659868 565.007186644 127.973417562 478.922220649 78.1698107257 358.807639455 c 0
 39.9765503322 267.375288816 25.5430046801 197.677585119 25.5430046801 146.344941361 c 0
 25.5430046801 110.184133882 32.7054613169 83.1367451438 43.7702308515 64.024870493 c 0
 64.5584221598 28.0453086133 98.9497718083 16 131 16 c 0
 179.852717468 16 229.936637451 34.652857125 275.87475248 68.4033089834 c 0
 333.124108599 109.697926512 380.635019948 171.4716502 405.913712133 231.391513156 c 0
 418.892896583 261.676276874 424.289753305 290.97427438 424.289753305 316.500356495 c 0
 424.289753305 323.355527752 423.900520727 329.938660595 423.164385496 336.195810058 c 0
 416.516684467 392.701268809 379.957433032 428 315 428 c 0
 271.648028321 428 224.676767766 415.557066482 178.404404649 384.091859562 c 0
 169.870765973 378.402767111 163.000411792 373.23492288 155.804110589 366.938159327 c 0
 149.869428019 361.745312078 140.336352861 359.444911531 132.047657718 362.355789874 c 0
 122.20314057 365.813051996 116.051689695 375.32743474 116.051689695 385.217801845 c 0
 116.051689695 388.404314587 116.690223737 391.629855327 118.049508432 394.704427851 c 0
 161.188252085 492.280157542 210.04625885 556.151480089 254.669173615 597.587043799 c 0
 314.048010442 652.724535138 369.169089676 672 402 672 c 0
 440.010306604 672 465.07780232 658.250733315 481.013578476 640.866250236 c 0
 496.177341066 622.945439902 500.418356279 609.975053603 501.814699751 600.04430196 c 1
 509.56645146 600.964553239 528.29324216 613.713184087 536.8132751 633.149655458 c 0
581.195488196 614.866742805 m 0
 567.51000436 582.519235555 536.819115824 552 501 552 c 0
 475.26115477 552 458.096916258 572.142602386 454.430591542 592.391497511 c 0
 453.57230033 594.990893755 449.722761615 603.28600511 445.02029807 609.093780124 c 0
 438.270804209 616.306012802 427.791261532 624 402 624 c 0
 386.830910324 624 339.951989558 611.275464862 287.330826385 562.412956201 c 0
 260.119335498 537.145143235 229.87781869 500.999732539 200.62854516 451.292550341 c 1
 239.363252948 468.509510841 278.108983963 476 315 476 c 0
 402.042566968 476 461.483315533 421.298731191 470.835614504 341.804189942 c 0
 471.797241225 333.630362812 472.295060636 325.152454502 472.295060636 316.431157719 c 0
 472.295060636 284.133989328 465.467924052 248.498971275 450.086287867 212.608486844 c 0
 421.364980052 144.5283498 368.875891401 76.3020734881 304.12524752 29.5966910166 c 0
 252.063362549 -8.65285712502 192.147282532 -32 131 -32 c 0
 87.0502281917 -32 33.4415778402 -14.0453086133 2.22976914845 39.975129507 c 0
 -14.0501867378 68.0950533106 -22.8996213488 103.362053421 -22.8996213488 146.450933718 c 0
 -22.8996213488 207.197823245 -5.31094336843 283.491076789 33.8422844646 377.221531298 c 0
 86.0123783752 503.043522494 152.915830226 595.003596368 220.578226732 658.502153088 c 0
 304.887019644 737.606699525 386.58326972 768 442 768 c 0
 568.344385563 768 585.466253445 662.188780055 586.753942616 654.462645031 c 0
 587.151145128 651.285024934 587.351579432 648.137661185 587.351579432 645.000831998 c 0
 587.351579432 635.059582767 585.338447512 625.224141093 581.195488196 614.866742805 c 0
111.791045867 196.308938651 m 1
 111.71492148 194.010128386 111.678286649 191.788695127 111.678286649 189.641228968 c 0
 111.678286649 163.45861703 117.124159255 148.271426372 122.841932777 137.899460618 c 0
 135.13753979 117.556164066 152.983524867 112 170 112 c 0
 202.141165952 112 233.151608401 123.863706301 257.772958936 142.329719202 c 0
 290.209589008 165.756174254 315.614216605 199.474119852 328.816281119 231.159074687 c 0
 334.97781535 246.220602807 337.556487073 260.413875414 337.556487073 273.421481208 c 0
 337.556487073 276.449754327 337.416724333 279.413764888 337.149869805 282.309507771 c 0
 333.245096921 311.448594352 315.456988762 332 275 332 c 0
 242.81749622 332 215.846280069 322.626400108 193.628901772 307.24513821 c 0
 165.727177136 288.062702522 138.061180376 258.055519205 111.791045867 196.308938651 c 1
65.7806245582 210.07192636 m 0
 65.8841901854 210.462137921 66.4460405795 212.267570953 66.8360788103 213.206551879 c 0
 95.2049501448 281.501982869 130.259841867 321.928373042 166.403308251 346.777006181 c 0
 196.120219391 367.350252355 233.196902602 380 275 380 c 0
 338.318592668 380 378.390678826 339.36875535 384.851414474 287.682870168 c 0
 385.34125732 282.78444171 385.588298059 277.889059828 385.588298059 272.989386339 c 0
 385.588298059 253.171954534 381.546924054 233.284315737 373.183718881 212.840925313 c 0
 356.385783395 172.525880148 325.790410992 132.243825746 286.227041064 103.670280798 c 0
 254.848391599 80.1362936989 213.858834048 64 170 64 c 0
 141.069515824 64 103.642429976 75.7410698603 81.1870644869 114.047281577 c 0
 70.8053744644 132.503619395 63.6525558278 157.622765823 63.6525558278 189.383543957 c 0
 63.6525558278 193.607990312 63.7790977841 197.949935112 64.0414150438 202.409328527 c 0
 64.1853025413 204.855415984 64.7777546112 207.609143966 65.7806245582 210.07192636 c 0
EndSplineSet
EndChar

StartChar: seven
Encoding: 55 55 23
Width: 537
Flags: HW
LayerCount: 2
Back
SplineSet
215.749023438 688 m 1
 574.1484375 688 l 1
 550.124023438 630 l 1
 550.124023438 630 270.391601562 480 104.706054688 80 c 2
 91.451171875 48 l 1025
EndSplineSet
Fore
SplineSet
594 760 m 2
 600.09821525 760 606.248043347 759.005934179 612.045090766 756.752070316 c 0
 633.827645151 748.283119033 640.815117662 729.699963032 640.815117662 711.337438329 c 0
 640.815117662 699.540597192 637.931173894 687.834817345 634.233513936 678.960433447 c 2
 611.252023304 621.007109244 l 2
 601.780177248 598.004054536 584.032332543 578.119387368 561.775815673 566.544364531 c 2
 561.775815673 566.544364531 543.12329175 556.342468812 506.501584458 528.876188343 c 0
 477.385039768 506.553504081 438.188627381 474.202164313 396.373229295 430.44186399 c 0
 321.030727462 351.185465959 232.877454238 235.660678001 165.21791805 70.9244159778 c 2
 152.170348533 38.8073217828 l 2
 138.53210994 6.57148510952 107.810914078 -24 72 -24 c 0
 65.7095263071 -24 59.3794264316 -22.8781846814 53.4842496707 -20.4771689808 c 0
 32.4842098462 -11.9241726284 24.4794933142 6.96391698441 24.4794933142 26.4138294093 c 0
 24.4794933142 37.0365950432 26.867226835 47.8269472688 30.829651467 57.1926782172 c 2
 43.7910760662 89.0977233845 l 2
 156.302205407 361.493089156 320.217493626 528.422346871 427.663607587 616 c 1
 196 616 l 2
 189.709526307 616 183.379426432 617.121815319 177.484249671 619.522831019 c 0
 156.506433597 628.066775977 148.475036398 646.87388999 148.475036398 666.342070819 c 0
 148.475036398 677.006218438 150.884901087 687.868722774 154.896785974 697.35135978 c 0
 168.613952326 729.773752974 200.512981283 760 236 760 c 2
 594 760 l 2
592.8268031 712 m 2
 236 712 l 2
 229.487018717 712 207.386047674 698.226247026 199.103214026 678.64864022 c 0
 196.064029236 671.465112535 196.046098737 666.372732269 196.535842213 664 c 2
 499 664 l 2
 505.715250864 664 512.923333404 660.826309759 517.499354361 655.28966606 c 0
 521.143181324 650.880907494 522.896990612 645.486032602 522.896990612 640.115607944 c 0
 522.896990612 632.53280942 519.400566206 624.998755305 512.791130115 620.358087411 c 0
 421.314123616 556.129550933 218.919710069 387.359969363 88.2089239338 70.9022766155 c 2
 75.170348533 38.8073217828 l 2
 71.9950849882 31.3021534041 72.0366765663 26.4183812437 72.5321048033 24.01810718 c 0
 79.7460066223 24.7096525242 99.8733056233 38.3867698593 107.829651467 57.1926782172 c 2
 120.764802149 89.0330491269 l 2
 191.137470415 260.375197949 282.978209109 380.82393485 361.605376165 463.535630065 c 0
 405.836333882 509.823841629 446.601778709 543.436390085 477.498415542 567.123811657 c 0
 518.694419364 598.020814523 538.208896473 608.383735764 540.015473318 609.340552389 c 0
 550.129029922 614.397330691 562.089231712 627.678795794 566.747976696 638.992890756 c 2
 589.766486064 697.039566553 l 2
 592.507766936 703.618640647 593.103923362 708.345950242 592.8268031 712 c 2
EndSplineSet
EndChar

StartChar: eight
Encoding: 56 56 24
Width: 537
Flags: HW
LayerCount: 2
Back
SplineSet
340.970703125 380 m 0
 340.970703125 380 466.693359375 451.756835938 504.901367188 544 c 0
 539.942382812 628.595703125 493.041992188 696 404.662109375 696 c 0
 309.8828125 696 213.432617188 628.333007812 178.500976562 544 c 0
 142.05078125 456 183.60546875 386 284.255859375 386 c 0
 398.711914062 386 415.453125 297.151367188 381.838867188 216 c 0
 344.216796875 125.171875 246.634765625 40 132.9375 40 c 0
 27.337890625 40 -3.2978515625 136 34.8095703125 228 c 0
 86.1728515625 352 208.455078125 400 208.455078125 400 c 1024
EndSplineSet
Fore
SplineSet
239.003345463 534.409203138 m 0
 234.87396132 524.272493935 232.980112292 515.635612457 232.980112292 507.179153625 c 0
 232.980112292 484.069386272 247.168386265 458 304 458 c 0
 319.049862562 458 332.57806856 456.692760626 346.131594393 454.377480591 c 1
 357.348703731 461.842137123 373.461991532 473.610502186 390.313123112 488.163752186 c 0
 416.805268462 510.871305344 438.292197753 537.211315347 444.896341359 553.354777495 c 0
 448.243071259 561.004445838 449.680732524 567.726858268 449.680732524 574.630272857 c 0
 449.680732524 578.305730393 449.27321013 582.032495171 448.529309416 585.977823791 c 0
 444.343654163 603.505121378 425.65212419 624 385 624 c 0
 330.724584352 624 279.417817504 592.640575667 254.690093818 561.944091091 c 0
 248.93154181 554.745901081 244.109732381 545.575794348 239.003345463 534.409203138 c 0
194.993103366 553.583448079 m 0
 200.631788897 565.988556247 206.916618988 579.06451916 217.284473976 592.024337895 c 0
 250.606217861 633.389261338 313.265859307 672 385 672 c 0
 442.517199153 672 485.428275519 640.493627266 495.475836586 595.997285396 c 0
 496.833247895 589.210228851 497.553213856 582.237315702 497.553213856 575.184427834 c 0
 497.553213856 561.717235124 494.928196643 547.958452225 489.103658641 534.645222505 c 0
 477.700425994 506.770653813 451.232172915 477.160567216 421.652989409 451.806981354 c 0
 398.684494295 431.970553756 377.781676528 417.300716284 363.578338216 408.560200399 c 0
 358.206397575 405.254390774 350.804398605 404.497078476 345.97130187 405.532742062 c 0
 333.492223081 408.206830374 319.116708718 410 304 410 c 0
 227.29985154 410 184.967267451 455.316947819 184.967267451 506.831274499 c 0
 184.967267451 523.188052291 188.718265792 538.5238379 194.993103366 553.583448079 c 0
365.137297902 206.725028178 m 0
 346.063891465 159.602494625 306.945253332 115.139810936 251.560022609 87.4471955746 c 0
 223.692103541 74.0705944217 190.495825208 64 153 64 c 0
 134.289189309 64 117.357953563 67.1127622607 102.520014307 73.1774710874 c 0
 56.7059005236 91.903067375 38.4155291327 133.409149504 38.4155291327 175.869554065 c 0
 38.4155291327 197.023542215 42.955350681 218.414401091 50.8932078846 237.343137499 c 0
 76.4724781524 297.39881552 122.096076864 336.888498233 159.055999768 359.221224775 c 0
 171.963245661 367.565887785 179.398893471 370.227905178 181.65210187 371.579830217 c 0
 188.279694832 375.556385995 197.158306989 375.585468279 202.913376232 373.283440581 c 0
 220.202436492 366.367816477 239.98245743 362 264 362 c 0
 313.451271784 362 347.014742491 344.171067832 364.321959523 316.767974197 c 0
 374.251018216 300.881480288 378.293972066 283.268845823 378.293972066 265.557762627 c 0
 378.293972066 245.259395864 372.983529352 224.831716137 365.137297902 206.725028178 c 0
320.862702098 225.274971822 m 0
 326.962012536 239.350303602 329.828883524 253.323367871 329.828883524 265.398055491 c 0
 329.828883524 275.801572741 327.700662521 284.795830532 323.678040477 291.232025803 c 0
 316.985257509 301.828932168 302.548728216 314 264 314 c 0
 238.529875118 314 216.057798843 317.971578428 195.602826887 324.845238917 c 0
 192.177300079 323.122713087 188.736729642 321.313409557 185.312804709 319.030792936 c 0
 185.089474114 318.881905872 184.658854812 318.606743792 184.34789813 318.420169783 c 0
 152.466006517 299.291034815 115.486380394 266.504591503 95.1067921154 218.656862501 c 0
 88.9973456077 204.088182367 86.0525160351 189.627950829 86.0525160351 176.297792053 c 0
 86.0525160351 149.213171073 98.2097575931 126.793868478 120.680647763 117.609344697 c 0
 128.994363335 114.2112809 139.566232378 112 153 112 c 0
 181.504174792 112 208.307896459 119.929405578 230.439977391 130.552804425 c 0
 275.054746668 152.860189064 305.936108535 188.397505375 320.862702098 225.274971822 c 0
150.02331342 381.523175805 m 0
 102.615759261 347.38973681 49.0005602263 293.548745849 18.1649323459 218.795708563 c 0
 5.193289592 187.765504328 -0.833992445784 158.271246839 -0.833992445784 131.538955466 c 0
 -0.833992445784 62.8579400533 36.6322580333 16 113 16 c 0
 164.313850595 16 217.088147938 34.1725052279 264.896971021 65.1076260458 c 0
 324.551582493 104.255964825 372.700889969 163.76589632 397.816281119 225.159074687 c 0
 410.075199168 254.580478002 415.935516631 283.05399526 415.935516631 308.23724688 c 0
 415.935516631 331.204735246 411.06107871 351.435478429 401.720537171 367.152578937 c 2
 396.030792936 375.687195291 l 2
 393.369061252 379.679792816 392.162487508 384.206328912 392.162487508 388.674492812 c 0
 392.162487508 395.926788219 395.341166352 403.025303997 400.635574408 407.43731071 c 0
 406.610876978 412.416729519 412.578538133 417.391470825 419.340603337 423.187526714 c 0
 455.020545047 454.045854679 498.107736656 498.658567974 520.878828726 553.309188943 c 0
 531.626879002 578.598719004 536.270851985 601.516887499 536.270851985 621.203805664 c 0
 536.270851985 630.043600543 535.334544301 638.231917792 533.594112428 645.690911531 c 0
 523.349159848 692.18723478 485.970030253 720 425 720 c 0
 349.457960192 720 261.598805958 677.746437977 202.877739009 603.180003756 c 0
 186.198608409 581.867781323 172.116812996 558.317146877 162.165705134 534.796346475 c 0
 152.186205302 510.301210524 146.824891388 486.451009131 145.979958369 467.017549683 c 0
 145.906634204 465.111121398 145.870392274 463.239286055 145.870392274 461.400653196 c 0
 145.870392274 441.773299405 150.000342104 425.92953533 157.238037337 412.177914388 c 0
 159.065021261 408.706644933 159.929547237 404.931945187 159.929547237 401.187537152 c 0
 159.929547237 393.571293913 156.352758236 386.080376072 150.02331342 381.523175805 c 0
106.472184465 408.816828295 m 1
 101.096415663 424.248033563 97.8903979251 442.803082974 97.8903979251 462.227379495 c 0
 97.8903979251 464.468651385 97.9330818563 466.721496163 98.0200416314 468.982450317 c 0
 99.1751086119 495.548990869 105.813794698 523.698789476 117.834294866 553.203653525 c 0
 129.87467523 581.662734385 145.829925223 608.168678317 165.099879976 632.79139828 c 0
 232.422373515 718.280278965 332.533615017 768 425 768 c 0
 502.029969747 768 564.650840152 727.81276522 580.405887572 656.309088469 c 0
 582.997927513 645.200345864 584.287411404 633.479338599 584.287411404 621.305193263 c 0
 584.287411404 594.104243255 577.850061717 564.641141512 565.121171274 534.690811057 c 0
 537.892263344 469.341432026 488.979454953 419.954145321 450.659396663 386.812473286 c 0
 449.226956056 385.584667051 449.790247384 386.065109548 447.271578154 383.918714754 c 0
 458.857186786 361.034967545 464.131121108 335.295327654 464.131121108 308.366301902 c 0
 464.131121108 275.289523196 456.174295324 240.418308778 442.183718881 206.840925313 c 0
 413.299110031 136.23410368 359.448417507 69.7440351752 291.103028979 24.8923739542 c 0
 236.911852062 -10.1725052279 175.686149405 -32 113 -32 c 0
 9.41223919059 -32 -48.8338944848 41.1950697869 -48.8338944848 131.610999777 c 0
 -48.8338944848 165.503216142 -41.1829887675 201.278744703 -26.1649323459 237.204291437 c 0
 5.58216113039 314.166942288 56.9210406877 369.79291391 106.472184465 408.816828295 c 1
EndSplineSet
EndChar

StartChar: nine
Encoding: 57 57 25
Width: 537
Flags: HW
LayerCount: 2
Back
SplineSet
17.1611328125 112 m 0
 17.1611328125 112 25.7373046875 40 115.337890625 40 c 0
 179.337890625 40 336.943359375 111.47265625 443.200195312 368 c 0
 553.471679688 634.217773438 455.865234375 696 387.0625 696 c 0
 282.399414062 696 185.844726562 604.217773438 148.475585938 514 c 0
 108.7109375 418 146.6875 332 242.6875 332 c 0
 338.377929688 332 430.158203125 395.8203125 486.565429688 532 c 1024
EndSplineSet
Fore
SplineSet
1.18674616474 102.850393054 m 0
 -1.57675739667 95.7345770689 -2.38446969027 90.6252131388 -2.21830743914 88.2783551494 c 0
 -1.07739901148 81.2100294488 7.10549542912 16 95 16 c 0
 133.64158833 16 206.970337685 39.6848744761 284.578226732 112.502153088 c 0
 346.904340132 170.992813356 410.026582438 257.077779351 459.830189274 377.192360545 c 0
 498.023449668 468.624711184 512.45699532 538.322414881 512.45699532 589.655058639 c 0
 512.45699532 625.815866118 505.294538683 652.863254856 494.229769148 671.975129507 c 0
 473.44157784 707.954691387 439.050228192 720 407 720 c 0
 358.147282532 720 308.063362549 701.347142875 262.12524752 667.596691017 c 0
 204.875891401 626.302073488 157.364980052 564.5283498 132.086287867 504.608486844 c 0
 119.107103417 474.323723126 113.710246695 445.02572562 113.710246695 419.499643505 c 0
 113.710246695 412.644472248 114.099479273 406.061339405 114.835614504 399.804189942 c 0
 121.483315533 343.298731191 158.042566968 308 223 308 c 0
 266.313433056 308 312.204740866 320.362359388 358.595595351 351.908140438 c 0
 367.812164679 358.05251999 375.738405115 363.411541914 382.195889411 369.061840673 c 0
 388.130571981 374.254687922 397.663647139 376.555088469 405.952342282 373.644210126 c 0
 415.79685943 370.186948004 421.948310305 360.67256526 421.948310305 350.782198155 c 0
 421.948310305 347.595685413 421.309776263 344.370144673 419.950491568 341.295572149 c 0
 376.811747915 243.719842458 327.95374115 179.848519911 283.330826385 138.412956201 c 0
 223.830905226 83.1630294109 167.726905964 64 135 64 c 0
 96.9896933963 64 71.9221976801 77.7492666848 55.9864215242 95.133749764 c 0
 40.8378854105 113.036565171 37.5661764044 126.865936193 36.1711964073 135.954023699 c 1
 28.441035543 135.036335582 9.70640463642 122.286010162 1.18674616474 102.850393054 c 0
-43.1954881961 121.133257195 m 0
 -29.5100043597 153.480764445 1.18088417623 184 37 184 c 0
 62.3724009163 184 80.3243363051 164.727171273 83.7209207436 142.649372422 c 0
 84.0304759387 140.637263654 87.470262209 132.509008544 91.9872328955 126.898172594 c 0
 98.7218044077 119.701885328 109.211895277 112 135 112 c 0
 150.273094036 112 198.169094774 124.836970589 250.669173615 173.587043799 c 0
 277.832249908 198.809900356 308.805047628 235.979000624 337.652016488 285.186763841 c 1
 298.358441017 267.452837053 260.297216617 260 223 260 c 0
 135.957433032 260 76.5166844668 314.701268809 67.1643854963 394.195810058 c 0
 66.2027587751 402.369637188 65.7049393636 410.847545498 65.7049393636 419.568842281 c 0
 65.7049393636 451.866010672 72.5320759476 487.501028725 87.9137121326 523.391513156 c 0
 116.635019948 591.4716502 169.124108599 659.697926512 233.87475248 706.403308983 c 0
 285.936637451 744.652857125 345.852717468 768 407 768 c 0
 450.949771808 768 504.55842216 750.045308613 535.770230852 696.024870493 c 0
 552.050186738 667.904946689 560.899621349 632.637946579 560.899621349 589.549066282 c 0
 560.899621349 528.802176755 543.310943368 452.508923211 504.157715535 358.778468702 c 0
 451.987621625 232.956477506 385.084169774 140.996403632 317.421773268 77.4978469116 c 0
 233.029662315 -1.68487447611 150.35841167 -32 95 -32 c 0
 -31.3443855634 -32 -48.4662534454 73.8112199451 -49.753942616 81.5373549689 c 0
 -50.1067351131 84.3596949456 -50.2695030181 87.0816080501 -50.2695030181 89.7208981168 c 0
 -50.2695030181 101.277594813 -47.148731613 111.250148653 -43.1954881961 121.133257195 c 0
426.277947211 542.257829113 m 1
 426.727831865 569.805757081 420.392778262 586.825155048 414.15748626 598.101500595 c 0
 401.862988536 618.44296181 384.016272467 624 367 624 c 0
 334.919206179 624 305.045626689 612.284220017 280.227041064 593.670280798 c 0
 247.790410992 570.243825746 222.385783395 536.525880148 209.183718881 504.840925313 c 0
 203.02218465 489.779397193 200.443512927 475.586124586 200.443512927 462.578518792 c 0
 200.443512927 459.550245673 200.583275667 456.586235112 200.850130195 453.690492229 c 0
 204.754903079 424.551405648 222.543011238 404 263 404 c 0
 295.18250378 404 322.153719931 413.373599892 344.371098228 428.75486179 c 0
 372.453647159 448.06161418 399.512192791 478.307772762 426.277947211 542.257829113 c 1
469.30289503 520.732218471 m 0
 441.543339644 454.908060027 407.625437559 413.992756564 371.596691749 389.222993819 c 0
 341.879780609 368.649747645 304.803097398 356 263 356 c 0
 199.681407332 356 159.609321174 396.63124465 153.148585526 448.317129832 c 0
 152.65874268 453.21555829 152.411701941 458.110940172 152.411701941 463.010613661 c 0
 152.411701941 482.828045466 156.453075946 502.715684263 164.816281119 523.159074687 c 0
 181.614216605 563.474119852 212.209589008 603.756174254 251.772958936 632.329719202 c 0
 282.954373311 655.715779983 323.080793821 672 367 672 c 0
 395.930484176 672 433.357570024 660.25893014 455.812935513 621.952718423 c 0
 466.026142594 603.795905835 474.31004066 578.215463286 474.31004066 545.417326288 c 0
 474.31004066 541.574101682 474.196296809 537.631772965 473.958584956 533.590671473 c 0
 473.694996427 529.10966647 472.414060318 525.096821053 469.30289503 520.732218471 c 0
EndSplineSet
EndChar

StartChar: colon
Encoding: 58 58 26
Width: 230
Flags: HW
LayerCount: 2
Back
SplineSet
169.825195312 456 m 0
 161.1875 443.068359375 145.956054688 432 135.309570312 432 c 0
 128.91015625 432 125.823242188 440 129.13671875 448 c 0
 130.251953125 450.692382812 131.729492188 453.383789062 133.477539062 456 c 1024
133.477539062 456 m 0
 142.115234375 468.931640625 157.345703125 480 167.991210938 480 c 0
 174.391601562 480 177.478515625 472 174.165039062 464 c 0
 173.049804688 461.307617188 171.572265625 458.616210938 169.825195312 456 c 1024
10.7666015625 72 m 0
 2.12890625 59.068359375 -13.1025390625 48 -23.7490234375 48 c 0
 -30.1484375 48 -33.234375 56 -29.9208984375 64 c 0
 -28.8056640625 66.6923828125 -27.328125 69.3837890625 -25.5810546875 72 c 1024
-25.5810546875 72 m 0
 -16.943359375 84.931640625 -1.7119140625 96 8.93359375 96 c 0
 15.333984375 96 18.4208984375 88 15.1064453125 80 c 0
 13.9912109375 77.3076171875 12.5146484375 74.6162109375 10.7666015625 72 c 1024
EndSplineSet
Fore
SplineSet
-77.0572810932 98.6323068994 m 2
 -60.0124404574 125.178313702 -45.4344381465 138.030419555 -25.6493088867 150.396125342 c 0
 -10.2378792336 159.880082052 8.22881073142 168 29 168 c 0
 59.9273678959 168 76.3551559647 145.130324431 81.1806553028 127.2471569 c 0
 82.9901835627 120.827354653 83.9419561541 114.278708401 83.9419561541 107.398146102 c 0
 83.9419561541 96.3703985335 81.4970681835 84.4900339034 76.2202176309 70.9209896252 c 0
 72.0984505055 61.3035329993 67.7910568567 53.9199699795 62.9692070641 46.6871952906 c 0
 62.5277551838 46.0250174702 62.0572810932 45.3676931006 62.0572810932 45.3676931006 c 2
 45.0124404574 18.8216862977 30.4344381465 5.96958044538 10.6493088867 -6.39612534198 c 0
 -4.76212076645 -15.8800820516 -23.2288107314 -24 -44 -24 c 0
 -68.5811451689 -24 -84.6326760188 -8.40027942232 -91.466252584 5.266873708 c 0
 -95.7503586099 13.8350857597 -98.2116563172 23.9873981206 -98.2116563172 35.4063055001 c 0
 -98.2116563172 46.8603675736 -95.7351803872 59.5888354482 -90.13782393 73.2712623435 c 0
 -86.9637367056 80.6774658671 -83.7324998921 88.6678654674 -77.9692070641 97.3128047094 c 0
 -77.5277551838 97.9749825298 -77.0572810932 98.6323068994 -77.0572810932 98.6323068994 c 2
-37.0987564595 72.1471104457 m 2
 -41.4263524002 65.4099602938 -42.6038162524 62.3315772308 -45.86217607 54.7287376565 c 0
 -52.6846425067 38.0515974778 -49.9523461482 29.5703237564 -48.533747416 26.733126292 c 0
 -47.3673239812 24.4002794223 -47.4188548311 24 -44 24 c 0
 -36.7711892686 24 -25.2378792336 27.8800820516 -14.6493088867 34.396125342 c 0
 -1.6232106108 42.5374367644 10.7260869751 54.0107144857 20.7082663273 69.8158317933 c 0
 20.8779406815 70.0844828542 20.6984530884 69.8458840252 21.7064659629 71.2906333947 c 0
 28.0194798053 80.905337164 28.5704387195 81.808620633 31.791570604 89.106261899 c 0
 36.9314696031 102.785179819 36.2463402541 109.989747082 35.0121691547 114.103650746 c 0
 34.9368471735 114.354724017 34.8024854828 114.835523054 34.7165799965 115.179144999 c 0
 33.397351396 120.456059401 34.2922657369 120 29 120 c 0
 21.7711892686 120 10.2378792336 116.119917948 -0.350691113299 109.603874658 c 0
 -13.3767893892 101.462563236 -25.7260869751 89.9892855143 -35.7082663273 74.1841682067 c 0
 -36.0618410398 73.6243415785 -37.0987564595 72.1471104457 -37.0987564595 72.1471104457 c 2
81.9427189068 482.632306899 m 2
 98.9875595426 509.178313702 113.565561854 522.030419555 133.350691113 534.396125342 c 0
 148.762120766 543.880082052 167.228810731 552 188 552 c 0
 218.927367896 552 235.355155965 529.130324431 240.180655303 511.2471569 c 0
 241.990183563 504.827354653 242.941956154 498.278708401 242.941956154 491.398146102 c 0
 242.941956154 480.370398534 240.497068184 468.490033903 235.220217631 454.920989625 c 0
 231.098450506 445.303532999 226.791056857 437.919969979 221.969207064 430.687195291 c 0
 221.527755184 430.02501747 221.057281093 429.367693101 221.057281093 429.367693101 c 2
 204.012440457 402.821686298 189.434438146 389.969580445 169.649308887 377.603874658 c 0
 154.237879234 368.119917948 135.771189269 360 115 360 c 0
 84.0788117007 360 67.6273500479 382.934507804 62.840165605 400.67568139 c 0
 61.1072669088 406.922912798 60.2886981811 413.003309585 60.2886981811 419.143634833 c 0
 60.2886981811 431.017996911 63.3499071138 443.116474004 68.7797823691 457.079010375 c 0
 72.1420482245 464.924297371 75.1956716586 472.560122793 81.0307929359 481.312804709 c 0
 81.4722448162 481.97498253 81.9427189068 482.632306899 81.9427189068 482.632306899 c 2
121.901243541 456.147110446 m 2
 117.391485093 449.126371859 117.052191033 447.853723005 113.208158161 438.893131581 c 0
 107.675607865 424.268752514 108.164285925 416.641498987 108.987830845 413.896349254 c 0
 109.063152827 413.645275983 109.197514517 413.164476946 109.283420003 412.820855001 c 0
 110.602648604 407.543940599 109.707734263 408 115 408 c 0
 122.228810731 408 133.762120766 411.880082052 144.350691113 418.396125342 c 0
 157.376789389 426.537436764 169.726086975 438.010714486 179.708266327 453.815831793 c 0
 179.877940681 454.084482854 179.698453088 453.845884025 180.706465963 455.290633395 c 0
 187.019479805 464.905337164 187.57043872 465.808620633 190.791570604 473.106261899 c 0
 195.931469603 486.785179819 195.246340254 493.989747082 194.012169155 498.103650746 c 0
 193.936847173 498.354724017 193.802485483 498.835523054 193.716579997 499.179144999 c 0
 192.397351396 504.456059401 193.292265737 504 188 504 c 0
 180.771189269 504 169.237879234 500.119917948 158.649308887 493.603874658 c 0
 145.623210611 485.462563236 133.273913025 473.989285514 123.291733673 458.184168207 c 0
 122.93815896 457.624341578 121.901243541 456.147110446 121.901243541 456.147110446 c 2
EndSplineSet
EndChar

StartChar: semicolon
Encoding: 59 59 27
Width: 236
Flags: HW
LayerCount: 2
Back
SplineSet
8.93359375 96 m 0
 15.333984375 96 18.4208984375 88.0009765625 15.1064453125 79.9990234375 c 0
 8.4794921875 64 -10.94921875 48 -23.7490234375 48 c 0
 -30.1484375 48 -33.234375 56 -29.9208984375 64 c 0
 -23.2939453125 80 -3.8662109375 96 8.93359375 96 c 0
 15.333984375 96 24.8203125 88 14.87890625 64 c 0
 -1.689453125 24 -62.02734375 -56 -62.02734375 -56 c 1024
169.825195312 456 m 0
 161.1875 443.068359375 145.956054688 432 135.309570312 432 c 0
 128.91015625 432 125.823242188 440 129.13671875 448 c 0
 130.251953125 450.692382812 131.729492188 453.383789062 133.477539062 456 c 1024
133.477539062 456 m 0
 142.115234375 468.931640625 157.345703125 480 167.991210938 480 c 0
 174.391601562 480 177.478515625 472 174.165039062 464 c 0
 173.049804688 461.307617188 171.572265625 458.616210938 169.825195312 456 c 1024
EndSplineSet
Fore
SplineSet
81.9427189068 482.632306899 m 2
 98.9875595426 509.178313702 113.565561854 522.030419555 133.350691113 534.396125342 c 0
 148.762120766 543.880082052 167.228810731 552 188 552 c 0
 218.927367896 552 235.355155965 529.130324431 240.180655303 511.2471569 c 0
 241.990183563 504.827354653 242.941956154 498.278708401 242.941956154 491.398146102 c 0
 242.941956154 480.370398534 240.497068184 468.490033903 235.220217631 454.920989625 c 0
 231.098450506 445.303532999 226.791056857 437.919969979 221.969207064 430.687195291 c 0
 221.527755184 430.02501747 221.057281093 429.367693101 221.057281093 429.367693101 c 2
 204.012440457 402.821686298 189.434438146 389.969580445 169.649308887 377.603874658 c 0
 154.237879234 368.119917948 135.771189269 360 115 360 c 0
 84.0788117007 360 67.6273500479 382.934507804 62.840165605 400.67568139 c 0
 61.1072669088 406.922912798 60.2886981811 413.003309585 60.2886981811 419.143634833 c 0
 60.2886981811 431.017996911 63.3499071138 443.116474004 68.7797823691 457.079010375 c 0
 72.1420482245 464.924297371 75.1956716586 472.560122793 81.0307929359 481.312804709 c 0
 81.4722448162 481.97498253 81.9427189068 482.632306899 81.9427189068 482.632306899 c 2
121.901243541 456.147110446 m 2
 117.391485093 449.126371859 117.052191033 447.853723005 113.208158161 438.893131581 c 0
 107.675607865 424.268752514 108.164285925 416.641498987 108.987830845 413.896349254 c 0
 109.063152827 413.645275983 109.197514517 413.164476946 109.283420003 412.820855001 c 0
 110.602648604 407.543940599 109.707734263 408 115 408 c 0
 122.228810731 408 133.762120766 411.880082052 144.350691113 418.396125342 c 0
 157.376789389 426.537436764 169.726086975 438.010714486 179.708266327 453.815831793 c 0
 179.877940681 454.084482854 179.698453088 453.845884025 180.706465963 455.290633395 c 0
 187.019479805 464.905337164 187.57043872 465.808620633 190.791570604 473.106261899 c 0
 195.931469603 486.785179819 195.246340254 493.989747082 194.012169155 498.103650746 c 0
 193.936847173 498.354724017 193.802485483 498.835523054 193.716579997 499.179144999 c 0
 192.397351396 504.456059401 193.292265737 504 188 504 c 0
 180.771189269 504 169.237879234 500.119917948 158.649308887 493.603874658 c 0
 145.623210611 485.462563236 133.273913025 473.989285514 123.291733673 458.184168207 c 0
 122.93815896 457.624341578 121.901243541 456.147110446 121.901243541 456.147110446 c 2
75.3049046487 55.1364883561 m 0
 69.5718263391 40.2304847511 61.7336895481 26.9122312615 54.6560489064 14.7791330185 c 0
 44.9858713633 -1.33782955323 35.2945522051 -15.8128751754 26.0320678971 -30.221184099 c 0
 4.58866833978 -61.8757263026 -11.8361025917 -85.790763344 -15.2276266089 -89.9648380923 c 0
 -32.1929734717 -111.601538277 -54.9919994869 -128 -82 -128 c 0
 -88.3700265745 -128 -94.8101016678 -126.848235666 -100.801957611 -124.3276591 c 0
 -121.306414891 -115.702108849 -128.784299172 -97.4865335424 -128.784299172 -78.6930491136 c 0
 -128.784299172 -67.5746911453 -126.167047847 -56.2540656158 -122.081466795 -46.5972376746 c 0
 -118.716722911 -38.7461686116 -115.029010282 -31.2769001175 -109.969207064 -23.6871952906 c 0
 -109.662822517 -23.2276184706 -109.205944913 -22.6020779207 -108.954158307 -22.2779117349 c 2
 -108.954158307 -22.2779117349 -100.109101252 -10.8071385081 -90.4531395239 2.55163905219 c 1
 -94.250687471 9.90225761074 -94.7611291071 11.8026332033 -96.0331996005 16.2548799304 c 0
 -97.7893121958 22.1085885813 -98.6204262474 28.1729473261 -98.6204262474 34.4672686192 c 0
 -98.6204262474 46.4002777138 -95.6332368931 59.1598179863 -90.2985886787 72.8774848233 c 0
 -77.0517525055 105.392446339 -54.9276624138 128.379270449 -34.1224368934 143.405266659 c 0
 -17.6900014817 155.455719294 3.58124869822 168 29 168 c 0
 40.7152233936 168 50.2355497788 164.215040841 55.733126292 161.466252584 c 0
 56.1976505984 161.233990431 56.8360902066 160.881946358 57.1684830375 160.686421164 c 0
 77.0715992582 148.97870574 85.9867821667 128.442163276 85.9867821667 104.507112104 c 0
 85.9867821667 88.9857730734 82.2377436034 72.0352833081 75.3049046487 55.1364883561 c 0
30.6950953513 72.8635116439 m 0
 36.2290752985 86.3525877651 37.963131958 96.3031425021 37.963131958 103.442731336 c 0
 37.963131958 113.824454632 34.2965974292 118.262598468 33.315243667 118.99410555 c 0
 31.6624276566 119.717304053 31.014069873 120 29 120 c 0
 20.4187513018 120 7.69000148172 114.544280706 -5.87756310663 104.594733341 c 0
 -21.0723375862 93.6207295506 -36.9482474945 76.6075536606 -45.7014113213 55.1225151767 c 0
 -51.5528886197 40.0758592666 -50.8813840406 32.7937322065 -49.9668003995 29.7451200696 c 0
 -49.2442288687 27.2161197117 -48.1551073837 25.2216480198 -47.7740381859 24.7310062092 c 0
 -40.5413445368 19.6995465368 -36.0586109773 11.7332244669 -36.0586109773 3.50301591566 c 0
 -36.0586109773 -0.964484274083 -37.3794515633 -5.50973880056 -40.2982751571 -9.70554771677 c 0
 -54.7713026207 -30.5105246957 -67.343330113 -46.9235371696 -70.4879922105 -51.0011788352 c 0
 -73.1008786966 -55.1129063816 -75.4226402884 -59.5790121864 -77.9185332051 -65.4027623254 c 0
 -80.728082086 -72.0435142258 -81.1485972657 -77.2482143725 -80.8259237539 -79.9278045632 c 0
 -75.5564086073 -79.3022305217 -62.301491838 -72.5002255253 -53.0645879915 -60.4211974183 c 0
 -53.0536378675 -60.4068780255 -52.8797702567 -60.1787615648 -52.5817252689 -59.8099441252 c 0
 -50.1683189953 -56.5240858184 -32.6223999732 -31.2216870609 -14.0320678971 -3.77881590099 c 0
 -5.29455220514 9.81287517537 5.01412863668 25.3378295532 13.3439510936 39.2208669815 c 0
 20.2663104519 51.0877687385 26.4281736609 61.7695152489 30.6950953513 72.8635116439 c 0
EndSplineSet
EndChar

StartChar: less
Encoding: 60 60 28
Width: 512
Flags: HW
LayerCount: 2
Back
SplineSet
339.330078125 152 m 1
 83.2001953125 368 l 1025
518.26953125 584 m 1
 83.2001953125 368 l 1025
EndSplineSet
Fore
SplineSet
400.111247834 142.667629221 m 0
 386.378994768 110.209576521 354.489630842 80 319 80 c 0
 307.508350228 80 297.207186029 84.0946104784 289.6 89.8 c 0
 289.250167295 90.062374529 288.770816187 90.4479917193 288.523097459 90.6570043958 c 2
 32.286570382 306.856574117 l 2
 20.5078651424 317.32653433 15.9029730856 331.081361976 15.9029730856 345.250452337 c 0
 15.9029730856 356.055068291 18.5806253958 367.100569699 22.7968535892 377.114111659 c 0
 32.8704881276 402.298198005 53.3660305206 424.072568332 76.0247579194 433.842672412 c 2
 508.326488129 648.495956465 l 2
 508.708754147 648.685765227 509.255238426 648.934895688 509.545936834 649.05948072 c 0
 517.375752017 652.415115799 526.545468491 656 538 656 c 0
 544.290473693 656 550.620573568 654.878184681 556.515750329 652.477168981 c 0
 577.496214113 643.932145652 585.524427505 625.115370015 585.524427505 605.649361711 c 0
 585.524427505 594.990148455 583.11720962 584.136266171 579.111247834 574.667629221 c 0
 568.916065146 550.454070336 550.564729809 530.449549174 528.696158114 519.515263327 c 2
 212.43881917 362.745866086 l 1
 389.714228336 213.142715912 l 2
 401.565472825 202.608276366 406.676035353 188.386630128 406.676035353 173.390332137 c 0
 406.676035353 163.202552541 404.317406188 152.657255312 400.111247834 142.667629221 c 0
355.888752166 161.332370779 m 0
 360.016703366 171.136254879 358.34816357 176.320978877 357.922747584 177.163640995 c 2
 153.521464273 349.658382521 l 2
 152.66583465 350.380450447 149.708734435 353.496235025 148.399474133 355.686660323 c 0
 146.141475154 359.464349203 145.077988839 363.649782778 145.077988839 367.797264866 c 0
 145.077988839 376.650448844 149.923748233 385.330707441 158.34087351 389.503093323 c 2
 507.34087351 562.503093323 l 2
 517.397559183 567.53143616 529.09604428 579.574689549 534.880750997 593.313368001 c 0
 537.948077022 600.563411334 537.94979103 605.647181183 537.471004015 607.966831068 c 0
 536.517502911 607.84097941 534.305177924 607.398189897 529.054744082 605.196803178 c 2
 96.6735118706 390.504043535 l 2
 96.3168138741 390.326930211 95.6337369306 390.011854533 95.1379953261 389.807725637 c 0
 85.4331414267 385.811609325 73.1552570842 373.766165025 67.2031464108 358.885888341 c 0
 63.2620937368 349.525888241 63.8699317569 344.231530748 64.3659373935 342.592872447 c 2
 318.652705595 128.038411777 l 2
 318.706064571 128.014716179 319 128 319 128 c 2
 325.512981283 128 347.605918517 141.754763972 355.888752166 161.332370779 c 0
EndSplineSet
EndChar

StartChar: equal
Encoding: 61 61 29
Width: 512
Flags: HW
AnchorPoint: "middle" 256 368 basechar 0
LayerCount: 2
Back
SplineSet
33.494140625 248 m 1
 379.09375 248 l 1025
132.90625 488 m 1
 478.505859375 488 l 1025
EndSplineSet
Fore
SplineSet
113 416 m 2
 106.629973425 416 100.189898332 417.151764334 94.1980423895 419.6723409 c 0
 73.6872328019 428.300563358 66.2178039057 446.540648924 66.2178039057 465.329356527 c 0
 66.2178039057 476.435651735 68.8277528256 487.733645065 72.8967859744 497.35135978 c 0
 86.4088579527 529.288984456 117.210988368 560 153 560 c 2
 498 560 l 2
 504.290473693 560 510.620573568 558.878184681 516.515750329 556.477168981 c 0
 537.493566403 547.933224023 545.524963602 529.12611001 545.524963602 509.657929181 c 0
 545.524963602 498.993781562 543.115098913 488.131277226 539.103214026 478.64864022 c 0
 525.591142047 446.711015544 494.789011632 416 459 416 c 2
 113 416 l 2
114.182769947 464 m 2
 459 464 l 2
 465.210988368 464 486.408857953 477.288984456 494.896785974 497.35135978 c 0
 497.935970764 504.534887465 497.953901263 509.627267731 497.464157787 512 c 2
 153 512 l 2
 146.789011632 512 125.591142047 498.711015544 117.103214026 478.64864022 c 0
 114.235379835 471.870123041 113.838821571 466.85626387 114.182769947 464 c 2
14 176 m 2
 7.70952630714 176 1.37942643157 177.121815319 -4.5157503293 179.522831019 c 0
 -25.4935664033 188.066775977 -33.524963602 206.87388999 -33.524963602 226.342070819 c 0
 -33.524963602 237.006218438 -31.115098913 247.868722774 -27.1032140256 257.35135978 c 0
 -13.5911420473 289.288984456 17.2109883683 320 53 320 c 2
 399 320 l 2
 405.370026575 320 411.810101668 318.848235666 417.801957611 316.3276591 c 0
 438.312767198 307.699436642 445.782196094 289.459351076 445.782196094 270.670643473 c 0
 445.782196094 259.564348265 443.172247174 248.266354935 439.103214026 238.64864022 c 0
 425.591142047 206.711015544 394.789011632 176 359 176 c 2
 14 176 l 2
14.5358422133 224 m 2
 359 224 l 2
 365.210988368 224 386.408857953 237.288984456 394.896785974 257.35135978 c 0
 397.764620165 264.129876959 398.161178429 269.14373613 397.817230053 272 c 2
 53 272 l 2
 46.7890116317 272 25.5911420473 258.711015544 17.1032140256 238.64864022 c 0
 14.0640292357 231.465112535 14.0460987366 226.372732269 14.5358422133 224 c 2
EndSplineSet
EndChar

StartChar: greater
Encoding: 62 62 30
Width: 512
Flags: HW
LayerCount: 2
Back
SplineSet
-6.26953125 152 m 1
 428.799804688 368 l 1025
172.669921875 584 m 1
 428.799804688 368 l 1025
EndSplineSet
Fore
SplineSet
-26 80 m 0
 -32.2904736929 80 -38.6205735684 81.1218153186 -44.5157503293 83.5228310192 c 0
 -65.4962141128 92.0678543483 -73.5244275045 110.884629985 -73.5244275045 130.350638289 c 0
 -73.5244275045 141.009851545 -71.1172096203 151.863733829 -67.111247834 161.332370779 c 0
 -56.9160651455 185.545929664 -38.5647298087 205.550450826 -16.6961581136 216.484736673 c 2
 299.56118083 373.254133914 l 1
 122.285771664 522.857284088 l 2
 110.432913836 533.393157713 105.318320956 547.605569305 105.318320956 562.600478882 c 0
 105.318320956 572.785736572 107.678078645 583.332021166 111.888752166 593.332370779 c 0
 125.621005232 625.790423479 157.510369158 656 193 656 c 0
 204.491649772 656 214.792813971 651.905389522 222.4 646.2 c 0
 222.749832705 645.937625471 223.229183813 645.552008281 223.476902541 645.342995604 c 2
 479.713429618 429.143425883 l 2
 491.492134858 418.67346567 496.097026914 404.918638024 496.097026914 390.749547663 c 0
 496.097026914 379.944931709 493.419374604 368.899430301 489.203146411 358.885888341 c 0
 479.129511872 333.701801995 458.633969479 311.927431668 435.975242081 302.157327588 c 2
 3.67351187064 87.5040435349 l 2
 3.29124585256 87.3142347731 2.74476157407 87.0651043116 2.4540631659 86.9405192796 c 0
 -5.37575201713 83.5848842011 -14.5454684908 80 -26 80 c 0
-25.4710040154 128.033168932 m 0
 -24.5175029111 128.15902059 -22.3051779243 128.601810103 -17.0547440819 130.803196822 c 2
 415.326488129 345.495956465 l 2
 415.683186126 345.673069789 416.366263069 345.988145467 416.862004674 346.192274363 c 0
 426.566858573 350.188390675 438.844742916 362.233834975 444.796853589 377.114111659 c 0
 448.737906263 386.474111759 448.130068243 391.768469252 447.634062607 393.407127553 c 2
 193.347294405 607.961588223 l 2
 193.293935429 607.985283821 193 608 193 608 c 2
 186.487018717 608 164.386047674 594.226247026 156.103214026 574.64864022 c 0
 152.006488642 564.918917434 153.656426749 559.669928638 154.077252416 558.836359005 c 2
 358.478535727 386.341617479 l 2
 359.33416535 385.619549553 362.291265565 382.503764975 363.600525867 380.313339677 c 0
 365.858524846 376.535650797 366.922011161 372.350217222 366.922011161 368.202735134 c 0
 366.922011161 359.349551156 362.076251767 350.669292559 353.65912649 346.496906677 c 2
 4.65912648981 173.496906677 l 2
 -5.39755918288 168.46856384 -17.09604428 156.425310451 -22.8807509967 142.686631999 c 0
 -25.9480770221 135.436588666 -25.9497910302 130.352818817 -25.4710040154 128.033168932 c 0
EndSplineSet
EndChar

StartChar: question
Encoding: 63 63 31
Width: 512
Flags: HW
LayerCount: 2
Back
SplineSet
138.766601562 72 m 0
 130.12890625 59.068359375 114.897460938 48 104.250976562 48 c 0
 97.8515625 48 94.765625 56 98.0791015625 64 c 0
 99.1943359375 66.6923828125 100.671875 69.3837890625 102.418945312 72 c 1024
102.418945312 72 m 0
 111.056640625 84.931640625 126.288085938 96 136.93359375 96 c 0
 143.333984375 96 146.420898438 88 143.106445312 80 c 0
 141.991210938 77.3076171875 140.514648438 74.6162109375 138.766601562 72 c 1024
159.1875 536 m 0
 203.4375 642.828125 292.856445312 696 379.0625 696 c 0
 468.662109375 696 512.779296875 648 476.329101562 560 c 0
 447.4296875 490.232421875 406.512695312 459.178710938 343.196289062 424 c 0
 264.745117188 380.413085938 233.258789062 344 190.180664062 240 c 1024
EndSplineSet
Fore
SplineSet
50.9427189068 98.6323068994 m 2
 67.9875595426 125.178313702 82.5655618535 138.030419555 102.350691113 150.396125342 c 0
 117.762120766 159.880082052 136.228810731 168 157 168 c 0
 181.581145169 168 197.632676019 152.400279422 204.466252584 138.733126292 c 0
 208.767559486 130.130512488 211.67284226 119.314773637 211.67284226 106.796248442 c 0
 211.67284226 95.9428186033 209.489026078 83.8094540172 204.13782393 70.7287376565 c 0
 200.204235436 61.5503645031 195.719228407 53.8122273055 190.969207064 46.6871952906 c 0
 190.527755184 46.0250174702 190.057281093 45.3676931006 190.057281093 45.3676931006 c 2
 173.012440457 18.8216862977 158.434438146 5.96958044538 138.649308887 -6.39612534198 c 0
 123.237879234 -15.8800820516 104.771189269 -24 84 -24 c 0
 59.4188548311 -24 43.3673239812 -8.40027942232 36.533747416 5.266873708 c 0
 32.2496413901 13.8350857597 29.7883436828 23.9873981206 29.7883436828 35.4063055001 c 0
 29.7883436828 46.8603675736 32.2648196128 59.5888354482 37.86217607 73.2712623435 c 0
 41.0362632944 80.6774658671 44.2675001079 88.6678654674 50.0307929359 97.3128047094 c 0
 50.4722448162 97.9749825298 50.9427189068 98.6323068994 50.9427189068 98.6323068994 c 2
90.9012435405 72.1471104457 m 2
 86.5736475998 65.4099602938 85.3961837476 62.3315772308 82.13782393 54.7287376565 c 0
 75.3153574933 38.0515974778 78.0476538518 29.5703237564 79.466252584 26.733126292 c 0
 80.6326760188 24.4002794223 80.5811451689 24 84 24 c 0
 91.2288107314 24 102.762120766 27.8800820516 113.350691113 34.396125342 c 0
 126.376789389 42.5374367644 138.726086975 54.0107144857 148.708266327 69.8158317933 c 0
 148.877940681 70.0844828542 148.698453088 69.8458840252 149.706465963 71.2906333947 c 0
 155.959625936 80.8141798757 157.199707506 83.0588356945 159.86217607 89.2712623435 c 0
 166.338809003 105.103031735 163.503252614 113.327863311 161.533747416 117.266873708 c 0
 160.367323981 119.599720578 160.418854831 120 157 120 c 0
 149.771189269 120 138.237879234 116.119917948 127.649308887 109.603874658 c 0
 114.623210611 101.462563236 102.273913025 89.9892855143 92.2917336727 74.1841682067 c 0
 91.9381589602 73.6243415785 90.9012435405 72.1471104457 90.9012435405 72.1471104457 c 2
220.195488196 526.866742805 m 0
 206.305039883 494.034774064 174.517020885 464 139 464 c 0
 132.629973425 464 126.189898332 465.151764334 120.198042389 467.6723409 c 0
 99.6833677369 476.302189263 92.2190780829 494.557173283 92.2190780829 513.342971613 c 0
 92.2190780829 524.441930625 94.8245936219 535.726177856 98.8835885171 545.32016579 c 0
 134.861794957 631.032951722 192.271409407 690.984280822 250.807911195 725.672578177 c 0
 300.266230015 754.702460963 350.560670832 768 399 768 c 0
 472.173600599 768 530.505346014 739.664482807 549.793201066 680.515060646 c 0
 554.288666663 667.028663856 556.424303274 652.621763969 556.424303274 637.510684953 c 0
 556.424303274 610.450964629 549.575999576 581.133167014 537.16676495 550.799482372 c 0
 520.232996933 510.581783331 497.833720785 472.992924656 468.369751415 442.437697161 c 0
 433.024143954 404.949931672 393.946377372 381.175675321 356.489382122 360.928650862 c 0
 318.040470194 339.781749301 304.671222343 327.264347543 292.028727767 311.371410817 c 0
 281.787761176 297.587712274 268.761225053 273.808162624 251.158957856 230.780398364 c 0
 237.337109986 198.110576127 205.505143353 168 170 168 c 0
 163.629973425 168 157.189898332 169.151764334 151.198042389 171.6723409 c 0
 130.679763614 180.303705399 123.220262539 198.57257195 123.220262539 217.355655507 c 0
 123.220262539 228.447775927 125.821650653 239.719221747 129.871305619 249.291133486 c 0
 155.178869542 310.0292869 181.641408619 361.340487891 222.319145931 405.229625517 c 0
 254.333003893 440.444869276 290.196899881 465.345604687 329.341845137 486.978337592 c 0
 362.558176307 505.54040501 381.878214 519.062642476 391.326704242 529.23793966 c 0
 400.004454277 538.783464698 406.661467992 547.187523182 415.892772704 569.342654489 c 0
 420.823669339 580.848079971 422.314651636 588.206715158 422.314651636 593.373570833 c 0
 422.314651636 596.445127014 421.787741258 598.742112382 421.143363167 600.675246656 c 0
 418.226040645 610.156544851 400.682520038 624 359 624 c 0
 330.307942106 624 303.605660781 616.174827373 282.258422299 603.366484284 c 0
 268.061550383 595.015383157 256.23655326 584.029702835 244.834542247 570.122531313 c 0
 235.435025225 557.801364556 227.282476651 544.584213942 220.195488196 526.866742805 c 0
175.804511804 545.133257195 m 0
 184.800622852 567.623534815 195.640796861 584.89596264 207.171808565 599.886277855 c 0
 221.835998174 617.93451122 237.907029424 632.966134376 257.741577701 644.633515716 c 0
 286.394339219 661.825172627 321.692057894 672 359 672 c 0
 405.317479962 672 453.773959355 657.843455149 466.856636833 615.324753344 c 0
 469.087209196 608.633036256 470.159747947 601.513462705 470.159747947 594.052636125 c 0
 470.159747947 580.535946471 466.639447049 565.899191602 460.107227296 550.657345511 c 0
 449.338532008 524.812476818 437.995545723 509.216535302 426.673295758 496.76206034 c 0
 410.121786 478.937357524 387.441823693 464.45959499 352.658154863 445.021662408 c 0
 315.803100119 424.654395313 285.666996107 403.555130724 257.680854069 372.770374483 c 0
 222.358591381 334.659512109 198.821130458 289.9707131 174.128694381 230.708866514 c 0
 171.221826101 223.838086945 170.847041031 218.788006694 171.172329034 216.086704874 c 1
 179.501320277 217.24239994 199.304522005 231.406008579 206.841042144 249.219601636 c 0
 225.177479714 294.042004584 239.529205129 321.372273505 253.978484972 340.637979962 c 0
 271.397173151 362.701651656 291.927745393 380.200769271 333.510617878 403.071349138 c 0
 370.053622628 422.824324679 402.975856046 443.050068328 433.630248585 475.562302839 c 0
 458.166279215 501.007075344 477.767003067 533.418216669 492.83323505 569.200517628 c 0
 503.572872326 595.452964304 508.290155891 618.575539759 508.290155891 637.684847196 c 0
 508.290155891 648.220915875 506.856122467 657.536968755 504.206798934 665.484939354 c 0
 493.494653986 698.335517193 461.826399401 720 399 720 c 0
 359.439329168 720 317.733769985 709.297539037 275.192088805 684.327421823 c 0
 225.739362636 655.022102611 175.124361473 602.934068009 143.12952084 526.711065326 c 0
 140.220742742 519.83577164 139.846929587 514.78893216 140.172329034 512.086704874 c 1
 148.481615246 513.239665755 168.338173014 527.485547328 175.804511804 545.133257195 c 0
EndSplineSet
EndChar

StartChar: at
Encoding: 64 64 32
Width: 704
Flags: HW
LayerCount: 2
Back
SplineSet
476.932617188 444.380859375 m 0
 483.84765625 504.428710938 462.54296875 545.881835938 417.962890625 545.881835938 c 0
 356.2109375 545.881835938 273.1640625 466.2421875 232.470703125 368 c 0
 191.77734375 269.7578125 208.849609375 190.118164062 270.6015625 190.118164062 c 0
 315.168945312 190.118164062 370.827148438 231.599609375 413.653320312 291.619140625 c 1024
339.356445312 70.470703125 m 0
 297.6484375 50.9169921875 255.651367188 40 216.137695312 40 c 0
 71.2177734375 40 14.5654296875 186.850585938 89.599609375 368 c 0
 164.633789062 549.149414062 342.942382812 696 487.862304688 696 c 0
 632.782226562 696 689.434570312 549.149414062 614.400390625 368 c 0
 596.592773438 325.0078125 577.241210938 282.721679688 545.353515625 246.32421875 c 0
 520.046875 217.439453125 480.8125 200 455.211914062 200 c 0
 416.41015625 200 389.400390625 231.52734375 406.165039062 272 c 2
 516.979492188 539.529296875 l 1025
EndSplineSet
Fore
SplineSet
411.263500771 438.420715858 m 1
 412.452849026 473.728223217 400.591462945 474 398 474 c 0
 392.847481721 474 384.268255256 471.667759967 371.312804709 463.030792936 c 0
 346.767429755 446.667209633 313.464946665 406.776371914 293.103214026 358.64864022 c 0
 281.781869948 331.889099672 278.210943283 309.165571656 278.210943283 292.709095778 c 0
 278.210943283 279.539935286 280.49771829 270.384113499 282.929427802 266.384958941 c 0
 286.723249127 261.170371748 285.985461495 262 290 262 c 0
 299.722196187 262 330.641034899 276.757048406 359.999449115 315.007258169 c 1
 411.263500771 438.420715858 l 1
458.94180242 431.329641692 m 0
 458.793111395 429.198403663 458.142948223 426.150365053 457.16392119 423.793448121 c 2
 403.16392119 293.793448121 l 2
 402.578654155 292.384471927 401.397421013 290.208754637 400.253597311 288.671741536 c 0
 366.28309863 243.023883935 326.170832876 214 290 214 c 0
 269.903758903 214 253.640720466 224.519351508 243.102024364 239.574631655 c 0
 233.769392233 253.932527241 229.253738575 272.037873433 229.253738575 292.673484333 c 0
 229.253738575 317.866436746 235.984188492 346.830674822 248.896785974 377.35135978 c 0
 272.535053335 433.223628086 309.232570245 479.332790367 344.687195291 502.969207064 c 0
 361.731744744 514.332240033 379.152518279 522 398 522 c 0
 438.550454232 522 459.28851604 484.827490241 459.28851604 441.191850153 c 0
 459.28851604 437.936174221 459.173072988 434.644519832 458.94180242 431.329641692 c 0
358.471230159 94.9657354374 m 0
 357.586003438 94.8480321615 355.478801883 94.4065852113 351.491962885 92.4131657125 c 0
 312.565375717 74.0311662164 274.385513082 64 236 64 c 0
 134.43577553 64 75.6680642046 139.655189228 75.6680642046 239.138182096 c 0
 75.6680642046 281.803528201 85.6128095791 328.228462771 105.816628123 377.159585807 c 0
 150.793426616 486.087769657 236.066733898 579.948274109 328.059930103 631.252488113 c 0
 373.694600374 656.702749504 421.578402383 672 468 672 c 0
 524.835901591 672 571.037028378 647.918967001 598.601000072 606.47518544 c 0
 618.62206939 576.37252706 628.332013342 538.626302657 628.332013342 496.912124203 c 0
 628.332013342 454.252239426 618.358619852 407.702342881 598.215317925 358.917783527 c 0
 580.953635649 316.271274374 564.058808478 281.620995474 540.061840673 254.195889411 c 0
 539.81361346 253.912201168 539.329633301 253.388507804 538.970562748 253.029437252 c 0
 532.876647904 246.935522407 525.681580835 242.249044625 516.71997456 236.648040704 c 0
 516.435911198 236.470501103 515.889098245 236.146859218 515.492451136 235.93050625 c 0
 501.606522322 228.35636326 488.140928355 224 475 224 c 0
 461.074709273 224 449.092673281 228.760474276 439.687195291 235.030792936 c 0
 439.276276106 235.304739059 438.524681508 235.845258454 438.007318859 236.259148573 c 0
 427.70061777 244.504509444 423.761900988 254.819633191 422.231600847 259.410533616 c 0
 418.613888309 270.263671229 422.631159903 280.707857102 422.631159903 280.707857102 c 1
 532.846474416 549.232441552 l 2
 535.807342821 556.23085778 536.157474614 561.174493859 535.826593097 563.92224611 c 1
 532.447018565 563.488485782 523.585390001 559.644264504 514.970562748 551.029437252 c 0
 510.427465476 546.486339979 504.215699226 544.159643555 497.975874884 544.159643555 c 0
 491.336186268 544.159643555 484.664728264 546.79409634 479.938159327 552.195889411 c 0
 470.345652417 563.158754451 457.54007063 570 438 570 c 0
 417.670415996 570 393.61474787 561.933481271 368.485720595 546.588467944 c 0
 365.152853051 544.553255982 361.808400046 542.397981615 358.460355484 540.129951428 c 0
 301.136937811 501.297958811 247.453567674 433.698842002 216.145543622 358.749329879 c 0
 198.708077448 317.005092676 191.008407581 279.362474254 191.008407581 248.647028325 c 0
 191.008407581 223.75536701 196.065096316 203.413063746 205.093742172 189.123934676 c 0
 214.858090724 174.813467973 228.375615953 166 251 166 c 0
 279.430762077 166 315.057585748 182.403894253 349.884752998 210.642137969 c 0
 353.618255929 213.669302508 359.172231276 215.471830722 364.952112193 215.471830722 c 0
 373.214562239 215.471830722 381.938655921 211.788319619 386.466252584 202.733126292 c 0
 390.345423204 194.974785052 394.077790922 190.441656808 398.4 187.2 c 0
 398.665710307 187.00071727 399.160604265 186.610663528 399.502613795 186.321270849 c 0
 407.081938341 179.907996233 417.679715667 176 435 176 c 0
 452.006001728 176 473.099648998 181.5227771 495.353564399 193.984969725 c 0
 513.273368134 203.840861779 533.419785418 218.540328954 551.099833809 237.988382183 c 0
 590.918224207 283.362827055 612.985233606 333.572069654 630.786873051 377.087188297 c 0
 655.890375615 437.80263636 667.178656247 492.954950053 667.178656247 540.382491494 c 0
 667.178656247 624.609832589 631.576790736 684.47418061 574.526518685 707.868149813 c 0
 555.573122657 715.640157676 533.463981071 720 508 720 c 0
 356.395750928 720 156.556821808 560.487820836 73.1790011761 358.829836052 c 0
 48.1029888753 298.180876069 36.8248992557 243.064400819 36.8248992557 195.654183529 c 0
 36.8248992557 111.431500589 72.4166862438 51.5284942118 129.473481315 28.1318501868 c 0
 148.426877343 20.359842324 170.536018929 16 196 16 c 0
 236.392118347 16 279.97945064 27.3844212489 326.592591427 48.6305531067 c 0
 336.394370649 53.6987878398 350.46393382 67.4484272057 355.880750997 80.3133680014 c 0
 358.947909131 87.5630144999 358.949549444 92.6483516311 358.471230159 94.9657354374 c 0
289.967454186 546.947481802 m 1
 231.810868829 498.78139821 180.327769455 431.846377077 150.183371877 358.840414193 c 0
 131.95993686 314.705532511 123.667897011 274.23070543 123.667897011 239.02979195 c 0
 123.667897011 158.778460546 164.013841971 112 236 112 c 0
 265.614486918 112 297.434624283 119.968833784 330.508037115 135.586834288 c 0
 337.790870417 139.228250939 347.730212728 143 359 143 c 0
 365.290473693 143 371.620573568 141.878184681 377.515750329 139.477168981 c 0
 398.496214113 130.932145652 406.524427505 112.115370015 406.524427505 92.6493617114 c 0
 406.524427505 81.9901484547 404.11720962 71.136266171 400.111247834 61.6676292214 c 0
 389.498826079 36.4631275544 369.616362268 16.4753654039 347.369395963 5.35188225131 c 0
 296.368911678 -18.0233397123 245.824976925 -32 196 -32 c 0
 165.045680418 -32 136.569833324 -26.6569075553 111.262286197 -16.2793237718 c 0
 30.1798401258 16.9692511796 -10.7853242077 96.0000191549 -10.7853242077 194.8327731 c 0
 -10.7853242077 250.830191482 2.36537723521 313.184474524 28.8209988239 377.170163948 c 0
 117.443178192 591.512179164 327.604249072 768 508 768 c 0
 538.954319582 768 567.430166676 762.656907555 592.737713803 752.279323772 c 0
 673.824103875 719.029131548 714.783552993 639.978421394 714.783552993 541.148577166 c 0
 714.783552993 485.1602962 701.638203049 422.824184767 675.19614161 358.871291984 c 0
 657.035660439 314.479004678 633.06529279 258.618389988 586.900166191 206.011617817 c 0
 564.580214582 181.459671046 540.726631866 164.159138221 518.646435601 152.015030275 c 0
 490.900351002 136.4772229 461.993998272 128 435 128 c 0
 410.303278767 128 386.689454332 134.736549699 369.064649105 149.200812044 c 0
 364.583133643 152.690055411 362.227671602 155.013313041 359.497086664 157.837886248 c 0
 324.436525151 133.631612617 288.929356432 118 251 118 c 0
 213.490576249 118 183.315719407 135.259805584 164.9198606 162.853593795 c 0
 149.540002989 186.777816745 142.460526331 215.983547771 142.460526331 248.366280068 c 0
 142.460526331 287.872953329 152.997480622 332.108213008 171.854456378 377.250670121 c 0
 199.141947447 442.575269953 241.052483596 502.355922271 289.967454186 546.947481802 c 1
577.366608291 531.286705407 m 1
 471.208706286 272.647453249 l 2
 473.180426446 272.070412131 473.984526308 272 475 272 c 0
 475.619493595 272 484.976237273 274.085767915 491.915065653 277.749879049 c 0
 498.400325637 281.849580655 503.208721536 285.42811623 504.700979369 286.682518925 c 0
 522.718048762 307.692145672 537.279918903 336.305742753 553.784682075 377.082216473 c 0
 572.09094447 421.417695711 580.300780727 462.267534785 580.300780727 497.077169491 c 0
 580.300780727 509.256218245 579.295789428 520.695867011 577.366608291 531.286705407 c 1
525.149887688 610.781755827 m 1
 509.856030003 619.084733933 490.955899677 624 468 624 c 0
 450.786123939 624 432.49329383 621.218453251 413.604432983 615.772034714 c 1
 421.684400733 617.185682761 430.033114216 618 438 618 c 0
 461.387121845 618 482.915109614 610.61784955 498.749442441 599.49302555 c 1
 506.620449604 604.610759929 515.440514584 608.60437888 525.149887688 610.781755827 c 1
EndSplineSet
EndChar

StartChar: A
Encoding: 65 65 33
Width: 550
Flags: HW
HStem: -0 21G<66.2082 85.2224 465.178 484.192> 144 96<170.213 380.187> 716 20G<252.758 305.763>
LayerCount: 2
Back
SplineSet
45.4990234375 192 m 5
 359.098632812 192 l 1029
-55.7490234375 48 m 1
 385.348632812 688 l 1
 430.1484375 688 l 1
 341.05078125 48 l 1025
EndSplineSet
Fore
SplineSet
162.661645973 264 m 1
 306.09994706 264 l 1
 342.301042096 524.921100072 l 1
 162.661645973 264 l 1
117 216 m 2
 113.246404479 216 108.627113011 217.117313056 104.983021587 219.225202051 c 0
 97.330449096 223.651757662 93.0901582876 231.859114104 93.0901582876 240.174074625 c 0
 93.0901582876 244.834447123 94.4221960007 249.528622183 97.2320576354 253.609866078 c 2
 360.232057635 635.609866078 l 2
 364.864300632 642.338066932 373.066567619 646.454109121 381.422977916 645.957778149 c 0
 395.194295828 645.139827455 405.668172226 632.366444664 403.772285405 618.701750978 c 2
 350.772285405 236.701750978 l 2
 349.165084994 225.117778204 338.894178796 216 327 216 c 2
 117 216 l 2
-76 -24 m 0
 -82.3700265745 -24 -88.8101016678 -22.8482356662 -94.8019576105 -20.3276590997 c 0
 -115.339952868 -11.6880005258 -122.773320634 6.65663961135 -122.773320634 25.4248391983 c 0
 -122.773320634 36.4795884158 -120.194398775 47.681286736 -116.195488196 57.1332571955 c 0
 -113.796789399 63.1300041881 -110.226856704 70.2695206514 -106.579830217 76.3478981303 c 0
 -106.332905006 76.7594401483 -105.964599963 77.3244705778 -105.762579391 77.6176523613 c 2
 335.214969391 717.585070094 l 2
 351.460304548 741.328252247 377.393368711 760 405 760 c 2
 450 760 l 2
 460.761988181 760 471.605689017 756.572602608 480.151235906 749.580389204 c 0
 492.265564463 739.668095511 497.504521922 724.817461248 497.504521922 710.180361685 c 0
 497.504521922 706.915664965 497.243894263 703.661591169 496.740796464 700.475305111 c 2
 407.771251871 60.6943102867 l 2
 407.709055248 60.2470536704 407.599593934 59.6215013458 407.533936217 59.2932127567 c 0
 406.041040493 51.8287341385 403.812638956 45.4096197052 401.195488196 38.8667428045 c 0
 387.51000436 6.51923555502 356.819115824 -24 321 -24 c 0
 310.383776743 -24 299.505029259 -20.8676230049 290.820665616 -13.9147422601 c 0
 278.266841558 -3.86389165656 273.458492721 11.0407633262 273.458492721 25.341394023 c 0
 273.458492721 28.8121146269 273.741713356 32.2472570838 274.266167513 35.5688000751 c 2
 286.327767502 120 l 1
 63.6247317584 120 l 1
 -6.20778501079 18.4254301539 l 2
 -22.2081094466 -4.95965940609 -47.4785365192 -24 -76 -24 c 0
-74.824952964 24.0641336683 m 0
 -68.7732009739 24.7554399425 -55.0519515305 32.0411087473 -45.80737427 45.5524139742 c 2
 31.2229938192 157.596691749 l 2
 35.2493739965 163.453244734 42.9739904337 168 51 168 c 2
 314 168 l 2
 325.017648095 168 340.06776002 156.768692658 337.758787848 140.60588745 c 2
 321.733832487 28.4311999249 l 2
 321.381464547 26.1995363057 321.381986196 25.1525008369 321.466381231 24.0157167126 c 0
 328.079327307 24.4957523821 348.042230458 37.1405593327 356.805835748 57.1326843069 c 0
 358.079047814 60.3966917573 359.433145354 64.2605207411 360.336240931 68.0786716585 c 2
 449.259203536 707.524694889 l 2
 449.643685811 709.959749295 449.595840411 710.722522201 449.438300348 712 c 2
 405 712 l 2
 400.614672121 712 384.519105825 704.641655222 374.80737427 690.447586026 c 2
 -65.7801988131 51.0458894747 l 2
 -67.2816062226 48.4851749899 -70.363023651 42.4704631868 -71.8045118039 38.8667428045 c 0
 -74.8563785574 31.653239569 -75.1649037797 26.8872004463 -74.824952964 24.0641336683 c 0
EndSplineSet
EndChar

StartChar: B
Encoding: 66 66 34
Width: 556
Flags: HW
AnchorPoint: "above" 451 784 basechar 0
LayerCount: 2
Back
SplineSet
136.284179688 388 m 1
 328.284179688 388 l 2
 405.083984375 388 485.279296875 458 518.416015625 538 c 0
 551.553710938 618 529.348632812 688 452.548828125 688 c 2
 247.749023438 688 l 1
 -17.3486328125 48 l 1
 200.250976562 48 l 2
 283.451171875 48 365.530273438 138 398.66796875 218 c 0
 431.8046875 298 424.284179688 388 341.083984375 388 c 1024
EndSplineSet
Fore
SplineSet
266 664 m 2
 433 664 l 2
 465.638180999 664 491.151123413 649.733317846 503.9765161 626.675640376 c 0
 511.426473582 613.280409588 514.525485652 599.063449961 514.525485652 584.526171312 c 0
 514.525485652 566.220515678 509.611570945 547.406949677 502.283440581 529.086623768 c 0
 488.295486765 494.116739227 462.77138563 463.261411613 433.055469523 441.545934458 c 0
 408.98568428 424.353230713 380.402001391 412 348 412 c 2
 182 412 l 2
 168.822576046 412 158.001668106 423.067208887 158.001668106 436.044917584 c 0
 158.001668106 439.522703584 158.659883803 442.350379445 159.807725637 445.137995326 c 2
 243.807725637 649.137995326 l 2
 247.580172988 658.299653179 257.143305607 664 266 664 c 2
282.07262538 616 m 1
 217.837331262 460 l 1
 348 460 l 2
 367.597998609 460 387.01431572 467.646769287 404.944530477 480.454065542 c 0
 427.22861437 496.738588387 447.704513235 521.883260773 457.716559419 546.913376232 c 0
 463.697795641 561.866466787 466.093278513 574.57275522 466.093278513 584.581446973 c 0
 466.093278513 592.678283597 464.525556002 599.009679487 462.020284063 603.336967382 c 0
 458.39357418 610.137048413 452.704317978 616 433 616 c 2
 282.07262538 616 l 1
18.8247033796 105.179118683 m 2
 119.82470338 349.179118683 l 2
 123.612314323 358.329386704 133.191411104 364 142 364 c 2
 308 364 l 1
 317 364 l 1
 321 364 l 2
 350.057246468 364 373.056516718 350.701172901 385.439799601 330.578338216 c 0
 385.648772045 330.238757995 385.928082421 329.751705239 386.06949375 329.492451136 c 0
 394.352502353 314.306935365 398 296.764947438 398 277 c 0
 398 276.599171975 397.982431563 276.035057526 397.966827904 275.738588005 c 0
 396.797571481 253.522715961 391.175157157 230.194413864 382.119249003 208.686631999 c 0
 373.282957783 187.70044035 360.192639421 164.845444268 343.952017077 144.2739893 c 0
 329.262492084 125.064610463 312.545987578 110.63867051 295.876279749 98.4142181024 c 0
 273.814163954 83.3190862427 248.842401685 72 220 72 c 2
 41 72 l 2
 27.8225760459 72 17.0016681057 83.0672088866 17.0016681057 96.0449175837 c 0
 17.0016681057 99.5485165299 17.6396869079 102.316306613 18.8247033796 105.179118683 c 2
76.9092760753 120 m 1
 220 120 l 2
 235.294867905 120 250.905377686 125.947972238 268.12120126 137.583749009 c 0
 281.440481216 147.412307748 294.72345922 158.917018166 306.047982923 173.7260107 c 0
 319.807360579 191.154555732 330.717042217 210.29955965 337.880750997 227.313368001 c 0
 344.74579069 243.617837273 349.051694717 261.671905828 349.99879793 277.638292444 c 0
 349.895482404 290.088614215 347.953048551 298.671895601 344.250772034 305.913699668 c 0
 340.694517768 311.266609028 335.768227662 316 321 316 c 2
 317 316 l 1
 308 316 l 1
 158.040423616 316 l 1
 76.9092760753 120 l 1
414.813850296 227.152869498 m 0
 429.96078593 263.798681516 435.912547883 296.047849685 435.912547883 322.514796388 c 0
 435.912547883 347.076538839 430.786812128 366.658556035 423.127538034 380.153467533 c 0
 421.058206897 383.799431917 420.078296489 387.825369721 420.078296489 391.820818596 c 0
 420.078296489 399.172014675 423.395493218 406.419999505 429.347811352 411.008244733 c 0
 474.019646021 445.442783957 513.652691681 495.630112063 534.784154241 547.080629601 c 0
 546.883654485 576.825234367 552.322882234 604.277132423 552.322882234 627.581291894 c 0
 552.322882234 647.54139461 548.332670876 664.458720965 541.11946754 677.167698272 c 0
 528.707117359 699.071845649 508.302672707 712 472 712 c 2
 268 712 l 2
 261.479495155 712 239.367215376 699.6622546 231.258014908 679.020653409 c 2
 -33.8609208929 38.7334122305 l 2
 -37.056827995 31.1794499894 -36.8593215981 25.9145082509 -36.4641577867 24 c 2
 180 24 l 2
 212.508693955 24 250.237306954 37.7700056772 284.21909436 61.64909953 c 0
 311.590536135 80.8091087723 336.409694225 106.476759719 358.270810431 133.009599146 c 0
 382.929849181 164.693681465 401.815446503 195.585317431 414.813850296 227.152869498 c 0
459.186149704 208.847130502 m 0
 444.045477821 172.076927357 422.205731834 136.879770979 395.731811064 102.993152393 c 0
 371.529884815 73.5299378294 344.451331844 45.2201988127 311.763096265 22.3384339075 c 0
 271.781478705 -5.75675680976 225.4831532 -24 180 -24 c 2
 -37 -24 l 2
 -47.689027827 -24 -58.4094039868 -20.6046966475 -66.8044616004 -13.8251506771 c 0
 -79.6058642192 -3.48719928526 -84.7189969282 12.0412152829 -84.7189969282 26.7324225222 c 0
 -84.7189969282 37.1763472656 -82.3539841922 47.3040848411 -78.1390791071 57.2665877695 c 2
 186.741985092 696.979346591 l 2
 200.632784624 732.3377454 234.520504845 760 268 760 c 2
 472 760 l 2
 521.697327293 760 561.292882641 738.928154351 582.88053246 700.832301728 c 0
 595.032655308 679.421418615 600.62583779 654.550696457 600.62583779 627.81694269 c 0
 600.62583779 596.559666566 592.979713382 562.755544973 579.231089623 528.956844899 c 0
 556.732087161 474.176664993 519.080352868 424.220880288 473.575055548 385.129235157 c 1
 480.291823265 367.160407671 483.936804567 346.127990263 483.936804567 322.77905721 c 0
 483.936804567 288.914857473 476.269497458 250.177810552 459.186149704 208.847130502 c 0
EndSplineSet
EndChar

StartChar: C
Encoding: 67 67 35
Width: 547
Flags: HW
AnchorPoint: "bottom" 159 40 basechar 0
AnchorPoint: "above" 467 784 basechar 0
LayerCount: 2
Back
SplineSet
381.612304688 200 m 0
 371.670898438 176 267.337890625 40 158.538085938 40 c 0
 49.7373046875 40 20.9658203125 186.850585938 96 368 c 0
 171.034179688 549.149414062 320.688476562 696 430.262695312 696 c 0
 539.0625 696 524.556640625 576 524.556640625 576 c 1024
EndSplineSet
Fore
SplineSet
322.56132126 213.093079566 m 0
 337.061279445 243.043551699 367.125661423 272 401 272 c 0
 407.290473693 272 413.620573568 270.878184681 419.515750329 268.477168981 c 0
 440.453297042 259.949625121 448.533289619 241.289937665 448.533289619 221.788846281 c 0
 448.533289619 211.049512508 446.082828549 200.05500182 441.979830468 190.357006356 c 0
 435.930921224 177.049406019 431.42348351 170.394464183 426.164941283 161.980796619 c 0
 419.55164236 152.060848234 412.209895854 141.57830719 402.697247667 129.951737183 c 0
 383.224127778 105.354112061 355.765922851 74.7081105427 321.261905422 46.4775508287 c 0
 272.358065009 5.8977683584 207.940167828 -32 139 -32 c 0
 85.0640251848 -32 42.612205634 -6.13878901355 17.5808480634 34.3881708627 c 0
 -3.49517611431 68.5112576265 -13.4460181412 111.685939339 -13.4460181412 160.648162827 c 0
 -13.4460181412 225.246952769 3.87551518487 299.920176359 35.8215650305 377.171533258 c 0
 92.4582619944 514.129364098 187.53449013 637.398914885 290.318042843 708.718114726 c 0
 341.708376013 744.376713253 396.771669475 768 450 768 c 0
 500.062526943 768 537.21874924 748.773149838 559.821023899 719.89246555 c 0
 579.696871921 695.047655524 586.505344798 666.087688679 589.717089236 644.676059086 c 0
 591.527306506 633.362201149 592.061658195 622.734820411 592.061658195 614.002501474 c 0
 592.061658195 602.827725867 591.186582484 594.756379308 590.990416542 592.321284103 c 0
 590.950699265 590.971567441 590.722952908 589.238296215 590.533936217 588.293212757 c 0
 589.64638025 583.855432924 588.5139956 576.647322956 585.768399153 568.410533616 c 0
 585.578917321 567.842088119 585.276926942 567.059234385 585.103214026 566.64864022 c 0
 571.591142047 534.711015544 540.789011632 504 505 504 c 0
 495.505764747 504 485.920304681 506.670720017 477.991333264 512.18355794 c 0
 463.025370716 522.589059682 457.793992828 540.076479429 457.793992828 555.054877404 c 0
 457.793992828 556.959382373 457.878569303 558.823323609 458.038465214 560.626985448 c 0
 458.143462332 563.844622144 458.310407567 578.468632461 455.61544271 590.595974318 c 0
 451.247364217 608.79630137 444.459186922 624 410 624 c 0
 390.106185145 624 363.346816743 614.654299629 332.723023881 593.310443998 c 0
 271.572767914 550.690568627 199.45996467 462.703915208 156.153846154 358.769230769 c 0
 131.754580249 300.210992599 122.12861419 248.259591501 122.12861419 207.705657675 c 0
 122.12861419 175.795237497 128.088574879 150.941611045 137.500765335 135.478726725 c 0
 147.77178209 118.604913486 159.294266246 112 178 112 c 0
 212.913482657 112 252.582615048 138.48178352 285.15607619 170.097201687 c 0
 301.881296574 186.822422071 317.482550953 205.787894767 322.56132126 213.093079566 c 0
366.807655054 194.307732745 m 0
 365.936445182 192.255806124 365.913466179 192.161300899 365.466252584 191.266873708 c 2
 364.466252584 189.266873708 l 2
 363.68063871 187.695645959 361.797649901 185.063639026 359.974095828 182.895414777 c 0
 351.640681634 171.445198733 337.012505801 154.071380305 318.84392381 135.902798313 c 0
 283.417384952 101.51821648 235.086517343 64 178 64 c 0
 142.705733754 64 114.22821791 81.3950865145 96.4992346653 110.521273275 c 0
 81.2140483529 135.632650788 73.3721813681 168.845216544 73.3721813681 207.692925759 c 0
 73.3721813681 256.84852006 85.9276967732 315.026472256 111.846153846 377.230769231 c 0
 158.54003533 489.296084792 234.427232086 583.309431373 305.276976119 632.689556002 c 0
 340.653183257 657.345700371 375.893814855 672 410 672 c 0
 469.540813078 672 494.752635783 633.20369863 502.38455729 601.404025682 c 0
 505.581072764 587.019706051 506.152713707 574.130204158 506.152713707 566.078312518 c 0
 506.152713707 562.550348057 506.042970945 559.951100683 505.996195307 558.561752879 c 0
 505.98124662 557.891866405 505.933698558 557.074043709 505.853209632 556.349643374 c 0
 505.640937372 554.439193031 505.712834506 553.090287178 505.878353836 552.051858672 c 0
 513.350617126 552.938930409 531.841612917 565.345821006 540.517508784 584.471960364 c 0
 541.370457811 587.34278102 542.194275634 591.180338605 543.132095764 596.010272311 c 0
 543.398238389 599.314019248 544.105896153 605.666424096 544.105896153 614.14204195 c 0
 544.105896153 620.731078306 543.678210828 628.603315513 542.282910764 637.323940914 c 0
 539.494655202 655.912311321 534.303128079 674.952344476 522.178976101 690.10753445 c 0
 508.78125076 707.226850162 487.937473057 720 450 720 c 0
 411.228330525 720 364.291623987 701.623286747 317.681957157 669.281885274 c 0
 224.46550987 604.601085115 133.541738006 487.870635902 80.1784349695 358.828466742 c 0
 49.4684450231 284.566127417 35.2873709111 216.170539773 35.2873709111 160.55882098 c 0
 35.2873709111 118.672256149 43.3323696472 84.0380480821 58.4191519366 59.6118291373 c 0
 75.387794366 32.1387890135 100.935974815 16 139 16 c 0
 190.059832172 16 245.641934991 46.1022316416 290.738094578 83.5224491713 c 0
 322.234077149 109.291889457 346.775872222 136.645887939 365.302752333 160.048262817 c 0
 373.909412042 170.567513572 379.484527 178.522711036 385.829702312 188.011002505 c 0
 390.771491797 195.894089871 393.262674647 199.362240288 398.012528171 209.622464494 c 0
 400.725608632 216.320642297 400.941747192 221.686152347 400.467895197 223.98189282 c 0
 393.636910577 223.327055018 375.744658211 212.203056536 366.807655054 194.307732745 c 0
EndSplineSet
EndChar

StartChar: D
Encoding: 68 68 36
Width: 556
Flags: HW
AnchorPoint: "above" 451 784 basechar 0
LayerCount: 2
Back
SplineSet
-17.3486328125 48 m 1
 247.749023438 688 l 1
 414.1484375 688 l 2
 465.348632812 688 566.838867188 624 460.799804688 368 c 0
 354.752929688 111.98046875 200.250976562 48 149.05078125 48 c 2
 -17.3486328125 48 l 1
EndSplineSet
Fore
SplineSet
186.882273708 697.318156832 m 2
 201.827937027 732.191371244 234.11335799 760 268 760 c 2
 434 760 l 2
 462.596362507 760 493.244873745 750.000027628 519.783343261 727.080440319 c 0
 541.207019777 708.177196335 558.362463572 679.622398845 567.292944581 642.784164682 c 0
 572.0827856 623.944123339 574.627633049 603.028592126 574.627633049 579.866745062 c 0
 574.627633049 521.406274725 558.415506527 448.635494034 521.169810726 358.807639455 c 0
 468.988725398 232.959139548 403.046684433 142.956082561 337.434868898 81.5100965843 c 0
 301.083487552 47.2359370289 265.350584683 21.8424766117 232.733126292 5.533747416 c 0
 192.379740113 -14.6429456737 157.360845714 -24 129 -24 c 2
 -37 -24 l 2
 -43.2904736929 -24 -49.6205735684 -22.8781846814 -55.5157503293 -20.4771689808 c 0
 -76.5054111168 -11.9283998521 -84.5225760868 6.92190601487 -84.5225760868 26.3803596001 c 0
 -84.5225760868 37.0224417576 -82.1245307504 47.8464293399 -78.1390791071 57.2665877695 c 2
 186.882273708 697.318156832 l 2
231.117726292 678.681843168 m 2
 -33.8609208929 38.7334122305 l 2
 -36.9742849757 31.3745516714 -36.9610678137 26.4074531094 -36.4641577867 24 c 2
 129 24 l 2
 146.639154286 24 175.620259887 30.6429456737 211.266873708 48.466252584 c 0
 238.628263413 62.1469474363 270.953586167 84.799018192 304.535691151 116.462145748 c 0
 364.987858571 173.076080316 427.003651602 257.022475572 476.830189274 377.192360545 c 0
 512.772389497 463.876490493 526.493941105 530.535457871 526.493941105 580.336021521 c 0
 526.493941105 599.810925123 524.395555297 616.707735799 520.707055419 631.215835318 c 0
 513.637536428 660.377601155 500.792980223 679.822803665 488.216656739 690.919559681 c 0
 470.755126255 705.999972372 451.403637493 712 434 712 c 2
 268 712 l 2
 261.88664201 712 240.172062973 699.808628756 231.117726292 678.681843168 c 2
282.045337557 616 m 1
 76.8982787336 120 l 1
 169 120 l 2
 170.971354051 120 188.377858679 122.624361579 209.91506245 134.290346955 c 0
 228.443754972 143.554693216 247.927865549 156.741517945 270.829412025 177.734602216 c 0
 310.93796063 214.112123043 357.899953812 274.805180555 399.790243947 377.095423908 c 0
 430.411139875 451.867379082 440.293514793 503.272787536 440.293514793 537.949708102 c 0
 440.293514793 551.006229086 438.892524194 561.691209376 436.670020421 570.35897409 c 0
 432.707947186 587.792096324 425.092795984 597.753308202 416.76206034 605.326704242 c 0
 407.843728018 613.608012827 395.692399915 616 394 616 c 2
 282.045337557 616 l 1
243.822106309 649.17284206 m 2
 247.191568449 657.319452744 256.096067149 664 266 664 c 2
 394 664 l 2
 408.307600085 664 430.156271982 658.391987173 449.23793966 640.673295758 c 0
 462.907204016 628.246691798 477.292052814 608.207903676 483.329979579 581.64102591 c 0
 486.614504511 568.831378674 488.443883538 554.259133738 488.443883538 537.613505198 c 0
 488.443883538 494.079243439 475.930761892 436.362846165 444.209756053 358.904576092 c 0
 400.100046188 251.194819445 349.06203937 183.887876957 303.170587975 142.265397784 c 0
 278.072134451 119.258482055 253.556245028 102.445306784 232.08493755 91.709653045 c 0
 205.622141321 77.3756384211 183.028645949 72 169 72 c 2
 41 72 l 2
 38.9078199273 72 35.9589359946 72.4042076972 33.5954462002 73.1707953922 c 0
 23.4787456726 76.4521034631 17.0464783649 86.1174572023 17.0464783649 96.2144913788 c 0
 17.0464783649 99.2145431531 17.6143287586 102.252704337 18.8221063094 105.17284206 c 2
 243.822106309 649.17284206 l 2
EndSplineSet
EndChar

StartChar: E
Encoding: 69 69 37
Width: 556
Flags: HW
AnchorPoint: "above" 451 784 basechar 0
AnchorPoint: "bottom" 146 48 basechar 0
LayerCount: 2
Back
SplineSet
125.083984375 388 m 1
 353.883789062 388 l 1025
580.548828125 688 m 1
 247.749023438 688 l 1
 -17.3486328125 48 l 1
 328.250976562 48 l 1025
EndSplineSet
Fore
SplineSet
186.882273708 697.318156832 m 2
 201.827937027 732.191371244 234.11335799 760 268 760 c 2
 600 760 l 2
 606.290473693 760 612.620573568 758.878184681 618.515750329 756.477168981 c 0
 639.493566403 747.933224023 647.524963602 729.12611001 647.524963602 709.657929181 c 0
 647.524963602 698.993781562 645.115098913 688.131277226 641.103214026 678.64864022 c 0
 627.591142047 646.711015544 596.789011632 616 561 616 c 2
 282.07262538 616 l 1
 217.837331262 460 l 1
 374 460 l 2
 380.370026575 460 386.810101668 458.848235666 392.801957611 456.3276591 c 0
 413.312767198 447.699436642 420.782196094 429.459351076 420.782196094 410.670643473 c 0
 420.782196094 399.564348265 418.172247174 388.266354935 414.103214026 378.64864022 c 0
 400.591142047 346.711015544 369.789011632 316 334 316 c 2
 158.040423616 316 l 1
 76.9092760753 120 l 1
 348 120 l 2
 354.290473693 120 360.620573568 118.878184681 366.515750329 116.477168981 c 0
 387.493566403 107.933224023 395.524963602 89.1261100102 395.524963602 69.6579291809 c 0
 395.524963602 58.9937815619 393.115098913 48.1312772264 389.103214026 38.6486402199 c 0
 375.386047674 6.22624702625 343.487018717 -24 308 -24 c 2
 -37 -24 l 2
 -43.2904736929 -24 -49.6205735684 -22.8781846814 -55.5157503293 -20.4771689808 c 0
 -76.5054111168 -11.9283998521 -84.5225760868 6.92190601487 -84.5225760868 26.3803596001 c 0
 -84.5225760868 37.0224417576 -82.1245307504 47.8464293399 -78.1390791071 57.2665877695 c 2
 186.882273708 697.318156832 l 2
231.117726292 678.681843168 m 2
 -33.8609208929 38.7334122305 l 2
 -36.9742849757 31.3745516714 -36.9610678137 26.4074531094 -36.4641577867 24 c 2
 308 24 l 2
 314.512981283 24 336.613952326 37.7737529737 344.896785974 57.3513597801 c 0
 347.935970764 64.5348874653 347.953901263 69.627267731 347.464157787 72 c 2
 41 72 l 2
 38.8919637031 72 35.9552469853 72.4046649782 33.5889851659 73.1728920113 c 0
 23.4754609524 76.4563336986 17.0465390794 86.1199423629 17.0465390794 96.2145418578 c 0
 17.0465390794 99.2167796767 17.6151957593 102.257139877 18.8247033796 105.179118683 c 2
 119.82470338 349.179118683 l 2
 123.193665167 357.317996665 132.096798421 364 142 364 c 2
 334 364 l 2
 340.210988368 364 361.408857953 377.288984456 369.896785974 397.35135978 c 0
 372.764620165 404.129876959 373.161178429 409.14373613 372.817230053 412 c 2
 182 412 l 2
 179.995863772 412 176.979335252 412.40169643 174.631313784 413.159193021 c 0
 164.49699523 416.428631509 158.04614168 426.103657294 158.04614168 436.21420629 c 0
 158.04614168 439.202128073 158.609527815 442.228086332 159.807725637 445.137995326 c 2
 243.807725637 649.137995326 l 2
 247.179910302 657.327586656 256.092057044 664 266 664 c 2
 561 664 l 2
 567.210988368 664 588.408857953 677.288984456 596.896785974 697.35135978 c 0
 599.935970764 704.534887465 599.953901263 709.627267731 599.464157787 712 c 2
 268 712 l 2
 261.88664201 712 240.172062973 699.808628756 231.117726292 678.681843168 c 2
EndSplineSet
EndChar

StartChar: F
Encoding: 70 70 38
Width: 531
Flags: HW
AnchorPoint: "above" 438 784 basechar 0
LayerCount: 2
Back
SplineSet
-17.3486328125 48 m 1
 247.749023438 688 l 1
 567.749023438 688 l 1025
125.083984375 388 m 1
 360.284179688 388 l 1025
EndSplineSet
Fore
SplineSet
186.882273708 697.318156832 m 2
 201.827937027 732.191371244 234.11335799 760 268 760 c 2
 588 760 l 2
 594.370026575 760 600.810101668 758.848235666 606.801957611 756.3276591 c 0
 627.312767198 747.699436642 634.782196094 729.459351076 634.782196094 710.670643473 c 0
 634.782196094 699.564348265 632.172247174 688.266354935 628.103214026 678.64864022 c 0
 614.591142047 646.711015544 583.789011632 616 548 616 c 2
 282.07262538 616 l 1
 217.837331262 460 l 1
 380 460 l 2
 386.290473693 460 392.620573568 458.878184681 398.515750329 456.477168981 c 0
 419.493566403 447.933224023 427.524963602 429.12611001 427.524963602 409.657929181 c 0
 427.524963602 398.993781562 425.115098913 388.131277226 421.103214026 378.64864022 c 0
 407.386047674 346.226247026 375.487018717 316 340 316 c 2
 158.033768943 316 l 1
 43.1377977589 38.7303835895 l 2
 29.5607321923 6.63913770468 -1.19970552125 -24 -37 -24 c 0
 -43.2904736929 -24 -49.6205735684 -22.8781846814 -55.5157503293 -20.4771689808 c 0
 -76.5054111168 -11.9283998521 -84.5225760868 6.92190601487 -84.5225760868 26.3803596001 c 0
 -84.5225760868 37.0224417576 -82.1245307504 47.8464293399 -78.1390791071 57.2665877695 c 2
 186.882273708 697.318156832 l 2
231.117726292 678.681843168 m 2
 -33.8609208929 38.7334122305 l 2
 -36.9715102808 31.3811100411 -36.957075186 26.3881094387 -36.4678951967 24.01810718 c 0
 -29.240740687 24.7109229652 -9.15569982876 38.3182115182 -1.13779775893 57.2696164105 c 2
 119.828224062 349.187619481 l 2
 123.196503348 357.316028999 132.097793189 364 142 364 c 2
 340 364 l 2
 346.512981283 364 368.613952326 377.773752974 376.896785974 397.35135978 c 0
 379.935970764 404.534887465 379.953901263 409.627267731 379.464157787 412 c 2
 182 412 l 2
 179.995863772 412 176.979335252 412.40169643 174.631313784 413.159193021 c 0
 164.49699523 416.428631509 158.04614168 426.103657294 158.04614168 436.21420629 c 0
 158.04614168 439.202128073 158.609527815 442.228086332 159.807725637 445.137995326 c 2
 243.807725637 649.137995326 l 2
 247.179910302 657.327586656 256.092057044 664 266 664 c 2
 548 664 l 2
 554.210988368 664 575.408857953 677.288984456 583.896785974 697.35135978 c 0
 586.764620165 704.129876959 587.161178429 709.14373613 586.817230053 712 c 2
 268 712 l 2
 261.88664201 712 240.172062973 699.808628756 231.117726292 678.681843168 c 2
EndSplineSet
EndChar

StartChar: G
Encoding: 71 71 39
Width: 537
Flags: HW
AnchorPoint: "above" 467 784 basechar 0
LayerCount: 2
Back
SplineSet
524.556640625 576 m 0
 524.556640625 576 539.0625 696 430.262695312 696 c 0
 320.688476562 696 171.034179688 549.149414062 96 368 c 0
 20.9658203125 186.850585938 49.7373046875 40 158.538085938 40 c 0
 260.9375 40 352.129882812 152 352.129882812 152 c 1
 431.658203125 344 l 1
 297.258789062 344 l 1025
EndSplineSet
Fore
SplineSet
452 416 m 2
 458.09821525 416 464.248043347 415.005934179 470.045090766 412.752070316 c 0
 491.811066988 404.289564542 498.82065054 385.766560953 498.82065054 367.392075252 c 0
 498.82065054 355.56522718 495.916628766 343.799909038 492.174366473 334.818479535 c 2
 413.128244778 142.706386301 l 2
 408.413405224 131.705094009 402.794134089 124.420626443 397.367419227 116.823225636 c 0
 392.226426672 109.968568896 344.76238458 50.9654996123 268.954621347 7.18918563259 c 0
 231.774371759 -14.0566712747 187.130228949 -32 139 -32 c 0
 85.0640251848 -32 42.612205634 -6.13878901355 17.5808480634 34.3881708627 c 0
 -3.49517611431 68.5112576265 -13.4460181412 111.685939339 -13.4460181412 160.648162827 c 0
 -13.4460181412 225.246952769 3.87551518487 299.920176359 35.8215650305 377.171533258 c 0
 92.4582619944 514.129364098 187.53449013 637.398914885 290.318042843 708.718114726 c 0
 341.708376013 744.376713253 396.771669475 768 450 768 c 0
 500.062526943 768 537.21874924 748.773149838 559.821023899 719.89246555 c 0
 579.696871921 695.047655524 586.505344798 666.087688679 589.717089236 644.676059086 c 0
 591.527306506 633.362201149 592.061658195 622.734820411 592.061658195 614.002501474 c 0
 592.061658195 602.827725867 591.186582484 594.756379308 590.990416542 592.321284103 c 0
 590.950699265 590.971567441 590.722952908 589.238296215 590.533936217 588.293212757 c 0
 589.64638025 583.855432924 588.5139956 576.647322956 585.768399153 568.410533616 c 0
 585.578917321 567.842088119 585.276926942 567.059234385 585.103214026 566.64864022 c 0
 571.591142047 534.711015544 540.789011632 504 505 504 c 0
 495.505764747 504 485.920304681 506.670720017 477.991333264 512.18355794 c 0
 463.025370716 522.589059682 457.793992828 540.076479429 457.793992828 555.054877404 c 0
 457.793992828 556.959382373 457.878569303 558.823323609 458.038465214 560.626985448 c 0
 458.143462332 563.844622144 458.310407567 578.468632461 455.61544271 590.595974318 c 0
 451.247364217 608.79630137 444.459186922 624 410 624 c 0
 390.106185145 624 363.346816743 614.654299629 332.723023881 593.310443998 c 0
 271.572767914 550.690568627 199.45996467 462.703915208 156.153846154 358.769230769 c 0
 131.754580249 300.210992599 122.12861419 248.259591501 122.12861419 207.705657675 c 0
 122.12861419 175.795237497 128.088574879 150.941611045 137.500765335 135.478726725 c 0
 147.77178209 118.604913486 159.294266246 112 178 112 c 0
 212.901059595 112 248.030991341 132.644685863 275.481427067 156.308854593 c 0
 284.990751549 164.233291661 291.363734274 171.065783653 298.606544683 178.501801728 c 2
 337.147786719 272 l 1
 277 272 l 2
 270.629973425 272 264.189898332 273.151764334 258.198042389 275.6723409 c 0
 237.687232802 284.300563358 230.217803906 302.540648924 230.217803906 321.329356527 c 0
 230.217803906 332.435651735 232.827752826 343.733645065 236.896785974 353.35135978 c 0
 250.408857953 385.288984456 281.210988368 416 317 416 c 2
 452 416 l 2
450.8268031 368 m 2
 317 368 l 2
 310.789011632 368 289.591142047 354.711015544 281.103214026 334.64864022 c 0
 278.235379835 327.870123041 277.838821571 322.85626387 278.182769947 320 c 2
 373 320 l 2
 375.025660909 320 378.025638709 319.597693953 380.377453737 318.837976626 c 0
 390.507468044 315.565632796 396.953776077 305.892968832 396.953776077 295.785723263 c 0
 396.953776077 292.794837275 396.389300528 289.76589684 395.188764861 286.853486241 c 2
 341.188764861 155.853486241 l 2
 340.134942556 153.296991391 338.187018546 150.245893049 335.970562748 148.029437252 c 0
 328.803065932 140.861940435 319.580485284 130.576072366 306.518572933 119.691145407 c 0
 275.969008659 93.3553141368 231.098940405 64 178 64 c 0
 142.705733754 64 114.22821791 81.3950865145 96.4992346653 110.521273275 c 0
 81.2140483529 135.632650788 73.3721813681 168.845216544 73.3721813681 207.692925759 c 0
 73.3721813681 256.84852006 85.9276967732 315.026472256 111.846153846 377.230769231 c 0
 158.54003533 489.296084792 234.427232086 583.309431373 305.276976119 632.689556002 c 0
 340.653183257 657.345700371 375.893814855 672 410 672 c 0
 469.540813078 672 494.752635783 633.20369863 502.38455729 601.404025682 c 0
 505.581072764 587.019706051 506.152713707 574.130204158 506.152713707 566.078312518 c 0
 506.152713707 562.550348057 506.042970945 559.951100683 505.996195307 558.561752879 c 0
 505.98124662 557.891866405 505.933698558 557.074043709 505.853209632 556.349643374 c 0
 505.640937372 554.439193031 505.712834506 553.090287178 505.878353836 552.051858672 c 0
 513.350617126 552.938930409 531.841612917 565.345821006 540.517508784 584.471960364 c 0
 541.370457811 587.34278102 542.194275634 591.180338605 543.132095764 596.010272311 c 0
 543.398238389 599.314019248 544.105896153 605.666424096 544.105896153 614.14204195 c 0
 544.105896153 620.731078306 543.678210828 628.603315513 542.282910764 637.323940914 c 0
 539.494655202 655.912311321 534.303128079 674.952344476 522.178976101 690.10753445 c 0
 508.78125076 707.226850162 487.937473057 720 450 720 c 0
 411.228330525 720 364.291623987 701.623286747 317.681957157 669.281885274 c 0
 224.46550987 604.601085115 133.541738006 487.870635902 80.1784349695 358.828466742 c 0
 49.4684450231 284.566127417 35.2873709111 216.170539773 35.2873709111 160.55882098 c 0
 35.2873709111 118.672256149 43.3323696472 84.0380480821 58.4191519366 59.6118291373 c 0
 75.387794366 32.1387890135 100.935974815 16 139 16 c 0
 174.869771051 16 212.225628241 30.0566712747 245.045378653 48.8108143674 c 0
 309.766228589 86.184826302 355.182326461 140.759191329 358.71210014 145.287933486 c 0
 363.103056669 151.439544579 367.619002494 158.370524 368.871755222 161.293613699 c 2
 447.825633527 353.181520465 l 2
 450.44026086 359.456626065 451.098505517 364.417388819 450.8268031 368 c 2
EndSplineSet
EndChar

StartChar: H
Encoding: 72 72 40
Width: 569
Flags: HW
AnchorPoint: "above" 457 784 basechar 0
LayerCount: 2
Back
SplineSet
125.083984375 388 m 1
 461.083984375 388 l 1025
586.94921875 688 m 1
 321.8515625 48 l 1025
-17.3486328125 48 m 1
 247.749023438 688 l 1025
EndSplineSet
Fore
SplineSet
526.871305619 697.291133486 m 2
 540.431263108 729.341942095 571.202675473 760 607 760 c 0
 613.370026575 760 619.810101668 758.848235666 625.801957611 756.3276591 c 0
 646.323288742 747.695010575 653.778737122 729.414394406 653.778737122 710.633611455 c 0
 653.778737122 699.547280937 651.180839546 688.286664178 647.139079107 678.733412231 c 2
 382.139079107 38.7334122305 l 2
 368.559605489 6.63647458748 337.800712515 -24 302 -24 c 0
 295.709526307 -24 289.379426432 -22.8781846814 283.484249671 -20.4771689808 c 0
 262.495013154 -11.9285726511 254.477338871 6.92018744497 254.477338871 26.3789898237 c 0
 254.477338871 37.0218619639 256.875806623 47.8472267686 260.862202241 57.2696164105 c 2
 368.075820098 316 l 1
 158.033768943 316 l 1
 43.1377977589 38.7303835895 l 2
 29.5607321923 6.63913770468 -1.19970552125 -24 -37 -24 c 0
 -43.2904736929 -24 -49.6205735684 -22.8781846814 -55.5157503293 -20.4771689808 c 0
 -76.5054111168 -11.9283998521 -84.5225760868 6.92190601487 -84.5225760868 26.3803596001 c 0
 -84.5225760868 37.0224417576 -82.1245307504 47.8464293399 -78.1390791071 57.2665877695 c 2
 186.860920893 697.266587769 l 2
 200.645438396 729.848174595 232.501320054 760 268 760 c 0
 274.370026575 760 280.810101668 758.848235666 286.801957611 756.3276591 c 0
 307.324891764 747.694336236 314.77821279 729.407552247 314.77821279 710.627978048 c 0
 314.77821279 699.544687599 312.182146521 688.289753392 308.144526399 678.746287648 c 2
 217.868280703 460 l 1
 428 460 l 1
 526.871305619 697.291133486 l 2
571.128694381 678.708866514 m 2
 466.153846154 426.769230769 l 2
 462.789117049 418.693880918 453.897080065 412 444 412 c 2
 182 412 l 2
 179.951118997 412 176.968985997 412.402966812 174.61308724 413.165081128 c 0
 164.487718349 416.4405566 158.046312693 426.110670703 158.046312693 436.21435219 c 0
 158.046312693 439.2084368 158.611964911 442.240595143 159.815025595 445.155703723 c 2
 263.855473601 697.253712352 l 2
 266.79579684 704.203567282 267.155073106 709.194436796 266.827670966 711.913295126 c 1
 258.487956819 710.756112196 238.713789896 696.637274095 231.139079107 678.733412231 c 2
 -33.8609208929 38.7334122305 l 2
 -36.9715102808 31.3811100411 -36.957075186 26.3881094387 -36.4678951967 24.01810718 c 0
 -29.240740687 24.7109229652 -9.15569982876 38.3182115182 -1.13779775893 57.2696164105 c 2
 119.828224062 349.187619481 l 2
 123.196503348 357.316028999 132.097793189 364 142 364 c 2
 404 364 l 2
 406.129510168 364 409.049756424 363.594713267 411.419765651 362.824265107 c 0
 421.528986566 359.537935854 427.953378657 349.876692076 427.953378657 339.785390201 c 0
 427.953378657 336.780191118 427.383628914 333.736852163 426.171775938 330.812380519 c 2
 305.137797759 38.7303835895 l 2
 302.029858567 31.3843454999 302.043180853 26.3868689708 302.532104803 24.01810718 c 0
 309.758737626 24.7108729548 329.845441959 38.3209102897 337.860920893 57.2665877695 c 2
 602.860920893 697.266587769 l 2
 605.789414984 704.188482894 606.154095849 709.202552274 605.827895425 711.911431137 c 1
 597.962095154 710.801008908 578.903912539 697.086654888 571.128694381 678.708866514 c 2
EndSplineSet
EndChar

StartChar: I
Encoding: 73 73 41
Width: 268
Flags: HW
HStem: 0 21G<123.803 144.997> 716 20G<123.803 144.997>
VStem: 96 77<7.56638 728.434>
AnchorPoint: "above" 307 784 basechar 0
LayerCount: 2
Back
SplineSet
266.94921875 688 m 1
 1.8515625 48 l 1025
EndSplineSet
Fore
SplineSet
206.867154037 697.281320656 m 2
 220.434913639 729.350570625 251.201321031 760 287 760 c 0
 293.370026575 760 299.810101668 758.848235666 305.801957611 756.3276591 c 0
 326.323288742 747.695010575 333.778737122 729.414394406 333.778737122 710.633611455 c 0
 333.778737122 699.547280937 331.180839546 688.286664178 327.139079107 678.733412231 c 2
 62.1390791071 38.7334122305 l 2
 48.5596054888 6.63647458748 17.800712515 -24 -18 -24 c 0
 -24.2904736929 -24 -30.6205735684 -22.8781846814 -36.5157503293 -20.4771689808 c 0
 -57.5033480082 -11.9292401248 -65.5229899541 6.91354816591 -65.5229899541 26.3736975772 c 0
 -65.5229899541 37.0196214686 -63.1228898706 47.8503077829 -59.1328459629 57.2813206556 c 2
 206.867154037 697.281320656 l 2
251.132845963 678.718679344 m 2
 -14.8671540371 38.7186793444 l 2
 -17.964851492 31.3968489964 -17.9558296809 26.3820751571 -17.4678951967 24.01810718 c 0
 -10.2412623738 24.7108729548 9.84544195919 38.3209102897 17.8609208929 57.2665877695 c 2
 282.860920893 697.266587769 l 2
 285.789414984 704.188482894 286.154095849 709.202552274 285.827895425 711.911431137 c 1
 277.964316042 710.801322433 258.900093437 697.077627921 251.132845963 678.718679344 c 2
EndSplineSet
EndChar

StartChar: J
Encoding: 74 74 42
Width: 435
Flags: HW
AnchorPoint: "above" 390 784 basechar 0
LayerCount: 2
Back
SplineSet
40.3486328125 280 m 1
 13.8388671875 216 l 1
 13.8388671875 216 l 1
 -26.4228515625 118.797851562 -4.6201171875 40 62.5380859375 40 c 0
 129.6953125 40 221.227539062 129.54296875 266.98046875 240 c 2
 452.548828125 688 l 1025
EndSplineSet
Fore
SplineSet
-20.1079826933 289.340088384 m 2
 -6.59448894708 321.281073602 24.2109883683 352 60 352 c 0
 66.2904736929 352 72.6205735684 350.878184681 78.5157503293 348.477168981 c 0
 99.4967101042 339.931943642 107.524322062 321.113372922 107.524322062 301.647781991 c 0
 107.524322062 290.989487017 105.117596021 280.137211517 101.112739863 270.67118787 c 2
 74.1201692282 206.688798217 l 2
 64.3370560798 183.395671674 60.9709222362 163.826436116 60.9709222362 148.858959012 c 0
 60.9709222362 134.007100214 64.2852526222 123.686180642 67.9332232157 118.753880887 c 0
 72.1222963653 113.717355669 75.4554310566 112 82 112 c 0
 88.8734367212 112 100.326696057 114.842823636 114.159603258 124.607228718 c 0
 143.476945923 145.301823541 183.562317837 192.419286463 206.804782177 249.130899452 c 2
 391.85646441 697.256054264 l 2
 405.444313146 729.372787639 436.19783357 760 472 760 c 0
 478.290473693 760 484.620573568 758.878184681 490.515750329 756.477168981 c 0
 511.503937037 747.929000222 519.522871707 729.084065382 519.522871707 709.624400072 c 0
 519.522871707 698.979573087 517.123358435 688.150799733 513.134626155 678.722887071 c 2
 327.152108428 230.764994911 l 2
 289.544921521 140.925603966 227.514731714 58.650119154 156.723023881 9.31044399752 c 0
 121.125189136 -15.500168097 81.9489922121 -32 43 -32 c 0
 5.70064655976 -32 -26.4282959854 -16.7622720195 -46.0861731206 9.44823082752 c 0
 -65.3600086019 34.3176959646 -74.2671951754 66.649408741 -74.2671951754 103.000720693 c 0
 -74.2671951754 140.703627228 -64.6853304978 182.730598947 -47.1499862317 225.240524441 c 2
 -20.1079826933 289.340088384 l 2
24.1079826933 270.659911616 m 2
 -2.85001376833 206.759475559 l 2
 -18.8190113924 168.046754046 -25.7449768241 132.953877603 -25.7449768241 103.928965196 c 0
 -25.7449768241 75.5948546945 -19.1447683918 53.0433066079 -7.91382687936 38.5517691725 c 0
 2.42829598538 24.7622720195 18.2993534402 16 43 16 c 0
 68.0510077879 16 98.8748108637 27.500168097 129.276976119 48.6895560025 c 0
 190.49718063 91.3581833889 248.440261145 167.038999069 282.861416281 249.267314115 c 2
 468.865373845 697.277112929 l 2
 471.966753248 704.607646064 471.956185398 709.616201446 471.467895197 711.98189282 c 0
 464.243076782 711.28930098 444.150586943 697.669703479 436.14353559 678.743945736 c 2
 251.183033787 230.839595423 l 2
 224.450635362 165.612543266 180.512664902 112.690842924 141.840396742 85.3927712816 c 0
 121.673303943 71.1571763643 101.126563279 64 82 64 c 0
 60.5608255459 64 42.3716744176 73.8666615534 30.0817452362 89.2290730301 c 0
 18.0009325029 105.085139743 12.2981516513 125.252241929 12.2981516513 148.035158351 c 0
 12.2981516513 171.612774111 18.4057127511 197.991873162 29.8724294654 225.293579625 c 2
 56.887260137 289.32881213 l 2
 59.9433931921 296.552399351 59.9518118749 301.637390499 59.4678951967 303.98189282 c 0
 52.2266602992 303.287727248 32.1912854845 289.765900032 24.1079826933 270.659911616 c 2
EndSplineSet
EndChar

StartChar: K
Encoding: 75 75 43
Width: 537
Flags: HW
AnchorPoint: "above" 441 784 basechar 0
LayerCount: 2
Back
SplineSet
328.250976562 48 m 1
 268.9375 434 l 1025
580.548828125 688 m 1
 81.177734375 282 l 1025
247.749023438 688 m 1
 -17.3486328125 48 l 1025
EndSplineSet
Fore
SplineSet
344.809965237 57.1423648571 m 0
 346.931030676 62.7311828486 347.636045689 68.7980902224 347.217619009 72.7523379405 c 2
 293.275980027 425.370829806 l 2
 292.207670737 432.354407197 294.995133977 442.025709693 301.835348977 447.601971921 c 2
 577.835348977 672.601971921 l 2
 585.6048427 678.958830422 592.170264347 687.417455274 597.044508736 697.701419584 c 0
 599.687416359 704.226351458 599.92942246 709.745863791 599.473036342 711.956984758 c 0
 597.268800838 711.622616192 589.546303033 708.502046087 583.071541158 703.322236586 c 2
 180.149867452 375.385986027 l 2
 174.088371307 370.452559884 165.360859128 368.667019442 157.635221643 371.157932673 c 0
 147.498985085 374.426075375 141.046105035 384.102153363 141.046105035 394.214174732 c 0
 141.046105035 397.200775489 141.609005979 400.225404683 142.806162575 403.134198396 c 2
 263.85094197 697.243001224 l 2
 266.800841091 704.215490056 267.15567824 709.189411561 266.827670966 711.913295126 c 1
 258.487956819 710.756112196 238.713789896 696.637274095 231.139079107 678.733412231 c 2
 -33.8609208929 38.7334122305 l 2
 -36.9715102808 31.3811100411 -36.957075186 26.3881094387 -36.4678951967 24.01810718 c 0
 -29.2395861809 24.7110336395 -9.15822663411 38.3122390692 -1.1349621034 57.276318869 c 2
 86.833800076 269.201064119 l 2
 88.2883161346 272.705125533 90.7768280134 276.110760014 93.8431897467 278.608361103 c 2
 217.843189747 379.608361103 l 2
 220.005510301 381.369606071 224.009014221 383.544422635 227.531701894 384.368733723 c 0
 229.310471032 384.784966799 231.09360448 384.98377496 232.85358438 384.98377496 c 0
 244.384439507 384.98377496 254.921434694 376.449987465 256.725726145 364.617999295 c 2
 308.662876976 24.0301448095 l 1
 315.965027645 24.7193380359 336.379234021 37.941067491 344.809965237 57.1423648571 c 0
389.195488196 38.8667428045 m 0
 375.305039883 6.03477406363 343.517020885 -24 308 -24 c 0
 297.767794697 -24 287.397412435 -20.9811785513 279.079520937 -14.6301643324 c 0
 268.718290876 -6.71898642681 263.231223916 4.62635577558 261.299277899 16.2180318788 c 2
 215.603559746 315.876491306 l 1
 128.847063758 245.211926025 l 1
 43.1349621034 38.723681131 l 2
 29.5632256152 6.64503124978 -1.20063064599 -24 -37 -24 c 0
 -43.2904736929 -24 -49.6205735684 -22.8781846814 -55.5157503293 -20.4771689808 c 0
 -76.5054111168 -11.9283998521 -84.5225760868 6.92190601487 -84.5225760868 26.3803596001 c 0
 -84.5225760868 37.0224417576 -82.1245307504 47.8464293399 -78.1390791071 57.2665877695 c 2
 186.860920893 697.266587769 l 2
 200.645438396 729.848174595 232.501320054 760 268 760 c 0
 274.370026575 760 280.810101668 758.848235666 286.801957611 756.3276591 c 0
 307.32622633 747.693774828 314.777776802 729.401857392 314.777776802 710.623289796 c 0
 314.777776802 699.542529966 312.183234192 688.292324249 308.14905803 678.756998776 c 2
 223.176057378 472.293674877 l 1
 552.928458842 740.677763414 l 2
 565.409818129 750.662850843 580.934605299 760 600 760 c 0
 606.290473693 760 612.620573568 758.878184681 618.515750329 756.477168981 c 0
 639.444571737 747.953178805 647.535136752 729.325554981 647.535136752 709.817365316 c 0
 647.535136752 699.061706379 645.075794573 688.03837606 640.952797906 678.29311121 c 0
 633.139537992 661.364381397 622.474337924 647.105904693 608.181190997 635.411511753 c 2
 342.798675555 419.067069817 l 1
 394.773820262 79.3036238656 l 2
 395.171796458 76.1198142924 395.376888467 72.9099918216 395.376888467 69.6712399149 c 0
 395.376888467 59.7053164066 393.434981254 49.4654754484 389.195488196 38.8667428045 c 0
EndSplineSet
EndChar

StartChar: L
Encoding: 76 76 44
Width: 524
Flags: HW
AnchorPoint: "above" 435 784 basechar 0
LayerCount: 2
Back
SplineSet
247.749023438 688 m 1
 -17.3486328125 48 l 1
 315.451171875 48 l 1025
EndSplineSet
Fore
SplineSet
186.860920893 697.266587769 m 2
 200.645438396 729.848174595 232.501320054 760 268 760 c 0
 274.370026575 760 280.810101668 758.848235666 286.801957611 756.3276591 c 0
 307.323536688 747.694906272 314.778655976 729.413335976 314.778655976 710.632739964 c 0
 314.778655976 699.546879695 312.181041738 688.287142086 308.139921955 678.735404416 c 2
 76.9065197894 120 l 1
 335 120 l 2
 341.290473693 120 347.620573568 118.878184681 353.515750329 116.477168981 c 0
 374.493566403 107.933224023 382.524963602 89.1261100102 382.524963602 69.6579291809 c 0
 382.524963602 58.9937815619 380.115098913 48.1312772264 376.103214026 38.6486402199 c 0
 362.591142047 6.71101554389 331.789011632 -24 296 -24 c 2
 -37 -24 l 2
 -43.2904736929 -24 -49.6205735684 -22.8781846814 -55.5157503293 -20.4771689808 c 0
 -76.5054111168 -11.9283998521 -84.5225760868 6.92190601487 -84.5225760868 26.3803596001 c 0
 -84.5225760868 37.0224417576 -82.1245307504 47.8464293399 -78.1390791071 57.2665877695 c 2
 186.860920893 697.266587769 l 2
231.139079107 678.733412231 m 2
 -33.8609208929 38.7334122305 l 2
 -36.9742849757 31.3745516714 -36.9610678137 26.4074531094 -36.4641577867 24 c 2
 296 24 l 2
 302.210988368 24 323.408857953 37.2889844561 331.896785974 57.3513597801 c 0
 334.935970764 64.5348874653 334.953901263 69.627267731 334.464157787 72 c 2
 41 72 l 2
 38.8959369088 72 35.9561718037 72.4045502492 33.5906041954 73.1723664431 c 0
 23.4762839728 76.4552736107 17.0465238634 86.1193196422 17.0465238634 96.2145292337 c 0
 17.0465238634 99.2162192369 17.6149784406 102.256028376 18.8240524071 105.177545879 c 2
 263.860078045 697.264595584 l 2
 266.79067154 704.191452934 267.154458249 709.199542777 266.827670966 711.913295126 c 1
 258.487956819 710.756112196 238.713789896 696.637274095 231.139079107 678.733412231 c 2
EndSplineSet
EndChar

